<svg xmlns="http://www.w3.org/2000/svg" xmlns:xlink="http://www.w3.org/1999/xlink" width="512" zoomAndPan="magnify" viewBox="0 0 384 383.999986" height="512" preserveAspectRatio="xMidYMid meet" version="1.0"><defs><g/><clipPath id="310be1d6fa"><path d="M 1 2.25 L 383 2.25 L 383 384 L 1 384 Z M 1 2.25 " clip-rule="nonzero"/></clipPath></defs><g fill="#000000" fill-opacity="1"><g transform="translate(186.431244, 198.374984)"><g><path d="M 3.125 0.234375 C 2.644531 0.234375 2.21875 0.148438 1.84375 -0.015625 C 1.476562 -0.191406 1.191406 -0.441406 0.984375 -0.765625 C 0.785156 -1.097656 0.6875 -1.484375 0.6875 -1.921875 C 0.6875 -2.265625 0.765625 -2.582031 0.921875 -2.875 C 1.078125 -3.164062 1.289062 -3.410156 1.5625 -3.609375 C 1.8125 -3.804688 2.101562 -3.992188 2.4375 -4.171875 C 2.769531 -4.347656 3.109375 -4.5 3.453125 -4.625 C 4.160156 -4.875 4.796875 -5.164062 5.359375 -5.5 C 5.617188 -5.65625 5.828125 -5.84375 5.984375 -6.0625 C 6.140625 -6.289062 6.21875 -6.53125 6.21875 -6.78125 C 6.21875 -7.4375 6.054688 -7.929688 5.734375 -8.265625 C 5.410156 -8.597656 4.945312 -8.765625 4.34375 -8.765625 C 3.914062 -8.765625 3.515625 -8.695312 3.140625 -8.5625 C 2.773438 -8.4375 2.488281 -8.257812 2.28125 -8.03125 C 2.644531 -8.03125 2.9375 -7.929688 3.15625 -7.734375 C 3.382812 -7.535156 3.5 -7.289062 3.5 -7 C 3.5 -6.757812 3.445312 -6.546875 3.34375 -6.359375 C 3.238281 -6.171875 3.09375 -6.019531 2.90625 -5.90625 C 2.71875 -5.800781 2.507812 -5.75 2.28125 -5.75 C 1.914062 -5.75 1.609375 -5.875 1.359375 -6.125 C 1.117188 -6.382812 1 -6.738281 1 -7.1875 C 1 -7.425781 1.078125 -7.679688 1.234375 -7.953125 C 1.390625 -8.234375 1.613281 -8.503906 1.90625 -8.765625 C 2.195312 -9.046875 2.59375 -9.269531 3.09375 -9.4375 C 3.59375 -9.601562 4.132812 -9.6875 4.71875 -9.6875 C 5.207031 -9.6875 5.644531 -9.628906 6.03125 -9.515625 C 6.425781 -9.410156 6.785156 -9.242188 7.109375 -9.015625 C 7.421875 -8.773438 7.664062 -8.441406 7.84375 -8.015625 C 8.019531 -7.597656 8.109375 -7.101562 8.109375 -6.53125 L 8.109375 -2.484375 C 8.109375 -2.234375 8.132812 -2.003906 8.1875 -1.796875 C 8.25 -1.597656 8.359375 -1.421875 8.515625 -1.265625 C 8.679688 -1.097656 8.890625 -1.015625 9.140625 -1.015625 C 9.878906 -1.015625 10.25 -1.535156 10.25 -2.578125 L 10.25 -3.890625 L 11.21875 -3.890625 L 11.21875 -2.75 C 11.21875 -2.164062 11.15625 -1.671875 11.03125 -1.265625 C 10.90625 -0.859375 10.726562 -0.550781 10.5 -0.34375 C 10.269531 -0.132812 10.015625 0.0078125 9.734375 0.09375 C 9.460938 0.1875 9.140625 0.234375 8.765625 0.234375 C 8.359375 0.234375 7.984375 0.15625 7.640625 0 C 7.304688 -0.15625 7.023438 -0.398438 6.796875 -0.734375 C 6.546875 -1.078125 6.398438 -1.484375 6.359375 -1.953125 C 6.191406 -1.535156 5.941406 -1.160156 5.609375 -0.828125 C 5.273438 -0.492188 4.890625 -0.234375 4.453125 -0.046875 C 4.023438 0.140625 3.582031 0.234375 3.125 0.234375 Z M 3.59375 -1.03125 C 3.96875 -1.03125 4.363281 -1.144531 4.78125 -1.375 C 5.195312 -1.601562 5.539062 -1.894531 5.8125 -2.25 C 6.082031 -2.59375 6.21875 -2.929688 6.21875 -3.265625 L 6.21875 -5.140625 C 5.882812 -4.796875 5.476562 -4.476562 5 -4.1875 C 4.53125 -3.894531 4.101562 -3.660156 3.71875 -3.484375 C 3.375 -3.335938 3.09375 -3.140625 2.875 -2.890625 C 2.664062 -2.640625 2.5625 -2.347656 2.5625 -2.015625 C 2.5625 -1.710938 2.648438 -1.472656 2.828125 -1.296875 C 3.003906 -1.117188 3.257812 -1.03125 3.59375 -1.03125 Z M 3.59375 -1.03125 "/></g></g></g><path fill="#a6a6a6" d="M 379.210938 192.871094 C 379.210938 195.929688 379.136719 198.988281 378.988281 202.039062 C 378.835938 205.09375 378.613281 208.144531 378.3125 211.1875 C 378.011719 214.230469 377.636719 217.261719 377.1875 220.289062 C 376.742188 223.3125 376.21875 226.324219 375.621094 229.324219 C 375.023438 232.324219 374.355469 235.304688 373.613281 238.273438 C 372.867188 241.238281 372.054688 244.183594 371.167969 247.109375 C 370.277344 250.035156 369.320312 252.9375 368.289062 255.816406 C 367.257812 258.695312 366.160156 261.550781 364.988281 264.375 C 363.820312 267.199219 362.578125 269.992188 361.273438 272.757812 C 359.964844 275.523438 358.589844 278.253906 357.148438 280.949219 C 355.707031 283.644531 354.203125 286.304688 352.628906 288.929688 C 351.058594 291.550781 349.421875 294.132812 347.722656 296.675781 C 346.023438 299.21875 344.265625 301.71875 342.441406 304.175781 C 340.621094 306.628906 338.738281 309.039062 336.800781 311.402344 C 334.859375 313.765625 332.863281 316.082031 330.808594 318.347656 C 328.757812 320.613281 326.648438 322.828125 324.488281 324.988281 C 322.324219 327.152344 320.109375 329.257812 317.84375 331.3125 C 315.578125 333.367188 313.265625 335.363281 310.902344 337.304688 C 308.535156 339.242188 306.128906 341.125 303.671875 342.945312 C 301.214844 344.765625 298.714844 346.527344 296.171875 348.226562 C 293.628906 349.925781 291.046875 351.558594 288.425781 353.132812 C 285.800781 354.703125 283.144531 356.210938 280.445312 357.652344 C 277.75 359.09375 275.019531 360.46875 272.253906 361.777344 C 269.492188 363.082031 266.695312 364.320312 263.871094 365.492188 C 261.046875 366.664062 258.195312 367.761719 255.316406 368.792969 C 252.4375 369.824219 249.53125 370.78125 246.605469 371.667969 C 243.679688 372.558594 240.734375 373.371094 237.769531 374.113281 C 234.800781 374.859375 231.820312 375.527344 228.820312 376.125 C 225.820312 376.722656 222.808594 377.242188 219.785156 377.691406 C 216.761719 378.140625 213.726562 378.515625 210.683594 378.816406 C 207.640625 379.113281 204.589844 379.339844 201.539062 379.488281 C 198.484375 379.640625 195.425781 379.714844 192.371094 379.714844 C 189.3125 379.714844 186.257812 379.640625 183.203125 379.488281 C 180.148438 379.339844 177.097656 379.113281 174.054688 378.816406 C 171.011719 378.515625 167.980469 378.140625 164.953125 377.691406 C 161.929688 377.242188 158.917969 376.722656 155.917969 376.125 C 152.917969 375.527344 149.9375 374.859375 146.972656 374.113281 C 144.003906 373.371094 141.058594 372.558594 138.132812 371.667969 C 135.207031 370.78125 132.304688 369.824219 129.425781 368.792969 C 126.546875 367.761719 123.695312 366.664062 120.867188 365.492188 C 118.042969 364.320312 115.25 363.082031 112.484375 361.777344 C 109.71875 360.46875 106.988281 359.09375 104.292969 357.652344 C 101.597656 356.210938 98.9375 354.703125 96.3125 353.132812 C 93.691406 351.558594 91.109375 349.925781 88.566406 348.226562 C 86.023438 346.527344 83.523438 344.765625 81.066406 342.945312 C 78.613281 341.125 76.203125 339.242188 73.839844 337.304688 C 71.476562 335.363281 69.160156 333.367188 66.894531 331.3125 C 64.628906 329.261719 62.414062 327.152344 60.253906 324.988281 C 58.089844 322.828125 55.984375 320.613281 53.929688 318.347656 C 51.875 316.082031 49.878906 313.769531 47.9375 311.402344 C 46 309.039062 44.117188 306.628906 42.296875 304.175781 C 40.476562 301.71875 38.714844 299.21875 37.015625 296.675781 C 35.316406 294.132812 33.683594 291.550781 32.109375 288.929688 C 30.539062 286.304688 29.03125 283.644531 27.589844 280.949219 C 26.148438 278.253906 24.773438 275.523438 23.464844 272.757812 C 22.160156 269.992188 20.921875 267.199219 19.75 264.375 C 18.582031 261.550781 17.480469 258.695312 16.449219 255.816406 C 15.417969 252.9375 14.460938 250.035156 13.574219 247.109375 C 12.6875 244.183594 11.871094 241.238281 11.128906 238.273438 C 10.382812 235.304688 9.714844 232.324219 9.117188 229.324219 C 8.519531 226.324219 8 223.3125 7.550781 220.289062 C 7.101562 217.261719 6.726562 214.230469 6.425781 211.1875 C 6.128906 208.144531 5.902344 205.09375 5.753906 202.039062 C 5.601562 198.988281 5.527344 195.929688 5.527344 192.871094 C 5.527344 189.816406 5.601562 186.757812 5.753906 183.703125 C 5.902344 180.652344 6.128906 177.601562 6.425781 174.558594 C 6.726562 171.515625 7.101562 168.480469 7.550781 165.457031 C 8 162.433594 8.519531 159.421875 9.117188 156.421875 C 9.714844 153.421875 10.382812 150.441406 11.128906 147.472656 C 11.871094 144.507812 12.6875 141.5625 13.574219 138.636719 C 14.460938 135.710938 15.417969 132.808594 16.449219 129.925781 C 17.480469 127.046875 18.582031 124.195312 19.75 121.371094 C 20.921875 118.546875 22.160156 115.75 23.464844 112.988281 C 24.773438 110.222656 26.148438 107.492188 27.589844 104.796875 C 29.03125 102.097656 30.539062 99.441406 32.109375 96.816406 C 33.683594 94.195312 35.316406 91.613281 37.015625 89.070312 C 38.714844 86.527344 40.476562 84.027344 42.296875 81.570312 C 44.117188 79.113281 46 76.707031 47.9375 74.339844 C 49.878906 71.976562 51.875 69.664062 53.929688 67.398438 C 55.984375 65.132812 58.089844 62.917969 60.253906 60.753906 C 62.414062 58.59375 64.628906 56.484375 66.894531 54.433594 C 69.160156 52.378906 71.476562 50.382812 73.839844 48.441406 C 76.203125 46.503906 78.613281 44.621094 81.066406 42.800781 C 83.523438 40.976562 86.023438 39.21875 88.566406 37.519531 C 91.109375 35.820312 93.691406 34.183594 96.3125 32.613281 C 98.9375 31.042969 101.597656 29.535156 104.292969 28.09375 C 106.988281 26.652344 109.71875 25.277344 112.484375 23.96875 C 115.25 22.664062 118.042969 21.421875 120.867188 20.253906 C 123.695312 19.082031 126.546875 17.984375 129.425781 16.953125 C 132.304688 15.921875 135.207031 14.964844 138.132812 14.078125 C 141.058594 13.1875 144.003906 12.375 146.972656 11.628906 C 149.9375 10.886719 152.917969 10.21875 155.917969 9.621094 C 158.917969 9.023438 161.929688 8.5 164.953125 8.054688 C 167.980469 7.605469 171.011719 7.230469 174.054688 6.929688 C 177.097656 6.632812 180.148438 6.40625 183.203125 6.257812 C 186.257812 6.105469 189.3125 6.03125 192.371094 6.03125 C 195.425781 6.03125 198.484375 6.105469 201.539062 6.257812 C 204.589844 6.40625 207.640625 6.632812 210.683594 6.929688 C 213.726562 7.230469 216.761719 7.605469 219.785156 8.054688 C 222.808594 8.5 225.820312 9.023438 228.820312 9.621094 C 231.820312 10.21875 234.800781 10.886719 237.769531 11.628906 C 240.734375 12.375 243.679688 13.1875 246.605469 14.078125 C 249.53125 14.964844 252.4375 15.921875 255.316406 16.953125 C 258.195312 17.984375 261.046875 19.082031 263.871094 20.253906 C 266.695312 21.421875 269.492188 22.664062 272.253906 23.96875 C 275.019531 25.277344 277.75 26.652344 280.445312 28.09375 C 283.144531 29.535156 285.800781 31.042969 288.425781 32.613281 C 291.046875 34.183594 293.628906 35.820312 296.171875 37.519531 C 298.714844 39.21875 301.214844 40.976562 303.671875 42.800781 C 306.128906 44.621094 308.535156 46.503906 310.902344 48.441406 C 313.265625 50.382812 315.578125 52.378906 317.84375 54.433594 C 320.109375 56.484375 322.324219 58.59375 324.488281 60.753906 C 326.648438 62.917969 328.757812 65.132812 330.808594 67.398438 C 332.863281 69.664062 334.859375 71.976562 336.800781 74.339844 C 338.738281 76.707031 340.621094 79.113281 342.441406 81.570312 C 344.265625 84.027344 346.023438 86.527344 347.722656 89.070312 C 349.421875 91.613281 351.058594 94.195312 352.628906 96.816406 C 354.199219 99.441406 355.707031 102.097656 357.148438 104.796875 C 358.589844 107.492188 359.964844 110.222656 361.273438 112.988281 C 362.578125 115.75 363.820312 118.546875 364.988281 121.371094 C 366.160156 124.195312 367.257812 127.046875 368.289062 129.925781 C 369.320312 132.808594 370.277344 135.710938 371.167969 138.636719 C 372.054688 141.5625 372.867188 144.507812 373.613281 147.472656 C 374.355469 150.441406 375.023438 153.421875 375.621094 156.421875 C 376.21875 159.421875 376.742188 162.433594 377.1875 165.457031 C 377.636719 168.480469 378.011719 171.515625 378.3125 174.558594 C 378.613281 177.601562 378.835938 180.652344 378.984375 183.703125 C 379.136719 186.757812 379.210938 189.816406 379.210938 192.871094 Z M 379.210938 192.871094 " fill-opacity="1" fill-rule="nonzero"/><path fill="#545454" d="M 300.699219 40.601562 C 302.46875 42.765625 304.191406 44.96875 305.863281 47.210938 C 307.535156 49.453125 309.15625 51.734375 310.726562 54.046875 C 312.296875 56.363281 313.816406 58.714844 315.28125 61.097656 C 316.742188 63.480469 318.15625 65.894531 319.511719 68.34375 C 320.867188 70.789062 322.167969 73.265625 323.410156 75.769531 C 324.65625 78.273438 325.84375 80.808594 326.976562 83.367188 C 328.105469 85.925781 329.179688 88.507812 330.195312 91.113281 C 331.210938 93.71875 332.167969 96.347656 333.0625 99 C 333.960938 101.648438 334.796875 104.316406 335.574219 107.003906 C 336.351562 109.691406 337.066406 112.394531 337.722656 115.113281 C 338.378906 117.832031 338.972656 120.566406 339.507812 123.3125 C 340.039062 126.058594 340.511719 128.816406 340.917969 131.582031 C 341.328125 134.351562 341.675781 137.125 341.960938 139.910156 C 342.242188 142.691406 342.464844 145.480469 342.625 148.273438 C 342.785156 151.066406 342.878906 153.859375 342.914062 156.65625 C 342.949219 159.453125 342.917969 162.25 342.824219 165.046875 C 342.734375 167.84375 342.578125 170.636719 342.363281 173.425781 C 342.144531 176.214844 341.863281 178.996094 341.523438 181.773438 C 341.179688 184.546875 340.773438 187.316406 340.308594 190.074219 C 339.839844 192.832031 339.3125 195.578125 338.722656 198.3125 C 338.132812 201.046875 337.480469 203.765625 336.769531 206.472656 C 336.054688 209.175781 335.28125 211.867188 334.449219 214.535156 C 333.617188 217.207031 332.722656 219.855469 331.769531 222.488281 C 330.820312 225.117188 329.808594 227.726562 328.738281 230.308594 C 327.667969 232.894531 326.542969 235.453125 325.359375 237.988281 C 324.175781 240.523438 322.933594 243.03125 321.636719 245.507812 C 320.339844 247.988281 318.988281 250.433594 317.582031 252.851562 C 316.171875 255.269531 314.710938 257.65625 313.199219 260.007812 C 311.683594 262.359375 310.117188 264.675781 308.5 266.960938 C 306.882812 269.242188 305.214844 271.484375 303.492188 273.691406 C 301.773438 275.898438 300.007812 278.066406 298.191406 280.195312 C 296.375 282.320312 294.511719 284.40625 292.601562 286.449219 C 290.691406 288.496094 288.734375 290.496094 286.734375 292.449219 C 284.734375 294.40625 282.691406 296.316406 280.609375 298.179688 C 278.523438 300.046875 276.394531 301.863281 274.226562 303.628906 C 272.058594 305.398438 269.855469 307.117188 267.609375 308.789062 C 265.367188 310.457031 263.085938 312.074219 260.765625 313.640625 C 258.449219 315.210938 256.097656 316.722656 253.714844 318.183594 C 251.328125 319.648438 248.910156 321.054688 246.460938 322.40625 C 244.015625 323.757812 241.535156 325.058594 239.027344 326.296875 C 236.523438 327.539062 233.988281 328.722656 231.429688 329.851562 C 228.867188 330.980469 226.285156 332.050781 223.675781 333.0625 C 221.070312 334.074219 218.4375 335.027344 215.789062 335.917969 C 213.136719 336.8125 210.46875 337.644531 207.78125 338.417969 C 205.089844 339.191406 202.386719 339.90625 199.667969 340.558594 C 196.945312 341.210938 194.210938 341.800781 191.464844 342.332031 C 188.71875 342.859375 185.960938 343.328125 183.191406 343.730469 C 180.425781 344.136719 177.648438 344.480469 174.867188 344.761719 C 172.082031 345.042969 169.292969 345.261719 166.5 345.414062 C 163.707031 345.570312 160.914062 345.664062 158.117188 345.695312 C 155.320312 345.722656 152.523438 345.691406 149.726562 345.59375 C 146.929688 345.5 144.140625 345.339844 141.351562 345.121094 C 138.5625 344.898438 135.777344 344.613281 133.003906 344.269531 C 130.226562 343.921875 127.460938 343.511719 124.703125 343.042969 C 121.945312 342.574219 119.199219 342.039062 116.464844 341.445312 C 113.730469 340.851562 111.011719 340.199219 108.308594 339.480469 C 105.605469 338.765625 102.917969 337.988281 100.25 337.152344 C 97.578125 336.316406 94.929688 335.417969 92.300781 334.464844 C 89.671875 333.507812 87.066406 332.496094 84.480469 331.421875 C 81.898438 330.347656 79.339844 329.21875 76.808594 328.03125 C 74.273438 326.84375 71.769531 325.597656 69.292969 324.296875 C 66.816406 323 64.371094 321.644531 61.953125 320.234375 C 59.539062 318.824219 57.15625 317.359375 54.804688 315.84375 C 52.453125 314.324219 50.140625 312.753906 47.859375 311.132812 C 49.960938 313.703125 52.125 316.214844 54.359375 318.667969 C 56.59375 321.125 58.890625 323.515625 61.253906 325.847656 C 63.613281 328.179688 66.035156 330.445312 68.519531 332.648438 C 71 334.851562 73.539062 336.984375 76.136719 339.050781 C 78.730469 341.121094 81.378906 343.117188 84.082031 345.042969 C 86.785156 346.96875 89.535156 348.820312 92.335938 350.601562 C 95.136719 352.378906 97.984375 354.082031 100.875 355.710938 C 103.769531 357.339844 106.699219 358.886719 109.675781 360.359375 C 112.648438 361.832031 115.660156 363.222656 118.710938 364.53125 C 121.757812 365.84375 124.839844 367.074219 127.953125 368.21875 C 131.066406 369.367188 134.210938 370.429688 137.378906 371.410156 C 140.550781 372.386719 143.746094 373.28125 146.964844 374.089844 C 150.179688 374.898438 153.417969 375.621094 156.675781 376.257812 C 159.933594 376.894531 163.203125 377.445312 166.488281 377.90625 C 169.777344 378.371094 173.070312 378.746094 176.378906 379.03125 C 179.683594 379.316406 182.996094 379.515625 186.3125 379.625 C 189.628906 379.734375 192.945312 379.757812 196.261719 379.691406 C 199.582031 379.625 202.894531 379.46875 206.203125 379.226562 C 209.511719 378.984375 212.8125 378.652344 216.105469 378.234375 C 219.398438 377.8125 222.675781 377.308594 225.941406 376.714844 C 229.203125 376.121094 232.453125 375.441406 235.679688 374.671875 C 238.910156 373.90625 242.113281 373.054688 245.296875 372.117188 C 248.480469 371.179688 251.636719 370.15625 254.765625 369.050781 C 257.894531 367.945312 260.992188 366.757812 264.058594 365.488281 C 267.121094 364.214844 270.152344 362.863281 273.144531 361.433594 C 276.136719 360 279.089844 358.488281 282.003906 356.898438 C 284.917969 355.308594 287.785156 353.644531 290.609375 351.902344 C 293.433594 350.160156 296.210938 348.34375 298.9375 346.453125 C 301.664062 344.5625 304.339844 342.601562 306.960938 340.566406 C 309.585938 338.535156 312.152344 336.433594 314.664062 334.261719 C 317.171875 332.09375 319.625 329.859375 322.015625 327.558594 C 324.40625 325.257812 326.738281 322.894531 329.003906 320.472656 C 331.269531 318.046875 333.46875 315.5625 335.601562 313.023438 C 337.734375 310.480469 339.800781 307.882812 341.792969 305.234375 C 343.789062 302.582031 345.710938 299.878906 347.5625 297.125 C 349.414062 294.371094 351.191406 291.570312 352.894531 288.71875 C 354.59375 285.871094 356.21875 282.980469 357.765625 280.042969 C 359.316406 277.109375 360.785156 274.132812 362.171875 271.121094 C 363.5625 268.105469 364.871094 265.058594 366.097656 261.976562 C 367.324219 258.890625 368.46875 255.777344 369.527344 252.632812 C 370.589844 249.488281 371.566406 246.320312 372.457031 243.125 C 373.347656 239.925781 374.15625 236.710938 374.875 233.46875 C 375.597656 230.230469 376.230469 226.976562 376.777344 223.703125 C 377.324219 220.429688 377.785156 217.144531 378.15625 213.847656 C 378.527344 210.546875 378.8125 207.242188 379.007812 203.929688 C 379.203125 200.617188 379.308594 197.304688 379.328125 193.984375 C 379.347656 190.667969 379.277344 187.351562 379.121094 184.035156 C 378.964844 180.71875 378.71875 177.414062 378.382812 174.109375 C 378.050781 170.808594 377.628906 167.519531 377.121094 164.238281 C 376.609375 160.960938 376.015625 157.699219 375.332031 154.449219 C 374.648438 151.203125 373.878906 147.976562 373.023438 144.769531 C 372.167969 141.5625 371.230469 138.382812 370.203125 135.226562 C 369.179688 132.070312 368.070312 128.941406 366.878906 125.847656 C 365.6875 122.75 364.417969 119.683594 363.0625 116.65625 C 361.707031 113.625 360.273438 110.636719 358.757812 107.683594 C 357.246094 104.730469 355.65625 101.820312 353.984375 98.949219 C 352.316406 96.082031 350.574219 93.261719 348.753906 90.484375 C 346.933594 87.710938 345.042969 84.984375 343.078125 82.3125 C 341.113281 79.636719 339.078125 77.015625 336.976562 74.449219 C 334.871094 71.886719 332.699219 69.375 330.460938 66.925781 C 328.222656 64.476562 325.921875 62.085938 323.558594 59.757812 C 321.191406 57.433594 318.765625 55.167969 316.28125 52.96875 C 313.796875 50.773438 311.253906 48.640625 308.65625 46.578125 C 306.054688 44.515625 303.402344 42.523438 300.699219 40.601562 Z M 300.699219 40.601562 " fill-opacity="1" fill-rule="nonzero"/><g clip-path="url(#310be1d6fa)"><path fill="#545454" d="M 192.367188 383.316406 C 189.25 383.316406 186.136719 383.238281 183.023438 383.085938 C 179.910156 382.933594 176.804688 382.703125 173.703125 382.398438 C 170.601562 382.09375 167.507812 381.710938 164.425781 381.253906 C 161.339844 380.796875 158.269531 380.265625 155.214844 379.65625 C 152.15625 379.046875 149.117188 378.367188 146.09375 377.609375 C 143.070312 376.851562 140.066406 376.019531 137.085938 375.117188 C 134.101562 374.210938 131.144531 373.234375 128.210938 372.183594 C 125.273438 371.132812 122.367188 370.011719 119.488281 368.820312 C 116.609375 367.625 113.761719 366.363281 110.941406 365.03125 C 108.125 363.699219 105.34375 362.296875 102.59375 360.828125 C 99.84375 359.359375 97.132812 357.824219 94.460938 356.222656 C 91.785156 354.617188 89.152344 352.953125 86.5625 351.21875 C 83.972656 349.488281 81.421875 347.695312 78.921875 345.835938 C 76.417969 343.980469 73.960938 342.0625 71.550781 340.085938 C 69.140625 338.109375 66.78125 336.074219 64.472656 333.980469 C 62.164062 331.886719 59.90625 329.738281 57.703125 327.535156 C 55.5 325.332031 53.351562 323.074219 51.257812 320.765625 C 49.164062 318.457031 47.128906 316.097656 45.152344 313.6875 C 43.175781 311.277344 41.257812 308.824219 39.402344 306.320312 C 37.542969 303.816406 35.75 301.269531 34.019531 298.675781 C 32.289062 296.085938 30.621094 293.453125 29.019531 290.78125 C 27.414062 288.105469 25.878906 285.394531 24.410156 282.644531 C 22.941406 279.898438 21.539062 277.113281 20.207031 274.296875 C 18.875 271.480469 17.613281 268.628906 16.421875 265.75 C 15.226562 262.871094 14.105469 259.964844 13.054688 257.03125 C 12.007812 254.09375 11.027344 251.136719 10.125 248.15625 C 9.21875 245.171875 8.386719 242.167969 7.628906 239.144531 C 6.875 236.121094 6.191406 233.082031 5.582031 230.023438 C 4.976562 226.96875 4.441406 223.898438 3.984375 220.816406 C 3.527344 217.730469 3.144531 214.640625 2.839844 211.539062 C 2.535156 208.4375 2.304688 205.328125 2.152344 202.214844 C 2 199.101562 1.921875 195.988281 1.921875 192.871094 C 1.921875 189.753906 2 186.640625 2.152344 183.527344 C 2.304688 180.414062 2.535156 177.304688 2.839844 174.203125 C 3.144531 171.101562 3.527344 168.011719 3.984375 164.925781 C 4.441406 161.84375 4.976562 158.773438 5.582031 155.71875 C 6.191406 152.660156 6.875 149.621094 7.632812 146.597656 C 8.386719 143.574219 9.21875 140.570312 10.125 137.589844 C 11.027344 134.605469 12.007812 131.648438 13.054688 128.710938 C 14.105469 125.777344 15.226562 122.871094 16.421875 119.992188 C 17.613281 117.113281 18.875 114.261719 20.207031 111.445312 C 21.539062 108.628906 22.941406 105.84375 24.410156 103.097656 C 25.878906 100.347656 27.417969 97.636719 29.019531 94.964844 C 30.621094 92.289062 32.289062 89.65625 34.019531 87.066406 C 35.75 84.472656 37.546875 81.925781 39.402344 79.421875 C 41.257812 76.921875 43.175781 74.464844 45.152344 72.054688 C 47.128906 69.644531 49.164062 67.285156 51.257812 64.976562 C 53.351562 62.667969 55.5 60.410156 57.703125 58.207031 C 59.90625 56.003906 62.164062 53.855469 64.472656 51.761719 C 66.78125 49.667969 69.140625 47.632812 71.550781 45.65625 C 73.960938 43.679688 76.417969 41.761719 78.921875 39.90625 C 81.425781 38.046875 83.972656 36.253906 86.5625 34.523438 C 89.15625 32.789062 91.785156 31.125 94.460938 29.519531 C 97.132812 27.917969 99.84375 26.382812 102.59375 24.914062 C 105.34375 23.445312 108.125 22.042969 110.941406 20.710938 C 113.761719 19.378906 116.609375 18.117188 119.488281 16.921875 C 122.367188 15.730469 125.273438 14.609375 128.210938 13.558594 C 131.144531 12.507812 134.101562 11.53125 137.085938 10.625 C 140.066406 9.722656 143.070312 8.890625 146.09375 8.132812 C 149.117188 7.375 152.15625 6.695312 155.214844 6.085938 C 158.269531 5.476562 161.339844 4.945312 164.425781 4.488281 C 167.507812 4.03125 170.601562 3.648438 173.703125 3.34375 C 176.804688 3.039062 179.910156 2.808594 183.023438 2.65625 C 186.136719 2.503906 189.25 2.425781 192.367188 2.425781 C 195.484375 2.425781 198.601562 2.503906 201.714844 2.65625 C 204.824219 2.808594 207.933594 3.039062 211.035156 3.34375 C 214.136719 3.648438 217.230469 4.03125 220.3125 4.488281 C 223.394531 4.945312 226.464844 5.476562 229.523438 6.085938 C 232.578125 6.695312 235.621094 7.375 238.640625 8.132812 C 241.664062 8.890625 244.667969 9.722656 247.652344 10.628906 C 250.632812 11.53125 253.59375 12.507812 256.527344 13.558594 C 259.460938 14.609375 262.367188 15.730469 265.25 16.921875 C 268.128906 18.117188 270.976562 19.378906 273.792969 20.710938 C 276.613281 22.042969 279.394531 23.445312 282.144531 24.914062 C 284.890625 26.382812 287.601562 27.917969 290.277344 29.519531 C 292.949219 31.125 295.582031 32.789062 298.171875 34.523438 C 300.765625 36.253906 303.3125 38.046875 305.816406 39.90625 C 308.320312 41.761719 310.777344 43.679688 313.183594 45.65625 C 315.59375 47.632812 317.953125 49.667969 320.261719 51.761719 C 322.574219 53.855469 324.828125 56.003906 327.03125 58.207031 C 329.238281 60.410156 331.386719 62.667969 333.480469 64.976562 C 335.570312 67.285156 337.605469 69.644531 339.585938 72.054688 C 341.5625 74.464844 343.476562 76.917969 345.335938 79.421875 C 347.191406 81.925781 348.984375 84.472656 350.71875 87.066406 C 352.449219 89.65625 354.117188 92.289062 355.71875 94.960938 C 357.320312 97.636719 358.855469 100.347656 360.324219 103.09375 C 361.792969 105.84375 363.195312 108.628906 364.527344 111.445312 C 365.859375 114.261719 367.125 117.109375 368.316406 119.992188 C 369.507812 122.871094 370.628906 125.777344 371.679688 128.710938 C 372.730469 131.644531 373.707031 134.605469 374.613281 137.585938 C 375.515625 140.570312 376.347656 143.574219 377.105469 146.597656 C 377.863281 149.621094 378.546875 152.660156 379.152344 155.714844 C 379.761719 158.773438 380.292969 161.84375 380.75 164.925781 C 381.210938 168.007812 381.589844 171.101562 381.894531 174.203125 C 382.203125 177.304688 382.429688 180.414062 382.582031 183.523438 C 382.738281 186.636719 382.8125 189.753906 382.8125 192.871094 C 382.808594 195.984375 382.730469 199.097656 382.574219 202.210938 C 382.417969 205.324219 382.183594 208.429688 381.875 211.53125 C 381.566406 214.628906 381.183594 217.722656 380.722656 220.804688 C 380.265625 223.886719 379.730469 226.953125 379.117188 230.007812 C 378.507812 233.066406 377.824219 236.101562 377.0625 239.125 C 376.304688 242.148438 375.472656 245.148438 374.566406 248.128906 C 373.65625 251.109375 372.679688 254.066406 371.628906 257 C 370.574219 259.933594 369.453125 262.839844 368.257812 265.71875 C 367.066406 268.59375 365.800781 271.441406 364.46875 274.257812 C 363.132812 277.074219 361.734375 279.855469 360.261719 282.601562 C 358.792969 285.351562 357.257812 288.058594 355.652344 290.730469 C 354.050781 293.402344 352.382812 296.035156 350.652344 298.625 C 348.921875 301.214844 347.125 303.761719 345.269531 306.265625 C 343.414062 308.765625 341.496094 311.222656 339.519531 313.628906 C 337.542969 316.039062 335.507812 318.398438 333.414062 320.703125 C 331.320312 323.011719 329.171875 325.269531 326.96875 327.472656 C 324.765625 329.675781 322.511719 331.824219 320.203125 333.917969 C 317.894531 336.007812 315.535156 338.042969 313.128906 340.019531 C 310.71875 341.996094 308.265625 343.914062 305.761719 345.769531 C 303.261719 347.628906 300.714844 349.421875 298.125 351.152344 C 295.53125 352.886719 292.902344 354.554688 290.230469 356.15625 C 287.558594 357.757812 284.847656 359.296875 282.101562 360.765625 C 279.355469 362.234375 276.570312 363.636719 273.757812 364.96875 C 270.941406 366.304688 268.09375 367.566406 265.214844 368.761719 C 262.335938 369.957031 259.433594 371.078125 256.5 372.128906 C 253.566406 373.183594 250.609375 374.160156 247.628906 375.066406 C 244.648438 375.972656 241.644531 376.808594 238.625 377.566406 C 235.601562 378.324219 232.5625 379.011719 229.507812 379.621094 C 226.453125 380.230469 223.382812 380.765625 220.300781 381.226562 C 217.21875 381.6875 214.128906 382.070312 211.027344 382.378906 C 207.929688 382.6875 204.820312 382.921875 201.710938 383.078125 C 198.597656 383.234375 195.484375 383.3125 192.367188 383.316406 Z M 192.367188 9.636719 C 189.371094 9.636719 186.371094 9.710938 183.378906 9.855469 C 180.382812 10.003906 177.390625 10.222656 174.40625 10.519531 C 171.421875 10.8125 168.449219 11.179688 165.480469 11.617188 C 162.515625 12.058594 159.5625 12.570312 156.621094 13.15625 C 153.679688 13.742188 150.753906 14.398438 147.84375 15.125 C 144.9375 15.855469 142.046875 16.65625 139.175781 17.527344 C 136.308594 18.394531 133.460938 19.335938 130.636719 20.347656 C 127.816406 21.355469 125.015625 22.4375 122.246094 23.582031 C 119.476562 24.730469 116.734375 25.945312 114.023438 27.226562 C 111.3125 28.511719 108.636719 29.859375 105.992188 31.273438 C 103.347656 32.683594 100.738281 34.164062 98.167969 35.703125 C 95.59375 37.246094 93.0625 38.851562 90.566406 40.515625 C 88.074219 42.183594 85.625 43.910156 83.214844 45.695312 C 80.804688 47.480469 78.441406 49.324219 76.125 51.226562 C 73.804688 53.128906 71.535156 55.089844 69.316406 57.101562 C 67.09375 59.117188 64.921875 61.183594 62.800781 63.304688 C 60.679688 65.425781 58.613281 67.59375 56.597656 69.816406 C 54.585938 72.039062 52.628906 74.308594 50.726562 76.628906 C 48.824219 78.945312 46.976562 81.308594 45.191406 83.71875 C 43.40625 86.125 41.679688 88.578125 40.011719 91.070312 C 38.347656 93.5625 36.742188 96.097656 35.203125 98.667969 C 33.660156 101.242188 32.183594 103.851562 30.769531 106.496094 C 29.355469 109.140625 28.007812 111.816406 26.726562 114.527344 C 25.441406 117.238281 24.226562 119.980469 23.082031 122.75 C 21.933594 125.519531 20.855469 128.316406 19.84375 131.140625 C 18.832031 133.964844 17.894531 136.8125 17.023438 139.679688 C 16.152344 142.550781 15.351562 145.441406 14.625 148.347656 C 13.894531 151.257812 13.238281 154.183594 12.652344 157.125 C 12.066406 160.066406 11.554688 163.019531 11.117188 165.984375 C 10.675781 168.953125 10.308594 171.925781 10.015625 174.910156 C 9.722656 177.894531 9.5 180.886719 9.351562 183.878906 C 9.207031 186.875 9.132812 189.871094 9.132812 192.871094 C 9.132812 195.871094 9.207031 198.867188 9.351562 201.863281 C 9.5 204.859375 9.722656 207.847656 10.015625 210.832031 C 10.308594 213.816406 10.675781 216.792969 11.117188 219.757812 C 11.554688 222.722656 12.066406 225.675781 12.652344 228.617188 C 13.238281 231.558594 13.894531 234.484375 14.625 237.394531 C 15.351562 240.304688 16.152344 243.191406 17.023438 246.0625 C 17.894531 248.929688 18.832031 251.777344 19.84375 254.601562 C 20.855469 257.425781 21.933594 260.222656 23.082031 262.992188 C 24.226562 265.761719 25.441406 268.503906 26.726562 271.214844 C 28.007812 273.925781 29.355469 276.601562 30.769531 279.25 C 32.183594 281.894531 33.660156 284.5 35.203125 287.074219 C 36.742188 289.644531 38.347656 292.179688 40.011719 294.671875 C 41.679688 297.164062 43.40625 299.617188 45.191406 302.023438 C 46.976562 304.433594 48.824219 306.796875 50.726562 309.113281 C 52.628906 311.433594 54.585938 313.703125 56.597656 315.925781 C 58.613281 318.148438 60.679688 320.316406 62.800781 322.4375 C 64.921875 324.558594 67.09375 326.625 69.3125 328.640625 C 71.535156 330.652344 73.804688 332.613281 76.125 334.515625 C 78.441406 336.417969 80.804688 338.261719 83.214844 340.046875 C 85.625 341.835938 88.074219 343.558594 90.566406 345.226562 C 93.0625 346.890625 95.59375 348.496094 98.167969 350.039062 C 100.738281 351.578125 103.347656 353.058594 105.992188 354.472656 C 108.636719 355.882812 111.3125 357.230469 114.023438 358.515625 C 116.734375 359.796875 119.476562 361.011719 122.246094 362.160156 C 125.015625 363.308594 127.8125 364.386719 130.636719 365.394531 C 133.460938 366.40625 136.308594 367.347656 139.175781 368.21875 C 142.046875 369.085938 144.9375 369.886719 147.84375 370.617188 C 150.753906 371.34375 153.679688 372 156.621094 372.585938 C 159.5625 373.171875 162.515625 373.683594 165.480469 374.125 C 168.449219 374.5625 171.421875 374.929688 174.40625 375.226562 C 177.390625 375.519531 180.382812 375.738281 183.378906 375.886719 C 186.371094 376.035156 189.371094 376.105469 192.367188 376.105469 C 195.367188 376.105469 198.363281 376.035156 201.359375 375.886719 C 204.355469 375.738281 207.34375 375.519531 210.328125 375.226562 C 213.3125 374.929688 216.289062 374.5625 219.253906 374.125 C 222.222656 373.683594 225.175781 373.171875 228.117188 372.585938 C 231.058594 372 233.980469 371.34375 236.890625 370.617188 C 239.800781 369.886719 242.6875 369.085938 245.558594 368.21875 C 248.429688 367.347656 251.273438 366.40625 254.097656 365.394531 C 256.921875 364.386719 259.71875 363.308594 262.488281 362.160156 C 265.261719 361.011719 268 359.796875 270.710938 358.515625 C 273.421875 357.230469 276.101562 355.882812 278.746094 354.472656 C 281.390625 353.058594 284 351.578125 286.570312 350.039062 C 289.140625 348.496094 291.675781 346.890625 294.167969 345.226562 C 296.660156 343.558594 299.113281 341.832031 301.523438 340.046875 C 303.929688 338.261719 306.292969 336.417969 308.613281 334.515625 C 310.929688 332.613281 313.199219 330.652344 315.421875 328.640625 C 317.644531 326.625 319.816406 324.558594 321.9375 322.4375 C 324.054688 320.316406 326.125 318.148438 328.136719 315.925781 C 330.152344 313.703125 332.109375 311.433594 334.011719 309.113281 C 335.914062 306.796875 337.757812 304.433594 339.542969 302.023438 C 341.332031 299.617188 343.058594 297.164062 344.722656 294.671875 C 346.390625 292.179688 347.992188 289.644531 349.535156 287.074219 C 351.078125 284.5 352.554688 281.890625 353.96875 279.246094 C 355.382812 276.601562 356.730469 273.925781 358.011719 271.214844 C 359.292969 268.503906 360.507812 265.761719 361.65625 262.992188 C 362.804688 260.222656 363.882812 257.425781 364.894531 254.601562 C 365.902344 251.777344 366.84375 248.929688 367.714844 246.0625 C 368.585938 243.191406 369.382812 240.300781 370.113281 237.394531 C 370.839844 234.484375 371.5 231.558594 372.082031 228.617188 C 372.667969 225.675781 373.179688 222.722656 373.621094 219.757812 C 374.0625 216.789062 374.429688 213.816406 374.722656 210.832031 C 375.015625 207.847656 375.234375 204.855469 375.382812 201.859375 C 375.53125 198.867188 375.605469 195.867188 375.605469 192.871094 C 375.601562 189.871094 375.523438 186.875 375.375 183.882812 C 375.222656 180.886719 375 177.898438 374.703125 174.917969 C 374.40625 171.933594 374.035156 168.960938 373.59375 165.996094 C 373.152344 163.027344 372.636719 160.078125 372.050781 157.136719 C 371.460938 154.199219 370.800781 151.273438 370.070312 148.367188 C 369.339844 145.457031 368.539062 142.570312 367.667969 139.703125 C 366.796875 136.835938 365.851562 133.988281 364.839844 131.167969 C 363.828125 128.347656 362.75 125.550781 361.601562 122.78125 C 360.453125 120.011719 359.234375 117.273438 357.953125 114.5625 C 356.667969 111.855469 355.320312 109.179688 353.90625 106.535156 C 352.492188 103.890625 351.015625 101.285156 349.472656 98.714844 C 347.929688 96.144531 346.324219 93.609375 344.660156 91.121094 C 342.992188 88.628906 341.265625 86.175781 339.480469 83.769531 C 337.695312 81.363281 335.851562 79 333.949219 76.683594 C 332.046875 74.367188 330.089844 72.097656 328.074219 69.875 C 326.0625 67.65625 323.996094 65.484375 321.875 63.363281 C 319.753906 61.246094 317.585938 59.175781 315.363281 57.164062 C 313.140625 55.152344 310.871094 53.191406 308.554688 51.289062 C 306.238281 49.390625 303.875 47.542969 301.46875 45.757812 C 299.0625 43.972656 296.613281 42.246094 294.121094 40.578125 C 291.628906 38.914062 289.097656 37.308594 286.523438 35.765625 C 283.953125 34.226562 281.347656 32.746094 278.703125 31.332031 C 276.0625 29.917969 273.382812 28.570312 270.675781 27.285156 C 267.964844 26.003906 265.226562 24.789062 262.457031 23.636719 C 259.6875 22.488281 256.894531 21.410156 254.070312 20.398438 C 251.25 19.386719 248.402344 18.445312 245.535156 17.570312 C 242.667969 16.699219 239.78125 15.898438 236.871094 15.167969 C 233.964844 14.4375 231.042969 13.777344 228.101562 13.191406 C 225.160156 12.601562 222.210938 12.089844 219.246094 11.644531 C 216.277344 11.203125 213.304688 10.832031 210.320312 10.535156 C 207.339844 10.238281 204.351562 10.015625 201.355469 9.867188 C 198.363281 9.714844 195.367188 9.640625 192.367188 9.636719 Z M 192.367188 9.636719 " fill-opacity="1" fill-rule="nonzero"/></g><path fill="#ffffff" d="M 177.125 27.664062 C 184.4375 26.996094 191.660156 27.550781 198.785156 29.339844 C 201.917969 30.214844 205.425781 32.027344 205.789062 35.257812 C 205.808594 35.847656 205.742188 36.429688 205.59375 37 C 205.445312 37.574219 205.21875 38.113281 204.917969 38.621094 C 204.617188 39.128906 204.25 39.585938 203.820312 39.992188 C 203.386719 40.394531 202.910156 40.730469 202.382812 41 C 200.246094 42.050781 197.988281 42.679688 195.617188 42.898438 C 182.136719 45.023438 168.933594 48.285156 156.015625 52.6875 C 143.097656 57.085938 130.648438 62.554688 118.671875 69.097656 C 116.734375 70.464844 114.628906 71.496094 112.359375 72.1875 C 110.09375 72.878906 107.773438 73.199219 105.402344 73.148438 C 104.929688 73.070312 104.46875 72.953125 104.019531 72.796875 C 103.566406 72.636719 103.132812 72.441406 102.714844 72.207031 C 102.300781 71.972656 101.90625 71.703125 101.539062 71.402344 C 101.167969 71.097656 100.828125 70.765625 100.519531 70.402344 C 100.210938 70.039062 99.933594 69.648438 99.691406 69.238281 C 99.449219 68.824219 99.246094 68.394531 99.078125 67.945312 C 98.914062 67.5 98.789062 67.039062 98.703125 66.570312 C 98.617188 66.097656 98.574219 65.625 98.574219 65.148438 C 98.722656 61.507812 101.453125 59.773438 104.066406 57.53125 C 109.164062 53.171875 114.570312 49.246094 120.296875 45.753906 C 126.019531 42.261719 131.984375 39.246094 138.1875 36.710938 C 144.394531 34.171875 150.761719 32.148438 157.292969 30.628906 C 163.824219 29.113281 170.433594 28.125 177.125 27.664062 Z M 177.125 27.664062 " fill-opacity="1" fill-rule="nonzero"/></svg>