<?xml version="1.0" encoding="UTF-8" standalone="no"?>
<svg
   width="338"
   zoomAndPan="magnify"
   viewBox="0 0 253.5 449.999984"
   height="600"
   preserveAspectRatio="xMidYMid meet"
   version="1.0"
   id="svg16"
   sodipodi:docname="bread.svg"
   inkscape:version="1.4 (86a8ad7, 2024-10-11)"
   xmlns:inkscape="http://www.inkscape.org/namespaces/inkscape"
   xmlns:sodipodi="http://sodipodi.sourceforge.net/DTD/sodipodi-0.dtd"
   xmlns="http://www.w3.org/2000/svg"
   xmlns:svg="http://www.w3.org/2000/svg">
  <sodipodi:namedview
     id="namedview16"
     pagecolor="#505050"
     bordercolor="#ffffff"
     borderopacity="1"
     inkscape:showpageshadow="0"
     inkscape:pageopacity="0"
     inkscape:pagecheckerboard="1"
     inkscape:deskcolor="#505050"
     inkscape:zoom="2.08"
     inkscape:cx="162.01923"
     inkscape:cy="316.82692"
     inkscape:window-width="1920"
     inkscape:window-height="991"
     inkscape:window-x="-9"
     inkscape:window-y="-9"
     inkscape:window-maximized="1"
     inkscape:current-layer="svg16" />
  <defs
     id="defs8">
    <clipPath
       id="efbe8708ca">
      <path
         d="M 32.203125 191.617188 L 190.140625 191.617188 L 190.140625 336.832031 L 32.203125 336.832031 Z M 32.203125 191.617188 "
         clip-rule="nonzero"
         id="path1" />
    </clipPath>
    <clipPath
       id="24df0176dc">
      <path
         d="M 44.179688 191.617188 L 178.359375 191.617188 C 184.976562 191.617188 190.335938 196.980469 190.335938 203.59375 L 190.335938 324.832031 C 190.335938 331.445312 184.976562 336.808594 178.359375 336.808594 L 44.179688 336.808594 C 37.5625 336.808594 32.203125 331.445312 32.203125 324.832031 L 32.203125 203.59375 C 32.203125 196.980469 37.5625 191.617188 44.179688 191.617188 Z M 44.179688 191.617188 "
         clip-rule="nonzero"
         id="path2" />
    </clipPath>
    <clipPath
       id="a1e064f422">
      <path
         d="M 147.992188 189.054688 L 213.113281 189.054688 L 213.113281 337 L 147.992188 337 Z M 147.992188 189.054688 "
         clip-rule="nonzero"
         id="path3" />
    </clipPath>
    <clipPath
       id="46445a7640">
      <path
         d="M 189.660156 191.953125 L 204.160156 200.386719 C 209.765625 203.648438 213.214844 209.648438 213.214844 216.132812 L 213.214844 309.648438 C 213.214844 316.136719 209.765625 322.132812 204.160156 325.394531 L 189.660156 333.832031 C 184.0625 337.089844 177.144531 337.089844 171.546875 333.832031 L 157.050781 325.394531 C 151.441406 322.132812 147.992188 316.136719 147.992188 309.648438 L 147.992188 216.132812 C 147.992188 209.648438 151.441406 203.648438 157.050781 200.386719 L 171.546875 191.953125 C 177.144531 188.695312 184.0625 188.695312 189.660156 191.953125 Z M 189.660156 191.953125 "
         clip-rule="nonzero"
         id="path4" />
    </clipPath>
    <clipPath
       id="3d3eee85ca">
      <path
         d="M 19.449219 110.46875 L 202.835938 110.46875 L 202.835938 263.914062 L 19.449219 263.914062 Z M 19.449219 110.46875 "
         clip-rule="nonzero"
         id="path5" />
    </clipPath>
    <clipPath
       id="9a094299ab">
      <path
         d="M 111.269531 110.46875 C 60.558594 110.46875 19.449219 144.882812 19.449219 187.335938 C 19.449219 229.792969 60.558594 264.207031 111.269531 264.207031 C 161.980469 264.207031 203.089844 229.792969 203.089844 187.335938 C 203.089844 144.882812 161.980469 110.46875 111.269531 110.46875 Z M 111.269531 110.46875 "
         clip-rule="nonzero"
         id="path6" />
    </clipPath>
    <clipPath
       id="3691ff7bae">
      <path
         d="M 0 110.46875 L 233.320312 110.46875 L 233.320312 263.914062 L 0 263.914062 Z M 0 110.46875 "
         clip-rule="nonzero"
         id="path7" />
    </clipPath>
    <clipPath
       id="8ab986ea36">
      <path
         d="M 115.441406 110.46875 C 50.328125 110.46875 -2.457031 144.882812 -2.457031 187.335938 C -2.457031 229.792969 50.328125 264.207031 115.441406 264.207031 C 180.554688 264.207031 233.339844 229.792969 233.339844 187.335938 C 233.339844 144.882812 180.554688 110.46875 115.441406 110.46875 Z M 115.441406 110.46875 "
         clip-rule="nonzero"
         id="path8" />
    </clipPath>
  </defs>
  <g
     clip-path="url(#efbe8708ca)"
     id="g10">
    <g
       clip-path="url(#24df0176dc)"
       id="g9">
      <path
         stroke-linecap="butt"
         transform="matrix(0.748524,0,0,0.748524,32.20219,191.61871)"
         fill="none"
         stroke-linejoin="miter"
         d="m 210.77914,51.933072 0.48172,126.035018 c 0.0338,8.83504 -7.15993,16.00024 -16.00025,16.00024 H 16.001495 c -8.840319,0 -16.00024626,-7.16514 -16.00024626,-16.00024 V 44.596148"
         stroke="#000000"
         stroke-width="8"
         stroke-opacity="1"
         stroke-miterlimit="4"
         id="path9"
         sodipodi:nodetypes="cssssc" />
    </g>
  </g>
  <g
     clip-path="url(#a1e064f422)"
     id="g12">
    <g
       clip-path="url(#46445a7640)"
       id="g11">
      <path
         stroke-linecap="butt"
         transform="matrix(0.748524,0,0,0.748524,147.99314,186.68205)"
         fill="none"
         stroke-linejoin="miter"
         d="M 87.133789,58.507324 V 164.27856 c 0,8.66811 -4.608029,16.67867 -12.096729,21.0362 l -19.371466,11.27219 c -2.660025,1.54812 -5.543223,2.54558 -8.490828,2.99236"
         stroke="#000000"
         stroke-width="8"
         stroke-opacity="1"
         stroke-miterlimit="4"
         id="path10"
         sodipodi:nodetypes="csccc" />
    </g>
  </g>
  <g
     clip-path="url(#3d3eee85ca)"
     id="g14"
     transform="matrix(1,0,0,0.93922947,0,14.28536)">
    <g
       clip-path="url(#9a094299ab)"
       id="g13">
      <path
         stroke-linecap="butt"
         transform="matrix(0.748524,0,0,0.748524,19.449536,110.46765)"
         fill="none"
         stroke-linejoin="miter"
         d="m 227.64477,155.85392 c 11.22808,-15.50727 17.69192,-33.70167 17.69192,-53.16072 0,-56.715811 -54.92062,-102.69173059 -122.66856,-102.69173059 -67.747943,0 -122.668553386,45.97591959 -122.668553386,102.69173059 0,19.4186 6.436990286,37.57781 17.621954386,53.06398"
         stroke="#000000"
         stroke-width="8"
         stroke-opacity="1"
         stroke-miterlimit="4"
         id="path12"
         sodipodi:nodetypes="csssc" />
    </g>
  </g>
  <g
     clip-path="url(#3691ff7bae)"
     id="g16"
     transform="matrix(1,0,0,0.93922947,0,14.28536)">
    <g
       clip-path="url(#8ab986ea36)"
       id="g15">
      <path
         stroke-linecap="butt"
         transform="matrix(0.748524,0,0,0.748524,-2.457608,110.46765)"
         fill="none"
         stroke-linejoin="miter"
         d="m 286.68474,163.53939 c 17.85648,-16.65199 28.33197,-36.91722 28.33197,-58.77863 0,-56.530997 -70.06019,-104.45954454 -156.65812,-104.75782725"
         stroke="#000000"
         stroke-width="8"
         stroke-opacity="1"
         stroke-miterlimit="4"
         id="path14"
         sodipodi:nodetypes="csc" />
    </g>
  </g>
</svg>
