<svg xmlns="http://www.w3.org/2000/svg" xmlns:xlink="http://www.w3.org/1999/xlink" width="1024" zoomAndPan="magnify" viewBox="0 0 768 383.999986" height="512" preserveAspectRatio="xMidYMid meet" version="1.0"><defs><clipPath id="a52566b3b6"><path d="M 18.542969 9.269531 L 749.457031 9.269531 L 749.457031 374.730469 L 18.542969 374.730469 Z M 18.542969 9.269531 " clip-rule="nonzero"/></clipPath><clipPath id="ddfcd03938"><path d="M 566.730469 9.269531 C 667.648438 9.269531 749.457031 91.082031 749.457031 192 C 749.457031 292.917969 667.648438 374.730469 566.730469 374.730469 L 201.269531 374.730469 C 100.351562 374.730469 18.542969 292.917969 18.542969 192 C 18.542969 91.082031 100.351562 9.269531 201.269531 9.269531 Z M 566.730469 9.269531 " clip-rule="nonzero"/></clipPath><clipPath id="06520e6bdc"><path d="M 424.378906 71.613281 L 665.128906 71.613281 L 665.128906 312.363281 L 424.378906 312.363281 Z M 424.378906 71.613281 " clip-rule="nonzero"/></clipPath></defs><g clip-path="url(#a52566b3b6)"><g clip-path="url(#ddfcd03938)"><path fill="#a1d1e7" d="M 18.542969 9.269531 L 749.457031 9.269531 L 749.457031 374.730469 L 18.542969 374.730469 Z M 18.542969 9.269531 " fill-opacity="1" fill-rule="nonzero"/></g></g><g clip-path="url(#06520e6bdc)"><path fill="#f79814" d="M 665.148438 192 C 607.75 180.40625 604.613281 169.539062 648.699219 131.25 C 593.683594 150.878906 585.886719 143.082031 605.515625 88.066406 C 567.222656 132.148438 556.359375 129.015625 544.761719 71.613281 C 533.167969 129.015625 522.304688 132.148438 484.011719 88.066406 C 503.644531 143.082031 495.84375 150.878906 440.832031 131.25 C 484.914062 169.539062 481.78125 180.40625 424.378906 192 C 481.78125 203.59375 484.914062 214.457031 440.832031 252.753906 C 495.84375 233.117188 503.644531 240.917969 484.011719 295.933594 C 522.304688 251.847656 533.167969 254.980469 544.761719 312.386719 C 556.359375 254.980469 567.222656 251.847656 605.515625 295.933594 C 585.886719 240.917969 593.683594 233.117188 648.699219 252.753906 C 604.613281 214.457031 607.75 203.59375 665.148438 192 " fill-opacity="1" fill-rule="nonzero"/></g><path fill="#f68712" d="M 531.457031 124.601562 C 538.183594 120.574219 543.171875 113.738281 544.960938 106.105469 C 546.261719 112.195312 549.128906 118.230469 554.191406 121.851562 C 559.253906 125.472656 566.796875 126.015625 571.511719 121.945312 C 571.007812 123.402344 570.820312 124.96875 570.964844 126.5 C 574.425781 128.035156 578.449219 125.726562 580.871094 122.816406 C 583.289062 119.90625 584.914062 116.308594 587.8125 113.871094 C 586.054688 119.746094 584.285156 125.992188 585.882812 131.914062 C 587.480469 137.832031 593.863281 142.902344 599.609375 140.765625 C 597.609375 142.546875 596.117188 144.898438 595.367188 147.46875 C 601.535156 152.507812 610.898438 153.203125 617.746094 149.132812 C 613.695312 152.699219 610.28125 157.25 609.152344 162.523438 C 608.023438 167.800781 609.5625 173.84375 613.839844 177.136719 C 613.839844 177.269531 614.207031 177.449219 614.207031 177.582031 C 620.03125 185.046875 628.382812 189.796875 637.746094 191.207031 C 629.511719 192.425781 621.457031 196.554688 616.824219 203.46875 C 612.191406 210.382812 611.636719 220.210938 616.601562 226.886719 C 615.285156 226.617188 613.964844 226.347656 612.644531 226.078125 C 611.308594 228.222656 612.914062 230.964844 614.632812 232.820312 C 617.328125 235.734375 620.460938 238.25 623.890625 240.253906 C 620.097656 238.320312 616.203125 236.359375 611.976562 235.867188 C 607.75 235.375 600.839844 234.984375 598.359375 238.445312 C 591.023438 248.699219 587.007812 261.179688 590.515625 273.289062 C 585.601562 267.777344 579.144531 263.660156 572.078125 261.519531 C 568.992188 260.582031 565.652344 260.023438 562.570312 260.976562 C 556.886719 262.730469 553.875 268.953125 552.644531 274.773438 C 552.117188 273.351562 552.105469 271.753906 551.394531 270.410156 C 550.683594 269.070312 548.765625 268.152344 547.65625 269.1875 C 547.214844 269.601562 547.027344 270.210938 546.867188 270.792969 C 544.953125 277.664062 544.113281 284.78125 543.285156 291.863281 C 542.46875 284.597656 541.144531 277.394531 539.332031 270.3125 C 537.414062 262.847656 526.550781 259.0625 518.941406 260.28125 C 511.332031 261.5 504.714844 266.414062 499.859375 272.394531 C 501.324219 268.167969 502.796875 263.898438 503.328125 259.457031 C 503.855469 255.015625 503.375 250.320312 501.128906 246.453125 C 498.714844 242.289062 494.449219 239.429688 489.894531 237.882812 C 485.332031 236.332031 480.464844 235.972656 475.652344 235.855469 C 473.757812 235.8125 471.765625 235.824219 470.109375 236.746094 C 473.703125 232.65625 473.792969 227.074219 474.566406 221.6875 C 475.605469 214.441406 475.875 206.457031 471.675781 200.460938 C 467.777344 194.902344 460.945312 192.351562 454.535156 190.109375 C 461.046875 191.246094 467.949219 188.355469 472.222656 183.3125 C 476.496094 178.269531 478.230469 171.332031 477.507812 164.757812 C 476.703125 157.414062 472.898438 150.445312 467.160156 145.792969 C 469.703125 147.003906 472.246094 148.214844 474.792969 149.425781 C 477.046875 150.5 479.582031 151.597656 481.957031 150.824219 C 484.332031 150.054688 485.605469 146.363281 483.480469 145.054688 C 485.332031 147.648438 489.351562 147.859375 492.109375 146.265625 C 494.871094 144.667969 496.59375 141.761719 497.902344 138.855469 C 501.28125 131.351562 502.707031 122.976562 501.992188 114.773438 C 506.234375 121.84375 515.203125 124.730469 523.433594 125.199219 C 526.210938 125.355469 529.074219 126.03125 531.457031 124.601562 " fill-opacity="1" fill-rule="nonzero"/><path fill="#fabe11" d="M 607.75 192 C 607.75 157.214844 579.550781 129.015625 544.761719 129.015625 C 509.980469 129.015625 481.78125 157.214844 481.78125 192 C 481.78125 226.785156 509.980469 254.980469 544.761719 254.980469 C 579.550781 254.980469 607.75 226.785156 607.75 192 " fill-opacity="1" fill-rule="nonzero"/><path fill="#fddd10" d="M 592.164062 181.464844 C 592.164062 206.882812 571.558594 227.488281 546.136719 227.488281 C 520.71875 227.488281 500.113281 206.882812 500.113281 181.464844 C 500.113281 156.042969 520.71875 135.4375 546.136719 135.4375 C 571.558594 135.4375 592.164062 156.042969 592.164062 181.464844 " fill-opacity="1" fill-rule="nonzero"/><path fill="#e3f2ff" d="M 549.335938 265.464844 C 544.171875 251.277344 523.59375 245.074219 508.214844 252.945312 C 501.066406 233.796875 479.691406 234.554688 473.371094 254.171875 C 460.050781 247.816406 443.566406 255.222656 441.226562 268.910156 C 425.621094 268.964844 413.25 277.90625 413.277344 288.652344 C 413.308594 300.691406 429.160156 309.652344 446.050781 307.167969 C 453.964844 322.601562 485.667969 325.988281 500.820312 312.882812 C 512.410156 325.949219 540.433594 322.570312 545.242188 307.40625 C 563.585938 313.296875 587.0625 304.695312 587.0625 286.960938 C 587.0625 270.664062 567.148438 261.921875 549.335938 265.464844 " fill-opacity="1" fill-rule="nonzero"/><path fill="#e3f2ff" d="M 549.335938 265.464844 C 544.171875 251.277344 523.59375 245.074219 508.214844 252.945312 C 501.066406 233.796875 479.691406 234.554688 473.371094 254.171875 C 460.050781 247.816406 443.566406 255.222656 441.226562 268.910156 C 425.621094 268.964844 413.25 277.90625 413.277344 288.652344 C 413.308594 300.691406 429.160156 309.652344 446.050781 307.167969 C 453.964844 322.601562 485.667969 325.988281 500.820312 312.882812 C 512.410156 325.949219 540.433594 322.570312 545.242188 307.40625 C 563.585938 313.296875 587.0625 304.695312 587.0625 286.960938 C 587.0625 270.664062 567.148438 261.921875 549.335938 265.464844 " fill-opacity="1" fill-rule="nonzero"/><path fill="#ffffff" d="M 441.09375 268.914062 C 440.15625 270.660156 439.484375 272.566406 439.132812 274.617188 C 428.09375 274.648438 418.621094 278.902344 413.730469 285.074219 C 416.082031 276.023438 427.324219 269.003906 441.09375 268.914062 " fill-opacity="1" fill-rule="nonzero"/><path fill="#ffffff" d="M 586.28125 281.5625 C 579.445312 272.578125 564.675781 268.453125 551.082031 271.113281 C 545.738281 256.675781 524.429688 250.371094 508.5 258.378906 C 501.09375 238.898438 478.960938 239.667969 472.414062 259.617188 C 460.792969 254.175781 446.835938 258.667969 441.296875 268.554688 C 443.859375 255.089844 460.167969 247.871094 473.371094 254.167969 C 479.695312 234.550781 501.066406 233.796875 508.214844 252.949219 C 523.597656 245.078125 544.167969 251.28125 549.335938 265.464844 C 565.070312 262.339844 582.4375 268.789062 586.28125 281.5625 " fill-opacity="1" fill-rule="nonzero"/><path fill="#e3f2ff" d="M 441.296875 268.554688 C 441.265625 268.671875 441.246094 268.789062 441.226562 268.914062 L 441.09375 268.914062 C 441.15625 268.789062 441.226562 268.671875 441.296875 268.554688 " fill-opacity="1" fill-rule="nonzero"/><path fill="#b6d5f0" d="M 545.238281 307.402344 C 540.460938 322.527344 512.445312 325.984375 500.816406 312.882812 C 485.644531 326.007812 453.945312 322.574219 446.050781 307.164062 C 427.335938 309.9375 409.941406 298.578125 413.8125 284.777344 C 416.726562 294.917969 431.078125 301.761719 446.050781 299.546875 C 450.171875 307.589844 461.902344 313.386719 475.734375 313.386719 C 486.007812 313.386719 495.265625 304.347656 500.964844 299.414062 C 505.296875 304.296875 512.765625 313.386719 521.441406 313.386719 C 533.054688 313.386719 542.777344 307.574219 545.238281 299.78125 C 562.164062 305.222656 583.574219 298.324219 586.683594 283.152344 C 590.6875 302.703125 565.472656 313.902344 545.238281 307.402344 " fill-opacity="1" fill-rule="nonzero"/><path fill="#b6d5f0" d="M 571.402344 299.460938 C 559.550781 309.53125 543.457031 305.480469 537.761719 291.085938 C 546.636719 299.625 559.554688 302.84375 571.402344 299.460938 " fill-opacity="1" fill-rule="nonzero"/><path fill="#b6d5f0" d="M 457.980469 294.375 C 449.488281 307.394531 432.902344 308.082031 423.34375 295.902344 C 434.285156 301.566406 447.585938 300.984375 457.980469 294.375 " fill-opacity="1" fill-rule="nonzero"/><path fill="#b6d5f0" d="M 518.8125 292.941406 C 510.320312 305.964844 493.734375 306.652344 484.175781 294.472656 C 495.117188 300.136719 508.414062 299.550781 518.8125 292.941406 " fill-opacity="1" fill-rule="nonzero"/><path fill="#ffffff" d="M 462.453125 280.75 C 470.945312 267.726562 487.53125 267.039062 497.089844 279.21875 C 486.148438 273.554688 472.847656 274.140625 462.453125 280.75 " fill-opacity="1" fill-rule="nonzero"/><path fill="#ffffff" d="M 543.117188 275.632812 C 551.613281 262.609375 568.199219 261.921875 577.757812 274.105469 C 566.816406 268.4375 553.515625 269.023438 543.117188 275.632812 " fill-opacity="1" fill-rule="nonzero"/><path fill="#ffffff" d="M 504.628906 262.644531 C 512.132812 249.027344 528.621094 247.117188 539.054688 258.558594 C 527.726562 253.714844 514.507812 255.28125 504.628906 262.644531 " fill-opacity="1" fill-rule="nonzero"/><path fill="#ffffff" d="M 443.035156 263.8125 C 451.402344 250.707031 467.976562 249.855469 477.65625 261.945312 C 466.660156 256.386719 453.367188 257.101562 443.035156 263.8125 " fill-opacity="1" fill-rule="nonzero"/></svg>