<svg xmlns="http://www.w3.org/2000/svg" xmlns:xlink="http://www.w3.org/1999/xlink" width="1080" zoomAndPan="magnify" viewBox="0 0 810 1439.999935" height="1920" preserveAspectRatio="xMidYMid meet" version="1.0"><defs><g/></defs><g fill="#000000" fill-opacity="1"><g transform="translate(32.315953, 981.525249)"><g><path d="M 12.515625 10.015625 C 7.128906 7.453125 4.242188 3.210938 3.859375 -2.703125 L 3.859375 -3.859375 C 3.859375 -9.378906 6.164062 -15.539062 10.78125 -22.34375 C 12.582031 -25.175781 14.316406 -27.425781 15.984375 -29.09375 C 17.523438 -30.882812 18.488281 -31.65625 18.875 -31.40625 C 19.257812 -31.144531 19.582031 -29.925781 19.84375 -27.75 C 20.101562 -25.5625 20.164062 -23.054688 20.03125 -20.234375 C 19.90625 -17.148438 19.972656 -14.578125 20.234375 -12.515625 C 20.484375 -10.597656 20.867188 -9.378906 21.390625 -8.859375 C 24.210938 -6.804688 28.960938 -9.179688 35.640625 -15.984375 C 42.316406 -22.671875 48.800781 -31.726562 55.09375 -43.15625 C 56.894531 -46.363281 60.238281 -53.109375 65.125 -63.390625 C 70.125 -73.660156 75.453125 -84.769531 81.109375 -96.71875 C 83.421875 -101.726562 85.734375 -106.800781 88.046875 -111.9375 C 90.484375 -116.945312 92.726562 -121.765625 94.78125 -126.390625 C 98.632812 -134.734375 101.847656 -141.796875 104.421875 -147.578125 C 106.992188 -153.359375 108.28125 -156.441406 108.28125 -156.828125 C 108.019531 -157.722656 106.601562 -157.59375 104.03125 -156.4375 C 101.332031 -155.28125 96.515625 -152.582031 89.578125 -148.34375 C 86.242188 -146.414062 81.625 -143.785156 75.71875 -140.453125 C 69.675781 -137.109375 63.316406 -133.640625 56.640625 -130.046875 C 50.085938 -126.453125 43.726562 -122.984375 37.5625 -119.640625 C 31.40625 -116.429688 26.332031 -113.796875 22.34375 -111.734375 L 16.953125 -109.046875 C 15.535156 -108.398438 14.703125 -108.015625 14.453125 -107.890625 C 14.066406 -107.890625 13.679688 -108.082031 13.296875 -108.46875 C 12.910156 -108.851562 12.648438 -109.363281 12.515625 -110 C 12.515625 -110.382812 15.019531 -112.1875 20.03125 -115.40625 C 25.175781 -118.613281 31.535156 -122.398438 39.109375 -126.765625 C 43.085938 -129.203125 47.328125 -131.707031 51.828125 -134.28125 L 65.3125 -141.984375 C 75.96875 -148.023438 85.664062 -153.359375 94.40625 -157.984375 C 103.132812 -162.609375 108.332031 -165.113281 110 -165.5 C 110.519531 -165.625 111.035156 -165.6875 111.546875 -165.6875 C 112.191406 -165.6875 112.832031 -165.625 113.46875 -165.5 C 114.757812 -165.113281 115.722656 -164.535156 116.359375 -163.765625 C 116.742188 -163.378906 116.9375 -162.539062 116.9375 -161.25 C 116.9375 -157.65625 115.394531 -150.914062 112.3125 -141.03125 C 108.082031 -127.664062 101.851562 -111.351562 93.625 -92.09375 C 78.988281 -57.925781 66.019531 -32.554688 54.71875 -15.984375 C 43.414062 0.578125 32.816406 9.628906 22.921875 11.171875 C 22.023438 11.296875 21.128906 11.359375 20.234375 11.359375 L 17.34375 11.359375 C 15.414062 11.109375 13.804688 10.660156 12.515625 10.015625 Z M 12.515625 10.015625 "/></g></g></g><g fill="#000000" fill-opacity="1"><g transform="translate(130.949243, 981.525249)"><g><path d="M 22.921875 -69.546875 C 27.546875 -66.210938 30.050781 -62.8125 30.4375 -59.34375 C 30.695312 -55.875 30.695312 -52.984375 30.4375 -50.671875 C 32.875 -50.148438 37.691406 -50.210938 44.890625 -50.859375 C 51.953125 -51.367188 60.171875 -52.203125 69.546875 -53.359375 C 78.535156 -54.515625 86.304688 -55.351562 92.859375 -55.875 C 99.410156 -56.257812 102.816406 -56.257812 103.078125 -55.875 L 103.078125 -55.671875 C 103.078125 -55.285156 102.691406 -54.835938 101.921875 -54.328125 C 101.015625 -53.679688 99.789062 -52.972656 98.25 -52.203125 C 95.164062 -50.660156 91.054688 -48.992188 85.921875 -47.203125 C 80.910156 -45.535156 75.898438 -44.054688 70.890625 -42.765625 C 68.710938 -42.253906 66.144531 -41.742188 63.1875 -41.234375 C 60.238281 -40.710938 57.222656 -40.257812 54.140625 -39.875 C 48.234375 -39.238281 42.515625 -38.789062 36.984375 -38.53125 C 31.597656 -38.40625 28.257812 -38.660156 26.96875 -39.296875 C 26.195312 -38.398438 25.234375 -37.117188 24.078125 -35.453125 C 22.921875 -33.648438 21.703125 -32.171875 20.421875 -31.015625 C 16.828125 -27.546875 13.164062 -25.363281 9.4375 -24.46875 C 8.28125 -24.082031 7.191406 -23.890625 6.171875 -23.890625 C 3.722656 -23.890625 1.535156 -24.660156 -0.390625 -26.203125 C -2.828125 -28.128906 -4.429688 -31.335938 -5.203125 -35.828125 C -5.460938 -37.367188 -5.59375 -38.976562 -5.59375 -40.65625 C -5.59375 -43.476562 -5.140625 -46.238281 -4.234375 -48.9375 C -2.953125 -52.40625 -1.023438 -56.382812 1.546875 -60.875 C 4.109375 -65.5 7.125 -68.773438 10.59375 -70.703125 C 12.394531 -71.734375 14.257812 -72.25 16.1875 -72.25 L 16.5625 -72.25 C 18.625 -72.25 20.742188 -71.347656 22.921875 -69.546875 Z M 13.484375 -63.765625 C 13.742188 -61.835938 14.835938 -59.847656 16.765625 -57.796875 C 18.691406 -55.742188 20.488281 -54.394531 22.15625 -53.75 C 22.925781 -54.90625 23.3125 -56.0625 23.3125 -57.21875 C 23.3125 -58.5 22.796875 -59.71875 21.765625 -60.875 C 20.222656 -62.9375 18.234375 -63.96875 15.796875 -63.96875 L 14.640625 -63.96875 C 14.515625 -63.96875 14.320312 -63.898438 14.0625 -63.765625 Z M 4.625 -35.0625 C 5.269531 -34.550781 6.039062 -34.296875 6.9375 -34.296875 C 7.582031 -34.296875 8.289062 -34.421875 9.0625 -34.671875 C 10.851562 -35.316406 12.457031 -36.472656 13.875 -38.140625 C 14.644531 -39.046875 15.476562 -40.078125 16.375 -41.234375 C 17.144531 -42.390625 17.53125 -43.222656 17.53125 -43.734375 C 16.375 -44.378906 14.703125 -45.664062 12.515625 -47.59375 C 10.335938 -49.507812 8.539062 -51.882812 7.125 -54.71875 C 5.195312 -52.65625 3.914062 -49.1875 3.28125 -44.3125 C 3.144531 -42.894531 3.078125 -41.675781 3.078125 -40.65625 C 3.078125 -37.820312 3.59375 -35.957031 4.625 -35.0625 Z M 4.625 -35.0625 "/></g></g></g><g fill="#000000" fill-opacity="1"><g transform="translate(229.004602, 981.525249)"><g><path d="M 65.703125 -74.359375 C 67.878906 -73.078125 69.097656 -71.472656 69.359375 -69.546875 C 69.484375 -67.617188 68.648438 -64.21875 66.859375 -59.34375 C 64.410156 -52.53125 62.929688 -47.710938 62.421875 -44.890625 C 61.910156 -41.929688 62.164062 -39.75 63.1875 -38.34375 C 64.726562 -36.28125 69.351562 -35.894531 77.0625 -37.1875 C 84.769531 -38.46875 96.328125 -41.550781 111.734375 -46.4375 C 119.316406 -49 126.507812 -51.242188 133.3125 -53.171875 C 140.125 -54.972656 144.429688 -56 146.234375 -56.25 C 147.640625 -56.382812 149.820312 -56.644531 152.78125 -57.03125 C 152.007812 -56.382812 150.785156 -55.351562 149.109375 -53.9375 C 147.578125 -52.53125 145.332031 -50.925781 142.375 -49.125 C 139.289062 -47.457031 135.820312 -45.660156 131.96875 -43.734375 C 124.78125 -40.140625 116.816406 -36.671875 108.078125 -33.328125 C 99.347656 -29.992188 91.769531 -27.554688 85.34375 -26.015625 C 78.40625 -24.335938 73.269531 -23.4375 69.9375 -23.3125 L 69.359375 -23.3125 C 66.148438 -23.3125 63.128906 -23.953125 60.296875 -25.234375 C 55.671875 -27.296875 52.65625 -30.1875 51.25 -33.90625 C 49.832031 -37.757812 49.957031 -42.898438 51.625 -49.328125 C 52.269531 -51.503906 52.914062 -53.492188 53.5625 -55.296875 C 54.332031 -56.960938 54.648438 -57.988281 54.515625 -58.375 C 54.390625 -58.757812 52.847656 -58.050781 49.890625 -56.25 C 47.066406 -54.582031 43.664062 -52.53125 39.6875 -50.09375 C 26.070312 -41.738281 15.21875 -36.535156 7.125 -34.484375 C -0.96875 -32.429688 -6.234375 -33.265625 -8.671875 -36.984375 C -9.691406 -38.523438 -10.203125 -39.75 -10.203125 -40.65625 L -10.203125 -40.84375 C -10.203125 -41.738281 -9.753906 -43.28125 -8.859375 -45.46875 C -7.703125 -48.414062 -5.265625 -51.5 -1.546875 -54.71875 C 2.179688 -57.925781 6.421875 -60.6875 11.171875 -63 C 13.742188 -64.28125 16.441406 -65.179688 19.265625 -65.703125 C 22.085938 -66.085938 26.257812 -66.34375 31.78125 -66.46875 C 38.082031 -66.59375 42.390625 -66.914062 44.703125 -67.4375 C 47.140625 -67.945312 50.285156 -69.226562 54.140625 -71.28125 C 56.703125 -72.695312 58.753906 -73.660156 60.296875 -74.171875 C 61.585938 -74.679688 62.679688 -74.9375 63.578125 -74.9375 L 63.765625 -74.9375 C 64.148438 -74.9375 64.472656 -74.875 64.734375 -74.75 C 64.992188 -74.625 65.316406 -74.492188 65.703125 -74.359375 Z M 28.515625 -59.34375 C 24.398438 -58.570312 20.160156 -57.414062 15.796875 -55.875 C 11.554688 -54.332031 7.894531 -52.210938 4.8125 -49.515625 C 0.957031 -46.171875 -0.96875 -43.988281 -0.96875 -42.96875 C -0.832031 -42.707031 -0.570312 -42.515625 -0.1875 -42.390625 C -0.0625 -42.253906 0.128906 -42.1875 0.390625 -42.1875 C 2.441406 -42.320312 6.9375 -44.054688 13.875 -47.390625 C 21.96875 -51.242188 27.742188 -54.265625 31.203125 -56.453125 C 33.128906 -57.609375 34.09375 -58.441406 34.09375 -58.953125 C 33.96875 -59.460938 33.195312 -59.71875 31.78125 -59.71875 C 31.394531 -59.71875 30.945312 -59.65625 30.4375 -59.53125 C 29.800781 -59.53125 29.160156 -59.46875 28.515625 -59.34375 Z M 14.828125 -94.78125 C 17.140625 -98.382812 20.289062 -102.113281 24.28125 -105.96875 C 27.875 -109.5625 31.914062 -111.359375 36.40625 -111.359375 C 36.664062 -111.359375 36.988281 -111.289062 37.375 -111.15625 C 39.5625 -110.90625 41.425781 -110.328125 42.96875 -109.421875 C 44.632812 -108.398438 46.109375 -107.25 47.390625 -105.96875 C 49.960938 -103.519531 52.335938 -101.015625 54.515625 -98.453125 C 56.578125 -95.753906 59.34375 -94.210938 62.8125 -93.828125 C 65.757812 -93.441406 68.90625 -93.828125 72.25 -94.984375 C 75.457031 -96.140625 78.472656 -97.742188 81.296875 -99.796875 C 83.359375 -101.847656 84.453125 -101.71875 84.578125 -99.40625 C 84.703125 -98.894531 84.765625 -98.382812 84.765625 -97.875 C 84.765625 -96.332031 84.445312 -95.175781 83.8125 -94.40625 C 80.976562 -90.800781 77.441406 -87.71875 73.203125 -85.15625 C 69.867188 -83.226562 66.144531 -82.265625 62.03125 -82.265625 C 60.875 -82.265625 59.65625 -82.328125 58.375 -82.453125 C 53.101562 -85.023438 49.378906 -87.976562 47.203125 -91.3125 C 44.890625 -94.65625 41.613281 -97.035156 37.375 -98.453125 C 33.132812 -99.859375 29.347656 -99.019531 26.015625 -95.9375 C 22.796875 -92.851562 19.773438 -90.539062 16.953125 -89 C 15.410156 -88.238281 14.316406 -88.5 13.671875 -89.78125 C 13.546875 -90.289062 13.484375 -90.800781 13.484375 -91.3125 C 13.484375 -92.34375 13.929688 -93.5 14.828125 -94.78125 Z M 14.828125 -94.78125 "/></g></g></g><g fill="#000000" fill-opacity="1"><g transform="translate(375.028105, 981.525249)"><g><path d="M 22.921875 -69.546875 C 27.546875 -66.210938 30.050781 -62.8125 30.4375 -59.34375 C 30.695312 -55.875 30.695312 -52.984375 30.4375 -50.671875 C 32.875 -50.148438 37.691406 -50.210938 44.890625 -50.859375 C 51.953125 -51.367188 60.171875 -52.203125 69.546875 -53.359375 C 78.535156 -54.515625 86.304688 -55.351562 92.859375 -55.875 C 99.410156 -56.257812 102.816406 -56.257812 103.078125 -55.875 L 103.078125 -55.671875 C 103.078125 -55.285156 102.691406 -54.835938 101.921875 -54.328125 C 101.015625 -53.679688 99.789062 -52.972656 98.25 -52.203125 C 95.164062 -50.660156 91.054688 -48.992188 85.921875 -47.203125 C 80.910156 -45.535156 75.898438 -44.054688 70.890625 -42.765625 C 68.710938 -42.253906 66.144531 -41.742188 63.1875 -41.234375 C 60.238281 -40.710938 57.222656 -40.257812 54.140625 -39.875 C 48.234375 -39.238281 42.515625 -38.789062 36.984375 -38.53125 C 31.597656 -38.40625 28.257812 -38.660156 26.96875 -39.296875 C 26.195312 -38.398438 25.234375 -37.117188 24.078125 -35.453125 C 22.921875 -33.648438 21.703125 -32.171875 20.421875 -31.015625 C 16.828125 -27.546875 13.164062 -25.363281 9.4375 -24.46875 C 8.28125 -24.082031 7.191406 -23.890625 6.171875 -23.890625 C 3.722656 -23.890625 1.535156 -24.660156 -0.390625 -26.203125 C -2.828125 -28.128906 -4.429688 -31.335938 -5.203125 -35.828125 C -5.460938 -37.367188 -5.59375 -38.976562 -5.59375 -40.65625 C -5.59375 -43.476562 -5.140625 -46.238281 -4.234375 -48.9375 C -2.953125 -52.40625 -1.023438 -56.382812 1.546875 -60.875 C 4.109375 -65.5 7.125 -68.773438 10.59375 -70.703125 C 12.394531 -71.734375 14.257812 -72.25 16.1875 -72.25 L 16.5625 -72.25 C 18.625 -72.25 20.742188 -71.347656 22.921875 -69.546875 Z M 13.484375 -63.765625 C 13.742188 -61.835938 14.835938 -59.847656 16.765625 -57.796875 C 18.691406 -55.742188 20.488281 -54.394531 22.15625 -53.75 C 22.925781 -54.90625 23.3125 -56.0625 23.3125 -57.21875 C 23.3125 -58.5 22.796875 -59.71875 21.765625 -60.875 C 20.222656 -62.9375 18.234375 -63.96875 15.796875 -63.96875 L 14.640625 -63.96875 C 14.515625 -63.96875 14.320312 -63.898438 14.0625 -63.765625 Z M 4.625 -35.0625 C 5.269531 -34.550781 6.039062 -34.296875 6.9375 -34.296875 C 7.582031 -34.296875 8.289062 -34.421875 9.0625 -34.671875 C 10.851562 -35.316406 12.457031 -36.472656 13.875 -38.140625 C 14.644531 -39.046875 15.476562 -40.078125 16.375 -41.234375 C 17.144531 -42.390625 17.53125 -43.222656 17.53125 -43.734375 C 16.375 -44.378906 14.703125 -45.664062 12.515625 -47.59375 C 10.335938 -49.507812 8.539062 -51.882812 7.125 -54.71875 C 5.195312 -52.65625 3.914062 -49.1875 3.28125 -44.3125 C 3.144531 -42.894531 3.078125 -41.675781 3.078125 -40.65625 C 3.078125 -37.820312 3.59375 -35.957031 4.625 -35.0625 Z M 4.625 -35.0625 "/></g></g></g><g fill="#000000" fill-opacity="1"><g transform="translate(473.083464, 981.525249)"><g/></g></g><g fill="#000000" fill-opacity="1"><g transform="translate(526.252971, 981.525249)"><g><path d="M 8.484375 -3.859375 C 8.734375 -7.453125 10.078125 -13.550781 12.515625 -22.15625 C 15.085938 -30.632812 17.851562 -39.238281 20.8125 -47.96875 C 22.863281 -53.75 24.851562 -59.144531 26.78125 -64.15625 C 28.832031 -69.03125 30.566406 -72.882812 31.984375 -75.71875 C 32.878906 -77.382812 33.773438 -79.242188 34.671875 -81.296875 C 35.578125 -83.359375 36.414062 -85.476562 37.1875 -87.65625 C 38.59375 -91.632812 39.679688 -95.296875 40.453125 -98.640625 C 41.222656 -101.984375 41.351562 -103.910156 40.84375 -104.421875 C 39.8125 -105.066406 36.984375 -103.585938 32.359375 -99.984375 C 27.867188 -96.265625 24.210938 -92.476562 21.390625 -88.625 C 19.710938 -86.3125 18.171875 -84.960938 16.765625 -84.578125 C 15.222656 -84.066406 14.382812 -84.644531 14.25 -86.3125 C 14.125 -87.082031 15.21875 -88.941406 17.53125 -91.890625 C 19.96875 -94.722656 22.664062 -97.679688 25.625 -100.765625 C 27.675781 -102.691406 29.664062 -104.550781 31.59375 -106.34375 C 33.519531 -108.007812 35.191406 -109.296875 36.609375 -110.203125 C 38.921875 -111.742188 41.101562 -112.515625 43.15625 -112.515625 C 43.664062 -112.378906 44.242188 -112.3125 44.890625 -112.3125 C 47.460938 -111.675781 49.453125 -109.945312 50.859375 -107.125 C 51.890625 -105.195312 52.40625 -102.5625 52.40625 -99.21875 L 52.40625 -97.296875 C 52.144531 -92.921875 51.304688 -87.910156 49.890625 -82.265625 C 47.453125 -71.609375 43.28125 -59.535156 37.375 -46.046875 C 31.59375 -32.429688 24.914062 -19.78125 17.34375 -8.09375 C 14.125 -3.082031 11.742188 -0.191406 10.203125 0.578125 C 9.953125 0.703125 9.695312 0.765625 9.4375 0.765625 C 8.664062 0.765625 8.28125 -0.128906 8.28125 -1.921875 C 8.28125 -2.441406 8.347656 -3.085938 8.484375 -3.859375 Z M 8.484375 -3.859375 "/></g></g></g><g fill="#000000" fill-opacity="1"><g transform="translate(583.660628, 981.525249)"><g><path d="M 63.578125 -95.359375 C 65.628906 -92.660156 67.234375 -89.453125 68.390625 -85.734375 C 69.546875 -82.003906 70.253906 -77.957031 70.515625 -73.59375 L 70.515625 -69.734375 C 70.515625 -62.929688 69.488281 -55.675781 67.4375 -47.96875 C 64.988281 -38.851562 61.195312 -30.3125 56.0625 -22.34375 C 50.414062 -13.613281 44.632812 -7.382812 38.71875 -3.65625 C 34.613281 -1.21875 30.503906 0 26.390625 0 C 24.597656 0 22.738281 -0.253906 20.8125 -0.765625 C 11.945312 -3.078125 6.550781 -10.078125 4.625 -21.765625 C 4.113281 -24.722656 3.859375 -27.804688 3.859375 -31.015625 C 3.859375 -40.523438 5.972656 -51.1875 10.203125 -63 C 14.703125 -75.070312 19.457031 -84.253906 24.46875 -90.546875 C 29.601562 -96.835938 35.445312 -100.628906 42 -101.921875 C 44.695312 -102.554688 47.070312 -102.875 49.125 -102.875 C 51.175781 -102.875 53.039062 -102.617188 54.71875 -102.109375 C 58.1875 -101.078125 61.140625 -98.828125 63.578125 -95.359375 Z M 18.109375 -25.8125 C 19.265625 -19.132812 21.640625 -15.472656 25.234375 -14.828125 C 25.617188 -14.703125 26.003906 -14.640625 26.390625 -14.640625 C 29.734375 -14.640625 33.71875 -17.082031 38.34375 -21.96875 C 41.9375 -25.5625 45.46875 -31.273438 48.9375 -39.109375 C 52.53125 -46.816406 54.84375 -53.878906 55.875 -60.296875 C 56.257812 -62.867188 56.453125 -65.441406 56.453125 -68.015625 C 56.316406 -70.835938 56.054688 -73.789062 55.671875 -76.875 C 54.773438 -82.65625 53.363281 -86.25 51.4375 -87.65625 C 50.664062 -88.425781 49.640625 -88.875 48.359375 -89 L 47.59375 -89 C 46.5625 -89 45.46875 -88.8125 44.3125 -88.4375 C 41.613281 -87.664062 39.046875 -85.929688 36.609375 -83.234375 C 34.160156 -80.660156 31.910156 -77.507812 29.859375 -73.78125 C 26.003906 -66.976562 22.988281 -59.015625 20.8125 -49.890625 C 18.882812 -41.804688 17.921875 -34.550781 17.921875 -28.125 C 17.921875 -27.351562 17.984375 -26.582031 18.109375 -25.8125 Z M 18.109375 -25.8125 "/></g></g></g><g fill="#000000" fill-opacity="1"><g transform="translate(658.598811, 981.525249)"><g><path d="M 12.328125 5.96875 C 9.890625 4.5625 8.347656 1.738281 7.703125 -2.5 C 7.578125 -3.914062 7.515625 -5.332031 7.515625 -6.75 C 7.515625 -9.695312 8.03125 -12.773438 9.0625 -15.984375 C 10.34375 -20.222656 12.71875 -22.726562 16.1875 -23.5 C 16.820312 -23.632812 17.460938 -23.703125 18.109375 -23.703125 C 20.929688 -23.703125 23.5 -22.351562 25.8125 -19.65625 C 27.101562 -17.976562 27.75 -15.859375 27.75 -13.296875 C 27.75 -11.878906 27.554688 -10.335938 27.171875 -8.671875 C 26.140625 -3.921875 24.273438 -0.0664062 21.578125 2.890625 C 20.296875 4.304688 18.691406 5.269531 16.765625 5.78125 C 15.734375 6.164062 14.832031 6.359375 14.0625 6.359375 C 13.414062 6.359375 12.835938 6.226562 12.328125 5.96875 Z M 20.234375 -78.984375 C 17.785156 -80.398438 16.242188 -83.226562 15.609375 -87.46875 C 15.472656 -88.75 15.40625 -90.097656 15.40625 -91.515625 C 15.40625 -94.597656 15.859375 -97.742188 16.765625 -100.953125 C 18.171875 -105.191406 20.609375 -107.695312 24.078125 -108.46875 C 24.722656 -108.59375 25.367188 -108.65625 26.015625 -108.65625 C 28.835938 -108.65625 31.40625 -107.242188 33.71875 -104.421875 C 35 -102.753906 35.640625 -100.632812 35.640625 -98.0625 C 35.640625 -96.644531 35.445312 -95.101562 35.0625 -93.4375 C 34.03125 -88.6875 32.171875 -84.898438 29.484375 -82.078125 C 28.191406 -80.660156 26.582031 -79.628906 24.65625 -78.984375 C 23.632812 -78.734375 22.738281 -78.609375 21.96875 -78.609375 C 21.320312 -78.609375 20.742188 -78.734375 20.234375 -78.984375 Z M 20.234375 -78.984375 "/></g></g></g><g fill="#000000" fill-opacity="1"><g transform="translate(702.136161, 981.525249)"><g><path d="M 56.640625 -116.5625 C 57.796875 -114.757812 58.953125 -113.410156 60.109375 -112.515625 C 61.265625 -111.742188 62.359375 -111.421875 63.390625 -111.546875 C 64.160156 -111.671875 65.125 -111.414062 66.28125 -110.78125 C 67.4375 -110.132812 68.460938 -109.300781 69.359375 -108.28125 C 70.640625 -106.738281 71.28125 -105.257812 71.28125 -103.84375 L 71.28125 -103.453125 C 71.15625 -102.046875 69.9375 -98.191406 67.625 -91.890625 C 65.3125 -85.347656 62.550781 -78.03125 59.34375 -69.9375 C 56.125 -61.84375 52.785156 -53.6875 49.328125 -45.46875 C 47.140625 -40.070312 44.890625 -34.804688 42.578125 -29.671875 C 40.390625 -24.398438 38.207031 -19.519531 36.03125 -15.03125 C 32.175781 -6.425781 28.835938 0.703125 26.015625 6.359375 C 23.179688 11.878906 21.445312 14.703125 20.8125 14.828125 L 20.609375 14.828125 C 20.359375 14.703125 20.101562 14.445312 19.84375 14.0625 C 19.457031 13.550781 19.203125 12.910156 19.078125 12.140625 C 18.941406 10.847656 19.066406 8.726562 19.453125 5.78125 C 19.972656 2.820312 20.617188 -0.644531 21.390625 -4.625 C 23.054688 -11.945312 25.238281 -20.234375 27.9375 -29.484375 C 30.5 -38.859375 33.128906 -47.007812 35.828125 -53.9375 C 36.984375 -56.769531 37.882812 -59.273438 38.53125 -61.453125 C 39.175781 -63.765625 39.367188 -64.988281 39.109375 -65.125 C 38.847656 -65.25 38.015625 -65.117188 36.609375 -64.734375 C 35.191406 -64.472656 33.582031 -63.957031 31.78125 -63.1875 C 27.289062 -61.519531 23.179688 -60.878906 19.453125 -61.265625 C 15.859375 -61.648438 12.585938 -63 9.640625 -65.3125 C 7.453125 -67.113281 6.035156 -68.71875 5.390625 -70.125 C 4.617188 -71.539062 4.039062 -74.109375 3.65625 -77.828125 L 3.28125 -81.6875 C 3.28125 -85.414062 3.984375 -89.203125 5.390625 -93.046875 C 7.191406 -98.054688 10.335938 -103.390625 14.828125 -109.046875 C 18.296875 -113.410156 22.023438 -116.941406 26.015625 -119.640625 C 29.859375 -122.210938 33.644531 -123.882812 37.375 -124.65625 C 38.65625 -124.78125 39.941406 -124.84375 41.234375 -124.84375 C 43.671875 -124.96875 45.984375 -124.582031 48.171875 -123.6875 C 51.503906 -122.40625 54.328125 -120.03125 56.640625 -116.5625 Z M 19.453125 -77.828125 C 20.484375 -76.804688 21.578125 -76.296875 22.734375 -76.296875 C 23.117188 -76.296875 23.566406 -76.359375 24.078125 -76.484375 C 25.617188 -76.867188 28.703125 -78.664062 33.328125 -81.875 C 38.078125 -85.09375 42.703125 -89.269531 47.203125 -94.40625 C 51.441406 -99.414062 53.5625 -102.945312 53.5625 -105 L 53.5625 -105.390625 C 53.300781 -107.828125 52.078125 -109.816406 49.890625 -111.359375 C 48.222656 -112.765625 46.363281 -113.46875 44.3125 -113.46875 C 43.925781 -113.46875 43.539062 -113.40625 43.15625 -113.28125 C 40.71875 -113.019531 38.082031 -111.800781 35.25 -109.625 C 32.425781 -107.4375 29.859375 -104.867188 27.546875 -101.921875 C 23.828125 -97.546875 21.066406 -92.921875 19.265625 -88.046875 C 18.367188 -85.734375 17.921875 -83.742188 17.921875 -82.078125 C 17.921875 -80.273438 18.429688 -78.859375 19.453125 -77.828125 Z M 19.453125 -77.828125 "/></g></g></g></svg>