<svg xmlns="http://www.w3.org/2000/svg" xmlns:xlink="http://www.w3.org/1999/xlink" width="1080" zoomAndPan="magnify" viewBox="0 0 810 1439.999935" height="1920" preserveAspectRatio="xMidYMid meet" version="1.0" style=""><defs><clipPath id="4baa194bea"><path d="M 547.296875 492.996094 L 563.667969 492.996094 L 563.667969 509.367188 L 547.296875 509.367188 Z M 547.296875 492.996094 " clip-rule="nonzero" class="oGdQKqXa_0"></path></clipPath><clipPath id="1a6fd4e010"><path d="M 555.480469 492.996094 C 550.960938 492.996094 547.296875 496.660156 547.296875 501.179688 C 547.296875 505.703125 550.960938 509.367188 555.480469 509.367188 C 560 509.367188 563.667969 505.703125 563.667969 501.179688 C 563.667969 496.660156 560 492.996094 555.480469 492.996094 Z M 555.480469 492.996094 " clip-rule="nonzero" class="oGdQKqXa_1"></path></clipPath></defs>
<!--FECHADURA--><g clip-path="url(#4baa194bea)"><g clip-path="url(#1a6fd4e010)"><path stroke-linecap="butt" transform="matrix(0.75, 0, 0, 0.75, 547.295011, 492.995745)" fill="none" stroke-linejoin="miter" d="M 10.913945 0.000464726 C 4.887903 0.000464726 0.00248564 4.885882 0.00248564 10.911924 C 0.00248564 16.943175 4.887903 21.828592 10.913945 21.828592 C 16.939987 21.828592 21.830613 16.943175 21.830613 10.911924 C 21.830613 4.885882 16.939987 0.000464726 10.913945 0.000464726 Z M 10.913945 0.000464726 " stroke="#000000" stroke-width="38" stroke-opacity="1" stroke-miterlimit="4" class="oGdQKqXa_2"></path></g></g><path stroke-linecap="butt" transform="matrix(0, -0.75, 0.75, 0, 550.984362, 524.829654)" fill="none" stroke-linejoin="miter" d="M 0.00203926 6.000017 L 40.330168 6.000017 " stroke="#000000" stroke-width="12" stroke-opacity="1" stroke-miterlimit="4" class="oGdQKqXa_3"></path><path stroke-linecap="butt" transform="matrix(0, 0.75, -0.75, 0, 557.795418, 496.532865)" fill="none" stroke-linejoin="miter" d="M -0.0021532 5.998058 L 12.419723 5.998058 " stroke="#000000" stroke-width="12" stroke-opacity="1" stroke-miterlimit="4" class="oGdQKqXa_4"></path><path stroke-linecap="butt" transform="matrix(0, 0.75, -0.75, 0, 562.295417, 496.532865)" fill="none" stroke-linejoin="miter" d="M -0.0021532 5.998057 L 12.419723 5.998057 " stroke="#000000" stroke-width="12" stroke-opacity="1" stroke-miterlimit="4" class="oGdQKqXa_5"></path>
<!--Fresta maior--><path stroke-linecap="butt" transform="matrix(0, -0.75, 0.75, 0, 529.116188, 966.210544)" fill="none" stroke-linejoin="miter" d="M -0.000524497 5.501333 L 1262.692293 5.501333 " stroke="#000000" stroke-width="11" stroke-opacity="1" stroke-miterlimit="4" class="oGdQKqXa_6"></path>
<!--Fresta de cima--><path stroke-linecap="butt" transform="matrix(0.75, 0, 0, 0.75, 529.141604, 19.19569)" fill="none" stroke-linejoin="miter" d="M -0.0013058 1.999497 L 346.743516 1.999497 " stroke="#000000" stroke-width="4" stroke-opacity="1" stroke-miterlimit="4" class="oGdQKqXa_7"></path>
<!--fresta de baixo--><path stroke-linecap="butt" transform="matrix(0.75, 0, 0, 0.75, 529.141604, 963.209896)" fill="none" stroke-linejoin="miter" d="M -0.0013058 2.001388 L 346.743516 2.001388 " stroke="#000000" stroke-width="4" stroke-opacity="1" stroke-miterlimit="4" class="oGdQKqXa_8"></path>
<!--Frestas de trás--><path stroke-linecap="butt" transform="matrix(0, -0.75, 0.75, 0, 788.82451, 108.536793)" fill="none" stroke-linejoin="miter" d="M 0.0021823 0.499612 L 119.127193 0.499612 " stroke="#000000" stroke-width="1" stroke-opacity="1" stroke-miterlimit="4" class="oGdQKqXa_9"></path><path stroke-linecap="butt" transform="matrix(0, -0.75, 0.75, 0, 788.822878, 474.503747)" fill="none" stroke-linejoin="miter" d="M -0.000212586 0.501788 L 443.380034 0.501788 " stroke="#000000" stroke-width="1" stroke-opacity="1" stroke-miterlimit="4" class="oGdQKqXa_10"></path><path stroke-linecap="butt" transform="matrix(-0.000272438, -0.75, 0.75, -0.000272438, 788.851462, 966.205624)" fill="none" stroke-linejoin="miter" d="M -0.00205784 0.500134 L 119.12296 0.501739 " stroke="#000000" stroke-width="1" stroke-opacity="1" stroke-miterlimit="4" class="oGdQKqXa_11"></path><path stroke-linecap="butt" transform="matrix(0, -0.75, 0.75, 0, 788.823238, 841.907475)" fill="none" stroke-linejoin="miter" d="M 0.00163322 0.501308 L 443.376672 0.501308 " stroke="#000000" stroke-width="1" stroke-opacity="1" stroke-miterlimit="4" class="oGdQKqXa_12"></path>
<!--sombra/luz--><path stroke-linecap="butt" transform="matrix(0.607117, -0.440351, 0.440351, 0.607117, -195.151254, 1491.169651)" fill="none" stroke-linejoin="miter" d="M 0.00193956 1.999642 L 1198.308311 1.999459 " stroke="#000000" stroke-width="4" stroke-opacity="1" stroke-miterlimit="4" class="oGdQKqXa_13"></path><path stroke-linecap="butt" transform="matrix(0.595941, -0.455361, 0.455361, 0.595941, -168.558908, 1501.353474)" fill="none" stroke-linejoin="miter" d="M -0.00149732 2.001405 L 1180.10435 2.000994 " stroke="#000000" stroke-width="4" stroke-opacity="1" stroke-miterlimit="4" class="oGdQKqXa_14"></path><path stroke-linecap="butt" transform="matrix(0.613101, -0.431981, 0.431981, 0.613101, -170.433044, 1468.494813)" fill="none" stroke-linejoin="miter" d="M -0.000198676 6.500676 L 632.957191 6.499857 " stroke="#000000" stroke-width="13" stroke-opacity="1" stroke-miterlimit="4" class="oGdQKqXa_15"></path><path stroke-linecap="butt" transform="matrix(0.598539, -0.451941, 0.451941, 0.598539, -170.56315, 1488.494371)" fill="none" stroke-linejoin="miter" d="M -0.000916704 6.502389 L 608.853366 6.499832 " stroke="#000000" stroke-width="13" stroke-opacity="1" stroke-miterlimit="4" class="oGdQKqXa_16"></path><path stroke-linecap="butt" transform="matrix(0.600654, -0.449126, 0.449126, 0.600654, 209.363043, 1201.269476)" fill="none" stroke-linejoin="miter" d="M 0.000292483 6.497132 L 237.453695 6.500453 " stroke="#000000" stroke-width="13" stroke-opacity="1" stroke-miterlimit="4" class="oGdQKqXa_17"></path><path stroke-linecap="butt" transform="matrix(0.600654, -0.449126, 0.449126, 0.600654, 339.68155, 1110.038548)" fill="none" stroke-linejoin="miter" d="M -0.00125405 1.502187 L 237.455268 1.501337 " stroke="#000000" stroke-width="3" stroke-opacity="1" stroke-miterlimit="4" class="oGdQKqXa_18"></path><path stroke-linecap="butt" transform="matrix(0.604097, -0.444485, 0.444485, 0.604097, 353.578377, 1096.712573)" fill="none" stroke-linejoin="miter" d="M 0.00227066 1.499138 L 212.007 1.496868 " stroke="#000000" stroke-width="3" stroke-opacity="1" stroke-miterlimit="4" class="oGdQKqXa_19"></path><path stroke-linecap="butt" transform="matrix(0.598265, -0.452304, 0.452304, 0.598265, 326.400868, 1119.046635)" fill="none" stroke-linejoin="miter" d="M -0.00230396 1.500397 L 112.302707 1.498869 " stroke="#000000" stroke-width="3" stroke-opacity="1" stroke-miterlimit="4" class="oGdQKqXa_20"></path><path stroke-linecap="butt" transform="matrix(0.598265, -0.452304, 0.452304, 0.598265, 435.603004, 1037.049034)" fill="none" stroke-linejoin="miter" d="M 0.000676914 1.498641 L 112.302547 1.501267 " stroke="#000000" stroke-width="3" stroke-opacity="1" stroke-miterlimit="4" class="oGdQKqXa_21"></path><path stroke-linecap="butt" transform="matrix(0.630008, -0.406927, 0.406927, 0.630008, -170.270693, 1468.383261)" fill="none" stroke-linejoin="miter" d="M 0.00201573 6.498522 L 289.184408 6.49903 " stroke="#000000" stroke-width="13" stroke-opacity="1" stroke-miterlimit="4" class="oGdQKqXa_22"></path>
<!--versículo-->
<g fill="#000000" fill-opacity="1"><g transform="translate(124.973866, 1201.734858)"><g><path d="M 9.96875 0.546875 C 6.3125 1.191406 3.316406 0.0859375 0.984375 -2.765625 L 0.546875 -3.359375 C -1.453125 -6.160156 -2.507812 -10.117188 -2.625 -15.234375 C -2.738281 -17.296875 -2.675781 -19.0625 -2.4375 -20.53125 C -2.3125 -22 -2.101562 -22.734375 -1.8125 -22.734375 C -1.53125 -22.742188 -0.925781 -22.242188 0 -21.234375 C 0.925781 -20.222656 1.863281 -18.976562 2.8125 -17.5 C 3.863281 -15.894531 4.832031 -14.617188 5.71875 -13.671875 C 6.539062 -12.785156 7.175781 -12.304688 7.625 -12.234375 C 9.789062 -12.210938 11.332031 -15.132812 12.25 -21 C 13.21875 -26.800781 13.226562 -33.738281 12.28125 -41.8125 C 12.019531 -44.09375 11.269531 -48.71875 10.03125 -55.6875 C 8.84375 -62.695312 7.515625 -70.253906 6.046875 -78.359375 C 5.398438 -81.722656 4.734375 -85.128906 4.046875 -88.578125 C 3.460938 -91.992188 2.859375 -95.242188 2.234375 -98.328125 C 1.148438 -103.953125 0.222656 -108.691406 -0.546875 -112.546875 C -1.359375 -116.398438 -1.832031 -118.425781 -1.96875 -118.625 C -2.414062 -119 -3.082031 -118.425781 -3.96875 -116.90625 C -4.90625 -115.332031 -6.363281 -112.222656 -8.34375 -107.578125 C -9.34375 -105.378906 -10.734375 -102.367188 -12.515625 -98.546875 C -14.367188 -94.671875 -16.332031 -90.613281 -18.40625 -86.375 C -20.425781 -82.175781 -22.390625 -78.113281 -24.296875 -74.1875 C -26.253906 -70.320312 -27.867188 -67.15625 -29.140625 -64.6875 L -30.890625 -61.359375 C -31.378906 -60.523438 -31.664062 -60.03125 -31.75 -59.875 C -31.945312 -59.738281 -32.210938 -59.695312 -32.546875 -59.75 C -32.878906 -59.800781 -33.195312 -59.960938 -33.5 -60.234375 C -33.632812 -60.429688 -33.019531 -62.25 -31.65625 -65.6875 C -30.207031 -69.175781 -28.359375 -73.394531 -26.109375 -78.34375 C -24.972656 -81.03125 -23.734375 -83.84375 -22.390625 -86.78125 L -18.359375 -95.5625 C -15.140625 -102.488281 -12.15625 -108.695312 -9.40625 -114.1875 C -6.644531 -119.695312 -4.921875 -122.851562 -4.234375 -123.65625 C -4.015625 -123.90625 -3.769531 -124.125 -3.5 -124.3125 C -3.1875 -124.539062 -2.84375 -124.738281 -2.46875 -124.90625 C -1.675781 -125.175781 -0.972656 -125.226562 -0.359375 -125.0625 C -0.0351562 -125.019531 0.359375 -124.671875 0.828125 -124.015625 C 2.128906 -122.191406 3.796875 -118.21875 5.828125 -112.09375 C 8.503906 -103.789062 11.253906 -93.269531 14.078125 -80.53125 C 19.035156 -57.925781 21.644531 -40.382812 21.90625 -27.90625 C 22.1875 -15.425781 20.101562 -7.007812 15.65625 -2.65625 C 15.257812 -2.257812 14.832031 -1.898438 14.375 -1.578125 L 12.90625 -0.53125 C 11.84375 0.0390625 10.863281 0.398438 9.96875 0.546875 Z M 9.96875 0.546875 " class="oGdQKqXa_23"></path></g></g></g><g fill="#000000" fill-opacity="1"><g transform="translate(174.922334, 1166.015736)"><g><path d="M -13.578125 -43.53125 C -10.023438 -43.507812 -7.519531 -42.691406 -6.0625 -41.078125 C -4.6875 -39.410156 -3.640625 -37.945312 -2.921875 -36.6875 C -1.503906 -37.3125 0.90625 -39.09375 4.3125 -42.03125 C 7.695312 -44.832031 11.554688 -48.222656 15.890625 -52.203125 C 20.035156 -56.054688 23.671875 -59.296875 26.796875 -61.921875 C 29.972656 -64.484375 31.695312 -65.71875 31.96875 -65.625 L 32.03125 -65.53125 C 32.175781 -65.332031 32.144531 -64.960938 31.9375 -64.421875 C 31.707031 -63.765625 31.34375 -62.960938 30.84375 -62.015625 C 29.851562 -60.117188 28.378906 -57.789062 26.421875 -55.03125 C 24.484375 -52.363281 22.484375 -49.796875 20.421875 -47.328125 C 19.492188 -46.296875 18.375 -45.109375 17.0625 -43.765625 C 15.75 -42.429688 14.390625 -41.109375 12.984375 -39.796875 C 10.210938 -37.335938 7.476562 -35.039062 4.78125 -32.90625 C 2.09375 -30.894531 0.304688 -29.816406 -0.578125 -29.671875 C -0.640625 -28.941406 -0.660156 -27.941406 -0.640625 -26.671875 C -0.566406 -25.335938 -0.648438 -24.144531 -0.890625 -23.09375 C -1.460938 -20.039062 -2.523438 -17.613281 -4.078125 -15.8125 C -4.523438 -15.195312 -5.007812 -14.703125 -5.53125 -14.328125 C -6.769531 -13.441406 -8.148438 -13.039062 -9.671875 -13.125 C -11.609375 -13.21875 -13.585938 -14.269531 -15.609375 -16.28125 C -16.296875 -16.945312 -16.941406 -17.707031 -17.546875 -18.5625 C -18.578125 -19.988281 -19.347656 -21.550781 -19.859375 -23.25 C -20.472656 -25.46875 -20.941406 -28.175781 -21.265625 -31.375 C -21.640625 -34.65625 -21.300781 -37.40625 -20.25 -39.625 C -19.707031 -40.8125 -18.945312 -41.753906 -17.96875 -42.453125 L -17.78125 -42.59375 C -16.738281 -43.332031 -15.335938 -43.644531 -13.578125 -43.53125 Z M -16.265625 -37.171875 C -15.429688 -36.296875 -14.160156 -35.6875 -12.453125 -35.34375 C -10.722656 -34.988281 -9.320312 -34.957031 -8.25 -35.25 C -8.269531 -36.101562 -8.488281 -36.828125 -8.90625 -37.421875 C -9.375 -38.066406 -10.082031 -38.492188 -11.03125 -38.703125 C -12.5625 -39.191406 -13.941406 -38.992188 -15.171875 -38.109375 L -15.765625 -37.6875 C -15.816406 -37.644531 -15.882812 -37.546875 -15.96875 -37.390625 Z M -10.359375 -19.421875 C -9.847656 -19.398438 -9.367188 -19.550781 -8.921875 -19.875 C -8.585938 -20.101562 -8.269531 -20.425781 -7.96875 -20.84375 C -7.289062 -21.8125 -6.894531 -22.976562 -6.78125 -24.34375 C -6.726562 -25.070312 -6.679688 -25.894531 -6.640625 -26.8125 C -6.660156 -27.6875 -6.765625 -28.253906 -6.953125 -28.515625 C -7.773438 -28.410156 -9.085938 -28.445312 -10.890625 -28.625 C -12.703125 -28.8125 -14.472656 -29.363281 -16.203125 -30.28125 C -16.441406 -28.539062 -15.832031 -26.320312 -14.375 -23.625 C -13.9375 -22.863281 -13.53125 -22.226562 -13.15625 -21.71875 C -12.132812 -20.28125 -11.203125 -19.515625 -10.359375 -19.421875 Z M -10.359375 -19.421875 " class="oGdQKqXa_24"></path></g></g></g><g fill="#000000" fill-opacity="1"><g transform="translate(224.578135, 1130.505906)"><g><path d="M 6.328125 -61.453125 C 7.898438 -61.578125 9.101562 -61.207031 9.9375 -60.34375 C 10.695312 -59.40625 11.507812 -57.378906 12.375 -54.265625 C 13.59375 -49.941406 14.582031 -46.96875 15.34375 -45.34375 C 16.164062 -43.65625 17.085938 -42.644531 18.109375 -42.3125 C 19.640625 -41.820312 22.125 -43.296875 25.5625 -46.734375 C 29 -50.171875 33.738281 -55.921875 39.78125 -63.984375 C 42.675781 -68.023438 45.5 -71.769531 48.25 -75.21875 C 51.050781 -78.59375 52.863281 -80.671875 53.6875 -81.453125 C 54.351562 -82.015625 55.363281 -82.929688 56.71875 -84.203125 C 56.570312 -83.609375 56.328125 -82.644531 55.984375 -81.3125 C 55.710938 -80.050781 55.148438 -78.429688 54.296875 -76.453125 C 53.347656 -74.484375 52.25 -72.316406 51 -69.953125 C 48.65625 -65.523438 45.878906 -60.878906 42.671875 -56.015625 C 39.460938 -51.171875 36.503906 -47.191406 33.796875 -44.078125 C 30.890625 -40.722656 28.617188 -38.410156 26.984375 -37.140625 L 26.6875 -36.9375 C 25.0625 -35.769531 23.300781 -35 21.40625 -34.625 C 18.3125 -33.988281 15.734375 -34.359375 13.671875 -35.734375 C 11.566406 -37.171875 9.769531 -39.816406 8.28125 -43.671875 C 7.820312 -45.015625 7.429688 -46.253906 7.109375 -47.390625 C 6.878906 -48.515625 6.671875 -49.15625 6.484375 -49.3125 C 6.273438 -49.457031 5.742188 -48.539062 4.890625 -46.5625 C 4.066406 -44.6875 3.085938 -42.414062 1.953125 -39.75 C -1.910156 -30.59375 -5.519531 -24.023438 -8.875 -20.046875 C -12.238281 -16.078125 -15.207031 -14.59375 -17.78125 -15.59375 C -18.863281 -16 -19.566406 -16.429688 -19.890625 -16.890625 L -19.953125 -16.96875 C -20.285156 -17.425781 -20.617188 -18.378906 -20.953125 -19.828125 C -21.429688 -21.734375 -21.3125 -24.175781 -20.59375 -27.15625 C -19.875 -30.125 -18.726562 -33.054688 -17.15625 -35.953125 C -16.320312 -37.523438 -15.28125 -38.957031 -14.03125 -40.25 C -12.738281 -41.46875 -10.710938 -43.109375 -7.953125 -45.171875 C -4.828125 -47.515625 -2.769531 -49.238281 -1.78125 -50.34375 C -0.738281 -51.488281 0.390625 -53.273438 1.609375 -55.703125 C 2.398438 -57.347656 3.09375 -58.582031 3.6875 -59.40625 C 4.144531 -60.132812 4.597656 -60.65625 5.046875 -60.96875 L 5.15625 -61.046875 C 5.351562 -61.179688 5.535156 -61.265625 5.703125 -61.296875 C 5.890625 -61.328125 6.097656 -61.378906 6.328125 -61.453125 Z M -7.046875 -40.375 C -8.835938 -38.488281 -10.566406 -36.367188 -12.234375 -34.015625 C -13.816406 -31.703125 -14.90625 -29.304688 -15.5 -26.828125 C -16.226562 -23.734375 -16.410156 -21.929688 -16.046875 -21.421875 C -15.890625 -21.328125 -15.691406 -21.316406 -15.453125 -21.390625 C -15.335938 -21.367188 -15.21875 -21.40625 -15.09375 -21.5 C -14.09375 -22.3125 -12.4375 -24.820312 -10.125 -29.03125 C -7.4375 -33.914062 -5.601562 -37.535156 -4.625 -39.890625 C -4.070312 -41.171875 -3.890625 -41.945312 -4.078125 -42.21875 C -4.328125 -42.425781 -4.804688 -42.273438 -5.515625 -41.765625 C -5.710938 -41.628906 -5.921875 -41.429688 -6.140625 -41.171875 C -6.460938 -40.929688 -6.765625 -40.664062 -7.046875 -40.375 Z M -26.8125 -53.375 C -26.945312 -56.03125 -26.703125 -59.050781 -26.078125 -62.4375 C -25.566406 -65.570312 -24.171875 -67.953125 -21.890625 -69.578125 C -21.765625 -69.671875 -21.578125 -69.753906 -21.328125 -69.828125 C -20.128906 -70.484375 -18.972656 -70.863281 -17.859375 -70.96875 C -16.648438 -71.0625 -15.488281 -71.007812 -14.375 -70.8125 C -12.1875 -70.507812 -10.070312 -70.109375 -8.03125 -69.609375 C -6.019531 -68.984375 -4.066406 -69.203125 -2.171875 -70.265625 C -0.546875 -71.140625 0.90625 -72.476562 2.1875 -74.28125 C 3.394531 -76.019531 4.34375 -77.925781 5.03125 -80 C 5.332031 -81.769531 5.929688 -82.09375 6.828125 -80.96875 C 7.078125 -80.757812 7.296875 -80.523438 7.484375 -80.265625 C 8.046875 -79.484375 8.300781 -78.78125 8.25 -78.15625 C 8.125 -75.320312 7.453125 -72.484375 6.234375 -69.640625 C 5.242188 -67.453125 3.707031 -65.613281 1.625 -64.125 C 1.039062 -63.707031 0.398438 -63.300781 -0.296875 -62.90625 C -3.890625 -62.289062 -6.847656 -62.4375 -9.171875 -63.34375 C -11.535156 -64.195312 -14.054688 -64.210938 -16.734375 -63.390625 C -19.390625 -62.566406 -21.003906 -60.773438 -21.578125 -58.015625 C -22.085938 -55.285156 -22.773438 -53.019531 -23.640625 -51.21875 C -24.148438 -50.269531 -24.800781 -50.003906 -25.59375 -50.421875 C -25.84375 -50.628906 -26.0625 -50.863281 -26.25 -51.125 C -26.613281 -51.644531 -26.800781 -52.394531 -26.8125 -53.375 Z M -26.8125 -53.375 " class="oGdQKqXa_25"></path></g></g></g><g fill="#000000" fill-opacity="1"><g transform="translate(298.525282, 1077.624862)"><g><path d="M -13.578125 -43.53125 C -10.023438 -43.507812 -7.519531 -42.691406 -6.0625 -41.078125 C -4.6875 -39.410156 -3.640625 -37.945312 -2.921875 -36.6875 C -1.503906 -37.3125 0.90625 -39.09375 4.3125 -42.03125 C 7.695312 -44.832031 11.554688 -48.222656 15.890625 -52.203125 C 20.035156 -56.054688 23.671875 -59.296875 26.796875 -61.921875 C 29.972656 -64.484375 31.695312 -65.71875 31.96875 -65.625 L 32.03125 -65.53125 C 32.175781 -65.332031 32.144531 -64.960938 31.9375 -64.421875 C 31.707031 -63.765625 31.34375 -62.960938 30.84375 -62.015625 C 29.851562 -60.117188 28.378906 -57.789062 26.421875 -55.03125 C 24.484375 -52.363281 22.484375 -49.796875 20.421875 -47.328125 C 19.492188 -46.296875 18.375 -45.109375 17.0625 -43.765625 C 15.75 -42.429688 14.390625 -41.109375 12.984375 -39.796875 C 10.210938 -37.335938 7.476562 -35.039062 4.78125 -32.90625 C 2.09375 -30.894531 0.304688 -29.816406 -0.578125 -29.671875 C -0.640625 -28.941406 -0.660156 -27.941406 -0.640625 -26.671875 C -0.566406 -25.335938 -0.648438 -24.144531 -0.890625 -23.09375 C -1.460938 -20.039062 -2.523438 -17.613281 -4.078125 -15.8125 C -4.523438 -15.195312 -5.007812 -14.703125 -5.53125 -14.328125 C -6.769531 -13.441406 -8.148438 -13.039062 -9.671875 -13.125 C -11.609375 -13.21875 -13.585938 -14.269531 -15.609375 -16.28125 C -16.296875 -16.945312 -16.941406 -17.707031 -17.546875 -18.5625 C -18.578125 -19.988281 -19.347656 -21.550781 -19.859375 -23.25 C -20.472656 -25.46875 -20.941406 -28.175781 -21.265625 -31.375 C -21.640625 -34.65625 -21.300781 -37.40625 -20.25 -39.625 C -19.707031 -40.8125 -18.945312 -41.753906 -17.96875 -42.453125 L -17.78125 -42.59375 C -16.738281 -43.332031 -15.335938 -43.644531 -13.578125 -43.53125 Z M -16.265625 -37.171875 C -15.429688 -36.296875 -14.160156 -35.6875 -12.453125 -35.34375 C -10.722656 -34.988281 -9.320312 -34.957031 -8.25 -35.25 C -8.269531 -36.101562 -8.488281 -36.828125 -8.90625 -37.421875 C -9.375 -38.066406 -10.082031 -38.492188 -11.03125 -38.703125 C -12.5625 -39.191406 -13.941406 -38.992188 -15.171875 -38.109375 L -15.765625 -37.6875 C -15.816406 -37.644531 -15.882812 -37.546875 -15.96875 -37.390625 Z M -10.359375 -19.421875 C -9.847656 -19.398438 -9.367188 -19.550781 -8.921875 -19.875 C -8.585938 -20.101562 -8.269531 -20.425781 -7.96875 -20.84375 C -7.289062 -21.8125 -6.894531 -22.976562 -6.78125 -24.34375 C -6.726562 -25.070312 -6.679688 -25.894531 -6.640625 -26.8125 C -6.660156 -27.6875 -6.765625 -28.253906 -6.953125 -28.515625 C -7.773438 -28.410156 -9.085938 -28.445312 -10.890625 -28.625 C -12.703125 -28.8125 -14.472656 -29.363281 -16.203125 -30.28125 C -16.441406 -28.539062 -15.832031 -26.320312 -14.375 -23.625 C -13.9375 -22.863281 -13.53125 -22.226562 -13.15625 -21.71875 C -12.132812 -20.28125 -11.203125 -19.515625 -10.359375 -19.421875 Z M -10.359375 -19.421875 " class="oGdQKqXa_26"></path></g></g></g><g fill="#000000" fill-opacity="1"><g transform="translate(348.181083, 1042.115032)"><g></g></g></g><g fill="#000000" fill-opacity="1"><g transform="translate(375.106429, 1022.860193)"><g><path d="M 2.890625 -5.03125 C 1.722656 -6.925781 0.195312 -10.5 -1.6875 -15.75 C -3.445312 -20.976562 -5.164062 -26.335938 -6.84375 -31.828125 C -7.894531 -35.503906 -8.835938 -38.957031 -9.671875 -42.1875 C -10.398438 -45.40625 -10.921875 -47.984375 -11.234375 -49.921875 C -11.378906 -51.085938 -11.597656 -52.359375 -11.890625 -53.734375 C -12.171875 -55.097656 -12.515625 -56.472656 -12.921875 -57.859375 C -13.640625 -60.390625 -14.414062 -62.640625 -15.25 -64.609375 C -16.050781 -66.566406 -16.679688 -67.585938 -17.140625 -67.671875 C -17.878906 -67.617188 -18.769531 -65.847656 -19.8125 -62.359375 C -20.75 -58.847656 -21.234375 -55.601562 -21.265625 -52.625 C -21.273438 -50.84375 -21.566406 -49.601562 -22.140625 -48.90625 C -22.722656 -48.082031 -23.351562 -48.066406 -24.03125 -48.859375 C -24.375 -49.210938 -24.492188 -50.5625 -24.390625 -52.90625 C -24.179688 -55.207031 -23.890625 -57.675781 -23.515625 -60.3125 C -23.160156 -62.019531 -22.828125 -63.679688 -22.515625 -65.296875 C -22.140625 -66.835938 -21.753906 -68.097656 -21.359375 -69.078125 C -20.753906 -70.679688 -19.929688 -71.851562 -18.890625 -72.59375 C -18.597656 -72.726562 -18.285156 -72.914062 -17.953125 -73.15625 C -16.410156 -73.75 -14.769531 -73.585938 -13.03125 -72.671875 C -11.820312 -72.066406 -10.613281 -70.921875 -9.40625 -69.234375 L -8.703125 -68.265625 C -7.242188 -65.953125 -5.851562 -63.101562 -4.53125 -59.71875 C -1.90625 -53.4375 0.351562 -45.816406 2.25 -36.859375 C 4.257812 -27.859375 5.460938 -19.03125 5.859375 -10.375 C 6.046875 -6.675781 5.882812 -4.351562 5.375 -3.40625 C 5.300781 -3.25 5.195312 -3.125 5.0625 -3.03125 C 4.664062 -2.75 4.140625 -3.066406 3.484375 -3.984375 C 3.304688 -4.234375 3.109375 -4.582031 2.890625 -5.03125 Z M 2.890625 -5.03125 " class="oGdQKqXa_27"></path></g></g></g><g fill="#000000" fill-opacity="1"><g transform="translate(404.177998, 1002.070548)"><g><path d="M -2.34375 -71.3125 C -0.332031 -70.695312 1.644531 -69.65625 3.59375 -68.1875 C 5.519531 -66.71875 7.34375 -64.929688 9.0625 -62.828125 L 10.46875 -60.859375 C 12.925781 -57.410156 15.03125 -53.363281 16.78125 -48.71875 C 18.84375 -43.207031 20.015625 -37.507812 20.296875 -31.625 C 20.597656 -25.144531 19.925781 -19.898438 18.28125 -15.890625 C 17.082031 -13.148438 15.445312 -11.039062 13.375 -9.5625 C 12.457031 -8.90625 11.414062 -8.359375 10.25 -7.921875 C 4.925781 -5.878906 -0.332031 -7.46875 -5.53125 -12.6875 C -6.863281 -14.007812 -8.113281 -15.484375 -9.28125 -17.109375 C -12.71875 -21.921875 -15.503906 -28.085938 -17.640625 -35.609375 C -19.734375 -43.347656 -20.65625 -49.71875 -20.40625 -54.71875 C -20.070312 -59.769531 -18.476562 -63.804688 -15.625 -66.828125 C -14.488281 -68.117188 -13.398438 -69.140625 -12.359375 -69.890625 C -11.328125 -70.628906 -10.300781 -71.175781 -9.28125 -71.53125 C -7.144531 -72.25 -4.832031 -72.175781 -2.34375 -71.3125 Z M -0.1875 -19.640625 C 2.820312 -16.671875 5.351562 -15.675781 7.40625 -16.65625 C 7.65625 -16.726562 7.878906 -16.832031 8.078125 -16.96875 C 9.765625 -18.175781 10.894531 -20.859375 11.46875 -25.015625 C 11.988281 -28.140625 11.707031 -32.304688 10.625 -37.515625 C 9.65625 -42.722656 8.265625 -47.144531 6.453125 -50.78125 C 5.710938 -52.207031 4.878906 -53.570312 3.953125 -54.875 C 2.867188 -56.269531 1.671875 -57.675781 0.359375 -59.09375 C -2.179688 -61.6875 -4.203125 -62.992188 -5.703125 -63.015625 C -6.367188 -63.140625 -7.050781 -63 -7.75 -62.59375 L -8.140625 -62.3125 C -8.648438 -61.9375 -9.132812 -61.441406 -9.59375 -60.828125 C -10.675781 -59.460938 -11.34375 -57.65625 -11.59375 -55.40625 C -11.90625 -53.226562 -11.90625 -50.816406 -11.59375 -48.171875 C -11.070312 -43.328125 -9.71875 -38.203125 -7.53125 -32.796875 C -5.570312 -28.003906 -3.429688 -23.984375 -1.109375 -20.734375 C -0.828125 -20.335938 -0.519531 -19.972656 -0.1875 -19.640625 Z M -0.1875 -19.640625 " class="oGdQKqXa_28"></path></g></g></g><g fill="#000000" fill-opacity="1"><g transform="translate(442.127127, 974.932387)"><g><path d="M 8.390625 -1.4375 C 6.660156 -1.269531 4.863281 -2.144531 3 -4.0625 C 2.414062 -4.726562 1.867188 -5.421875 1.359375 -6.140625 C 0.285156 -7.628906 -0.566406 -9.375 -1.203125 -11.375 C -2.085938 -14 -1.789062 -16.128906 -0.3125 -17.765625 C -0.03125 -18.054688 0.269531 -18.320312 0.59375 -18.5625 C 2.03125 -19.582031 3.820312 -19.832031 5.96875 -19.3125 C 7.21875 -18.925781 8.304688 -18.082031 9.234375 -16.78125 C 9.742188 -16.0625 10.203125 -15.207031 10.609375 -14.21875 C 11.816406 -11.445312 12.273438 -8.820312 11.984375 -6.34375 C 11.835938 -5.15625 11.367188 -4.09375 10.578125 -3.15625 C 10.191406 -2.570312 9.804688 -2.144531 9.421875 -1.875 C 9.097656 -1.644531 8.753906 -1.5 8.390625 -1.4375 Z M -18.359375 -47.328125 C -20.109375 -47.160156 -21.910156 -48.035156 -23.765625 -49.953125 C -24.304688 -50.546875 -24.832031 -51.203125 -25.34375 -51.921875 C -26.457031 -53.484375 -27.367188 -55.242188 -28.078125 -57.203125 C -28.890625 -59.847656 -28.554688 -62 -27.078125 -63.65625 C -26.804688 -63.957031 -26.507812 -64.222656 -26.1875 -64.453125 C -24.757812 -65.472656 -22.945312 -65.6875 -20.75 -65.09375 C -19.488281 -64.707031 -18.394531 -63.863281 -17.46875 -62.5625 C -16.957031 -61.851562 -16.5 -61.003906 -16.09375 -60.015625 C -14.875 -57.234375 -14.4375 -54.640625 -14.78125 -52.234375 C -14.925781 -51.054688 -15.367188 -49.957031 -16.109375 -48.9375 C -16.546875 -48.4375 -16.957031 -48.046875 -17.34375 -47.765625 C -17.664062 -47.535156 -18.003906 -47.390625 -18.359375 -47.328125 Z M -18.359375 -47.328125 " class="oGdQKqXa_29"></path></g></g></g><g fill="#000000" fill-opacity="1"><g transform="translate(464.174693, 959.165743)"><g><path d="M -13.515625 -79.53125 C -12.285156 -79.039062 -11.21875 -78.773438 -10.3125 -78.734375 C -9.445312 -78.765625 -8.773438 -79.003906 -8.296875 -79.453125 C -7.953125 -79.796875 -7.375 -80.007812 -6.5625 -80.09375 C -5.738281 -80.1875 -4.910156 -80.140625 -4.078125 -79.953125 C -2.878906 -79.628906 -2.023438 -79.113281 -1.515625 -78.40625 L -1.375 -78.203125 C -0.925781 -77.453125 -0.144531 -75.066406 0.96875 -71.046875 C 2.164062 -66.878906 3.414062 -62.164062 4.71875 -56.90625 C 6.03125 -51.644531 7.289062 -46.304688 8.5 -40.890625 C 9.363281 -37.359375 10.132812 -33.875 10.8125 -30.4375 C 11.625 -26.976562 12.289062 -23.71875 12.8125 -20.65625 C 13.96875 -14.894531 14.851562 -10.078125 15.46875 -6.203125 C 16.03125 -2.378906 16.175781 -0.316406 15.90625 -0.015625 L 15.8125 0.046875 C 15.632812 0.0664062 15.410156 0.03125 15.140625 -0.0625 C 14.765625 -0.1875 14.40625 -0.414062 14.0625 -0.75 C 13.53125 -1.351562 12.820312 -2.476562 11.9375 -4.125 C 11.132812 -5.800781 10.207031 -7.789062 9.15625 -10.09375 C 7.34375 -14.40625 5.445312 -19.390625 3.46875 -25.046875 C 1.382812 -30.722656 -0.226562 -35.804688 -1.375 -40.296875 C -1.8125 -42.140625 -2.269531 -43.734375 -2.75 -45.078125 C -3.257812 -46.484375 -3.601562 -47.171875 -3.78125 -47.140625 C -3.957031 -47.109375 -4.328125 -46.742188 -4.890625 -46.046875 C -5.515625 -45.398438 -6.144531 -44.554688 -6.78125 -43.515625 C -8.457031 -41.046875 -10.3125 -39.234375 -12.34375 -38.078125 C -14.289062 -36.960938 -16.4375 -36.453125 -18.78125 -36.546875 C -20.53125 -36.671875 -21.820312 -36.976562 -22.65625 -37.46875 C -23.570312 -37.90625 -24.796875 -38.992188 -26.328125 -40.734375 L -27.90625 -42.5625 C -29.257812 -44.445312 -30.28125 -46.617188 -30.96875 -49.078125 C -31.875 -52.253906 -32.207031 -56.09375 -31.96875 -60.59375 C -31.800781 -64.0625 -31.195312 -67.195312 -30.15625 -70 C -29.125 -72.707031 -27.8125 -74.925781 -26.21875 -76.65625 C -25.613281 -77.195312 -24.988281 -77.703125 -24.34375 -78.171875 C -23.144531 -79.109375 -21.832031 -79.738281 -20.40625 -80.0625 C -18.238281 -80.644531 -15.941406 -80.46875 -13.515625 -79.53125 Z M -18.34375 -46.453125 C -17.4375 -46.316406 -16.691406 -46.457031 -16.109375 -46.875 C -15.910156 -47.007812 -15.707031 -47.203125 -15.5 -47.453125 C -14.851562 -48.210938 -13.945312 -50.238281 -12.78125 -53.53125 C -11.539062 -56.882812 -10.707031 -60.675781 -10.28125 -64.90625 C -9.945312 -68.96875 -10.15625 -71.519531 -10.90625 -72.5625 L -11.03125 -72.75 C -12.039062 -73.90625 -13.382812 -74.472656 -15.0625 -74.453125 C -16.414062 -74.566406 -17.613281 -74.253906 -18.65625 -73.515625 C -18.84375 -73.378906 -19.015625 -73.207031 -19.171875 -73 C -20.316406 -71.988281 -21.207031 -70.414062 -21.84375 -68.28125 C -22.488281 -66.15625 -22.859375 -63.925781 -22.953125 -61.59375 C -23.253906 -58.03125 -22.976562 -54.6875 -22.125 -51.5625 C -21.738281 -50.0625 -21.242188 -48.890625 -20.640625 -48.046875 C -19.992188 -47.140625 -19.226562 -46.609375 -18.34375 -46.453125 Z M -18.34375 -46.453125 " class="oGdQKqXa_30"></path></g></g></g><path stroke-linecap="butt" transform="matrix(0, 0.75, -0.75, 0, 557.795418, 496.532865)" fill="none" stroke-linejoin="miter" d="M -0.0021532 5.998058 L 12.419723 5.998058 " stroke="#000000" stroke-width="12" stroke-opacity="1" stroke-miterlimit="4" class="oGdQKqXa_31"></path><path stroke-linecap="butt" transform="matrix(0, 0.75, -0.75, 0, 562.295417, 496.532865)" fill="none" stroke-linejoin="miter" d="M -0.0021532 5.998057 L 12.419723 5.998057 " stroke="#000000" stroke-width="12" stroke-opacity="1" stroke-miterlimit="4" class="oGdQKqXa_32"></path><path stroke-linecap="butt" transform="matrix(0.607117, -0.440351, 0.440351, 0.607117, -195.151254, 1491.169651)" fill="none" stroke-linejoin="miter" d="M 0.00193956 1.999642 L 1198.308311 1.999459 " stroke="#000000" stroke-width="4" stroke-opacity="1" stroke-miterlimit="4" class="oGdQKqXa_33"></path><path stroke-linecap="butt" transform="matrix(0.595941, -0.455361, 0.455361, 0.595941, -168.558908, 1501.353474)" fill="none" stroke-linejoin="miter" d="M -0.00149732 2.001405 L 1180.10435 2.000994 " stroke="#000000" stroke-width="4" stroke-opacity="1" stroke-miterlimit="4" class="oGdQKqXa_34"></path><path stroke-linecap="butt" transform="matrix(0.607216, -0.440214, 0.440214, 0.607216, -37.133273, 1379.766652)" fill="none" stroke-linejoin="miter" d="M -0.0026902 6.500171 L 419.476437 6.501182 " stroke="#000000" stroke-width="13" stroke-opacity="1" stroke-miterlimit="4" class="oGdQKqXa_35"></path><path stroke-linecap="butt" transform="matrix(0.592819, -0.459419, 0.459419, 0.592819, -47.99123, 1400.755634)" fill="none" stroke-linejoin="miter" d="M 0.000815676 6.501339 L 407.885063 6.500001 " stroke="#000000" stroke-width="13" stroke-opacity="1" stroke-miterlimit="4" class="oGdQKqXa_36"></path><path stroke-linecap="butt" transform="matrix(0.600654, -0.449126, 0.449126, 0.600654, 209.363043, 1201.269476)" fill="none" stroke-linejoin="miter" d="M 0.000292483 6.497132 L 237.453695 6.500453 " stroke="#000000" stroke-width="13" stroke-opacity="1" stroke-miterlimit="4" class="oGdQKqXa_37"></path><path stroke-linecap="butt" transform="matrix(0.600654, -0.449126, 0.449126, 0.600654, 339.68155, 1110.038548)" fill="none" stroke-linejoin="miter" d="M -0.00125405 1.502187 L 237.455268 1.501337 " stroke="#000000" stroke-width="3" stroke-opacity="1" stroke-miterlimit="4" class="oGdQKqXa_38"></path><path stroke-linecap="butt" transform="matrix(0.604097, -0.444485, 0.444485, 0.604097, 353.578377, 1096.712573)" fill="none" stroke-linejoin="miter" d="M 0.00227066 1.499138 L 212.007 1.496868 " stroke="#000000" stroke-width="3" stroke-opacity="1" stroke-miterlimit="4" class="oGdQKqXa_39"></path><path stroke-linecap="butt" transform="matrix(0.598265, -0.452304, 0.452304, 0.598265, 326.400868, 1119.046635)" fill="none" stroke-linejoin="miter" d="M -0.00230396 1.500397 L 112.302707 1.498869 " stroke="#000000" stroke-width="3" stroke-opacity="1" stroke-miterlimit="4" class="oGdQKqXa_40"></path><path stroke-linecap="butt" transform="matrix(0.598265, -0.452304, 0.452304, 0.598265, 435.603004, 1037.049034)" fill="none" stroke-linejoin="miter" d="M 0.000676914 1.498641 L 112.302547 1.501267 " stroke="#000000" stroke-width="3" stroke-opacity="1" stroke-miterlimit="4" class="oGdQKqXa_41"></path><style data-made-with="vivus-instant">.oGdQKqXa_0{stroke-dasharray:66 68;stroke-dashoffset:67;animation:oGdQKqXa_draw 2000ms linear 0ms forwards;}.oGdQKqXa_1{stroke-dasharray:52 54;stroke-dashoffset:53;animation:oGdQKqXa_draw 2000ms linear 24ms forwards;}.oGdQKqXa_2{stroke-dasharray:69 71;stroke-dashoffset:70;animation:oGdQKqXa_draw 2000ms linear 48ms forwards;}.oGdQKqXa_3{stroke-dasharray:41 43;stroke-dashoffset:42;animation:oGdQKqXa_draw 2000ms linear 73ms forwards;}.oGdQKqXa_4{stroke-dasharray:13 15;stroke-dashoffset:14;animation:oGdQKqXa_draw 2000ms linear 97ms forwards;}.oGdQKqXa_5{stroke-dasharray:13 15;stroke-dashoffset:14;animation:oGdQKqXa_draw 2000ms linear 121ms forwards;}.oGdQKqXa_6{stroke-dasharray:1263 1265;stroke-dashoffset:1264;animation:oGdQKqXa_draw 2000ms linear 146ms forwards;}.oGdQKqXa_7{stroke-dasharray:347 349;stroke-dashoffset:348;animation:oGdQKqXa_draw 2000ms linear 170ms forwards;}.oGdQKqXa_8{stroke-dasharray:347 349;stroke-dashoffset:348;animation:oGdQKqXa_draw 2000ms linear 195ms forwards;}.oGdQKqXa_9{stroke-dasharray:120 122;stroke-dashoffset:121;animation:oGdQKqXa_draw 2000ms linear 219ms forwards;}.oGdQKqXa_10{stroke-dasharray:444 446;stroke-dashoffset:445;animation:oGdQKqXa_draw 2000ms linear 243ms forwards;}.oGdQKqXa_11{stroke-dasharray:120 122;stroke-dashoffset:121;animation:oGdQKqXa_draw 2000ms linear 268ms forwards;}.oGdQKqXa_12{stroke-dasharray:444 446;stroke-dashoffset:445;animation:oGdQKqXa_draw 2000ms linear 292ms forwards;}.oGdQKqXa_13{stroke-dasharray:1199 1201;stroke-dashoffset:1200;animation:oGdQKqXa_draw 2000ms linear 317ms forwards;}.oGdQKqXa_14{stroke-dasharray:1181 1183;stroke-dashoffset:1182;animation:oGdQKqXa_draw 2000ms linear 341ms forwards;}.oGdQKqXa_15{stroke-dasharray:633 635;stroke-dashoffset:634;animation:oGdQKqXa_draw 2000ms linear 365ms forwards;}.oGdQKqXa_16{stroke-dasharray:609 611;stroke-dashoffset:610;animation:oGdQKqXa_draw 2000ms linear 390ms forwards;}.oGdQKqXa_17{stroke-dasharray:238 240;stroke-dashoffset:239;animation:oGdQKqXa_draw 2000ms linear 414ms forwards;}.oGdQKqXa_18{stroke-dasharray:238 240;stroke-dashoffset:239;animation:oGdQKqXa_draw 2000ms linear 439ms forwards;}.oGdQKqXa_19{stroke-dasharray:213 215;stroke-dashoffset:214;animation:oGdQKqXa_draw 2000ms linear 463ms forwards;}.oGdQKqXa_20{stroke-dasharray:113 115;stroke-dashoffset:114;animation:oGdQKqXa_draw 2000ms linear 487ms forwards;}.oGdQKqXa_21{stroke-dasharray:113 115;stroke-dashoffset:114;animation:oGdQKqXa_draw 2000ms linear 512ms forwards;}.oGdQKqXa_22{stroke-dasharray:290 292;stroke-dashoffset:291;animation:oGdQKqXa_draw 2000ms linear 536ms forwards;}.oGdQKqXa_23{stroke-dasharray:432 434;stroke-dashoffset:433;animation:oGdQKqXa_draw 2000ms linear 560ms forwards;}.oGdQKqXa_24{stroke-dasharray:223 225;stroke-dashoffset:224;animation:oGdQKqXa_draw 2000ms linear 585ms forwards;}.oGdQKqXa_25{stroke-dasharray:432 434;stroke-dashoffset:433;animation:oGdQKqXa_draw 2000ms linear 609ms forwards;}.oGdQKqXa_26{stroke-dasharray:223 225;stroke-dashoffset:224;animation:oGdQKqXa_draw 2000ms linear 634ms forwards;}.oGdQKqXa_27{stroke-dasharray:197 199;stroke-dashoffset:198;animation:oGdQKqXa_draw 2000ms linear 658ms forwards;}.oGdQKqXa_28{stroke-dasharray:279 281;stroke-dashoffset:280;animation:oGdQKqXa_draw 2000ms linear 682ms forwards;}.oGdQKqXa_29{stroke-dasharray:100 102;stroke-dashoffset:101;animation:oGdQKqXa_draw 2000ms linear 707ms forwards;}.oGdQKqXa_30{stroke-dasharray:294 296;stroke-dashoffset:295;animation:oGdQKqXa_draw 2000ms linear 731ms forwards;}.oGdQKqXa_31{stroke-dasharray:13 15;stroke-dashoffset:14;animation:oGdQKqXa_draw 2000ms linear 756ms forwards;}.oGdQKqXa_32{stroke-dasharray:13 15;stroke-dashoffset:14;animation:oGdQKqXa_draw 2000ms linear 780ms forwards;}.oGdQKqXa_33{stroke-dasharray:1199 1201;stroke-dashoffset:1200;animation:oGdQKqXa_draw 2000ms linear 804ms forwards;}.oGdQKqXa_34{stroke-dasharray:1181 1183;stroke-dashoffset:1182;animation:oGdQKqXa_draw 2000ms linear 829ms forwards;}.oGdQKqXa_35{stroke-dasharray:420 422;stroke-dashoffset:421;animation:oGdQKqXa_draw 2000ms linear 853ms forwards;}.oGdQKqXa_36{stroke-dasharray:408 410;stroke-dashoffset:409;animation:oGdQKqXa_draw 2000ms linear 878ms forwards;}.oGdQKqXa_37{stroke-dasharray:238 240;stroke-dashoffset:239;animation:oGdQKqXa_draw 2000ms linear 902ms forwards;}.oGdQKqXa_38{stroke-dasharray:238 240;stroke-dashoffset:239;animation:oGdQKqXa_draw 2000ms linear 926ms forwards;}.oGdQKqXa_39{stroke-dasharray:213 215;stroke-dashoffset:214;animation:oGdQKqXa_draw 2000ms linear 951ms forwards;}.oGdQKqXa_40{stroke-dasharray:113 115;stroke-dashoffset:114;animation:oGdQKqXa_draw 2000ms linear 975ms forwards;}.oGdQKqXa_41{stroke-dasharray:113 115;stroke-dashoffset:114;animation:oGdQKqXa_draw 2000ms linear 1000ms forwards;}@keyframes oGdQKqXa_draw{100%{stroke-dashoffset:0;}}@keyframes oGdQKqXa_fade{0%{stroke-opacity:1;}94.44444444444444%{stroke-opacity:1;}100%{stroke-opacity:0;}}</style></svg>