<svg xmlns="http://www.w3.org/2000/svg" xmlns:xlink="http://www.w3.org/1999/xlink" width="1080" zoomAndPan="magnify" viewBox="0 0 810 1439.999935" height="1920" preserveAspectRatio="xMidYMid meet" version="1.0" style=""><defs><clipPath id="4baa194bea"><path d="M 547.296875 492.996094 L 563.667969 492.996094 L 563.667969 509.367188 L 547.296875 509.367188 Z M 547.296875 492.996094 " clip-rule="nonzero" class="qyCCkwxm_0"></path></clipPath><clipPath id="1a6fd4e010"><path d="M 555.480469 492.996094 C 550.960938 492.996094 547.296875 496.660156 547.296875 501.179688 C 547.296875 505.703125 550.960938 509.367188 555.480469 509.367188 C 560 509.367188 563.667969 505.703125 563.667969 501.179688 C 563.667969 496.660156 560 492.996094 555.480469 492.996094 Z M 555.480469 492.996094 " clip-rule="nonzero" class="qyCCkwxm_1"></path></clipPath></defs><g clip-path="url(#4baa194bea)"><g clip-path="url(#1a6fd4e010)"><path stroke-linecap="butt" transform="matrix(0.75, 0, 0, 0.75, 547.295011, 492.995745)" fill="none" stroke-linejoin="miter" d="M 10.913945 0.000464726 C 4.887903 0.000464726 0.00248564 4.885882 0.00248564 10.911924 C 0.00248564 16.943175 4.887903 21.828592 10.913945 21.828592 C 16.939987 21.828592 21.830613 16.943175 21.830613 10.911924 C 21.830613 4.885882 16.939987 0.000464726 10.913945 0.000464726 Z M 10.913945 0.000464726 " stroke="#000000" stroke-width="38" stroke-opacity="1" stroke-miterlimit="4" class="qyCCkwxm_2"></path></g></g><path stroke-linecap="butt" transform="matrix(0, -0.75, 0.75, 0, 550.984362, 524.829654)" fill="none" stroke-linejoin="miter" d="M 0.00203926 6.000017 L 40.330168 6.000017 " stroke="#000000" stroke-width="12" stroke-opacity="1" stroke-miterlimit="4" class="qyCCkwxm_3"></path><path stroke-linecap="butt" transform="matrix(0, -0.75, 0.75, 0, 529.116188, 966.210544)" fill="none" stroke-linejoin="miter" d="M -0.000524497 5.501333 L 1262.692293 5.501333 " stroke="#000000" stroke-width="11" stroke-opacity="1" stroke-miterlimit="4" class="qyCCkwxm_4"></path><path stroke-linecap="butt" transform="matrix(0.75, 0, 0, 0.75, 529.141604, 19.19569)" fill="none" stroke-linejoin="miter" d="M -0.0013058 1.999497 L 346.743516 1.999497 " stroke="#000000" stroke-width="4" stroke-opacity="1" stroke-miterlimit="4" class="qyCCkwxm_5"></path><path stroke-linecap="butt" transform="matrix(0.75, 0, 0, 0.75, 529.141604, 963.209896)" fill="none" stroke-linejoin="miter" d="M -0.0013058 2.001388 L 346.743516 2.001388 " stroke="#000000" stroke-width="4" stroke-opacity="1" stroke-miterlimit="4" class="qyCCkwxm_6"></path><path stroke-linecap="butt" transform="matrix(0, -0.75, 0.75, 0, 788.82451, 108.536793)" fill="none" stroke-linejoin="miter" d="M 0.0021823 0.499612 L 119.127193 0.499612 " stroke="#000000" stroke-width="1" stroke-opacity="1" stroke-miterlimit="4" class="qyCCkwxm_7"></path><path stroke-linecap="butt" transform="matrix(0, -0.75, 0.75, 0, 788.822878, 474.503747)" fill="none" stroke-linejoin="miter" d="M -0.000212586 0.501788 L 443.380034 0.501788 " stroke="#000000" stroke-width="1" stroke-opacity="1" stroke-miterlimit="4" class="qyCCkwxm_8"></path><path stroke-linecap="butt" transform="matrix(-0.000272438, -0.75, 0.75, -0.000272438, 788.851462, 966.205624)" fill="none" stroke-linejoin="miter" d="M -0.00205784 0.500134 L 119.12296 0.501739 " stroke="#000000" stroke-width="1" stroke-opacity="1" stroke-miterlimit="4" class="qyCCkwxm_9"></path><path stroke-linecap="butt" transform="matrix(0, -0.75, 0.75, 0, 788.823238, 841.907475)" fill="none" stroke-linejoin="miter" d="M 0.00163322 0.501308 L 443.376672 0.501308 " stroke="#000000" stroke-width="1" stroke-opacity="1" stroke-miterlimit="4" class="qyCCkwxm_10"></path><path stroke-linecap="butt" transform="matrix(0, 0.75, -0.75, 0, 557.795418, 496.532865)" fill="none" stroke-linejoin="miter" d="M -0.0021532 5.998058 L 12.419723 5.998058 " stroke="#000000" stroke-width="12" stroke-opacity="1" stroke-miterlimit="4" class="qyCCkwxm_11"></path><path stroke-linecap="butt" transform="matrix(0, 0.75, -0.75, 0, 562.295417, 496.532865)" fill="none" stroke-linejoin="miter" d="M -0.0021532 5.998057 L 12.419723 5.998057 " stroke="#000000" stroke-width="12" stroke-opacity="1" stroke-miterlimit="4" class="qyCCkwxm_12"></path><path stroke-linecap="butt" transform="matrix(0.607117, -0.440351, 0.440351, 0.607117, -195.151254, 1491.169651)" fill="none" stroke-linejoin="miter" d="M 0.00193956 1.999642 L 1198.308311 1.999459 " stroke="#000000" stroke-width="4" stroke-opacity="1" stroke-miterlimit="4" class="qyCCkwxm_13"></path><path stroke-linecap="butt" transform="matrix(0.595941, -0.455361, 0.455361, 0.595941, -168.558908, 1501.353474)" fill="none" stroke-linejoin="miter" d="M -0.00149732 2.001405 L 1180.10435 2.000994 " stroke="#000000" stroke-width="4" stroke-opacity="1" stroke-miterlimit="4" class="qyCCkwxm_14"></path><path stroke-linecap="butt" transform="matrix(0.613101, -0.431981, 0.431981, 0.613101, -170.433044, 1468.494813)" fill="none" stroke-linejoin="miter" d="M -0.000198676 6.500676 L 632.957191 6.499857 " stroke="#000000" stroke-width="13" stroke-opacity="1" stroke-miterlimit="4" class="qyCCkwxm_15"></path><path stroke-linecap="butt" transform="matrix(0.598539, -0.451941, 0.451941, 0.598539, -170.56315, 1488.494371)" fill="none" stroke-linejoin="miter" d="M -0.000916704 6.502389 L 608.853366 6.499832 " stroke="#000000" stroke-width="13" stroke-opacity="1" stroke-miterlimit="4" class="qyCCkwxm_16"></path><path stroke-linecap="butt" transform="matrix(0.600654, -0.449126, 0.449126, 0.600654, 209.363043, 1201.269476)" fill="none" stroke-linejoin="miter" d="M 0.000292483 6.497132 L 237.453695 6.500453 " stroke="#000000" stroke-width="13" stroke-opacity="1" stroke-miterlimit="4" class="qyCCkwxm_17"></path><path stroke-linecap="butt" transform="matrix(0.600654, -0.449126, 0.449126, 0.600654, 339.68155, 1110.038548)" fill="none" stroke-linejoin="miter" d="M -0.00125405 1.502187 L 237.455268 1.501337 " stroke="#000000" stroke-width="3" stroke-opacity="1" stroke-miterlimit="4" class="qyCCkwxm_18"></path><path stroke-linecap="butt" transform="matrix(0.604097, -0.444485, 0.444485, 0.604097, 353.578377, 1096.712573)" fill="none" stroke-linejoin="miter" d="M 0.00227066 1.499138 L 212.007 1.496868 " stroke="#000000" stroke-width="3" stroke-opacity="1" stroke-miterlimit="4" class="qyCCkwxm_19"></path><path stroke-linecap="butt" transform="matrix(0.598265, -0.452304, 0.452304, 0.598265, 326.400868, 1119.046635)" fill="none" stroke-linejoin="miter" d="M -0.00230396 1.500397 L 112.302707 1.498869 " stroke="#000000" stroke-width="3" stroke-opacity="1" stroke-miterlimit="4" class="qyCCkwxm_20"></path><path stroke-linecap="butt" transform="matrix(0.598265, -0.452304, 0.452304, 0.598265, 435.603004, 1037.049034)" fill="none" stroke-linejoin="miter" d="M 0.000676914 1.498641 L 112.302547 1.501267 " stroke="#000000" stroke-width="3" stroke-opacity="1" stroke-miterlimit="4" class="qyCCkwxm_21"></path><path stroke-linecap="butt" transform="matrix(0.630008, -0.406927, 0.406927, 0.630008, -170.270693, 1468.383261)" fill="none" stroke-linejoin="miter" d="M 0.00201573 6.498522 L 289.184408 6.49903 " stroke="#000000" stroke-width="13" stroke-opacity="1" stroke-miterlimit="4" class="qyCCkwxm_22"></path><style data-made-with="vivus-instant">.qyCCkwxm_0{stroke-dasharray:66 68;stroke-dashoffset:67;animation:qyCCkwxm_draw 2000ms linear 0ms forwards;}.qyCCkwxm_1{stroke-dasharray:52 54;stroke-dashoffset:53;animation:qyCCkwxm_draw 2000ms linear 45ms forwards;}.qyCCkwxm_2{stroke-dasharray:69 71;stroke-dashoffset:70;animation:qyCCkwxm_draw 2000ms linear 90ms forwards;}.qyCCkwxm_3{stroke-dasharray:41 43;stroke-dashoffset:42;animation:qyCCkwxm_draw 2000ms linear 136ms forwards;}.qyCCkwxm_4{stroke-dasharray:1263 1265;stroke-dashoffset:1264;animation:qyCCkwxm_draw 2000ms linear 181ms forwards;}.qyCCkwxm_5{stroke-dasharray:347 349;stroke-dashoffset:348;animation:qyCCkwxm_draw 2000ms linear 227ms forwards;}.qyCCkwxm_6{stroke-dasharray:347 349;stroke-dashoffset:348;animation:qyCCkwxm_draw 2000ms linear 272ms forwards;}.qyCCkwxm_7{stroke-dasharray:120 122;stroke-dashoffset:121;animation:qyCCkwxm_draw 2000ms linear 318ms forwards;}.qyCCkwxm_8{stroke-dasharray:444 446;stroke-dashoffset:445;animation:qyCCkwxm_draw 2000ms linear 363ms forwards;}.qyCCkwxm_9{stroke-dasharray:120 122;stroke-dashoffset:121;animation:qyCCkwxm_draw 2000ms linear 409ms forwards;}.qyCCkwxm_10{stroke-dasharray:444 446;stroke-dashoffset:445;animation:qyCCkwxm_draw 2000ms linear 454ms forwards;}.qyCCkwxm_11{stroke-dasharray:13 15;stroke-dashoffset:14;animation:qyCCkwxm_draw 2000ms linear 500ms forwards;}.qyCCkwxm_12{stroke-dasharray:13 15;stroke-dashoffset:14;animation:qyCCkwxm_draw 2000ms linear 545ms forwards;}.qyCCkwxm_13{stroke-dasharray:1199 1201;stroke-dashoffset:1200;animation:qyCCkwxm_draw 2000ms linear 590ms forwards;}.qyCCkwxm_14{stroke-dasharray:1181 1183;stroke-dashoffset:1182;animation:qyCCkwxm_draw 2000ms linear 636ms forwards;}.qyCCkwxm_15{stroke-dasharray:633 635;stroke-dashoffset:634;animation:qyCCkwxm_draw 2000ms linear 681ms forwards;}.qyCCkwxm_16{stroke-dasharray:609 611;stroke-dashoffset:610;animation:qyCCkwxm_draw 2000ms linear 727ms forwards;}.qyCCkwxm_17{stroke-dasharray:238 240;stroke-dashoffset:239;animation:qyCCkwxm_draw 2000ms linear 772ms forwards;}.qyCCkwxm_18{stroke-dasharray:238 240;stroke-dashoffset:239;animation:qyCCkwxm_draw 2000ms linear 818ms forwards;}.qyCCkwxm_19{stroke-dasharray:213 215;stroke-dashoffset:214;animation:qyCCkwxm_draw 2000ms linear 863ms forwards;}.qyCCkwxm_20{stroke-dasharray:113 115;stroke-dashoffset:114;animation:qyCCkwxm_draw 2000ms linear 909ms forwards;}.qyCCkwxm_21{stroke-dasharray:113 115;stroke-dashoffset:114;animation:qyCCkwxm_draw 2000ms linear 954ms forwards;}.qyCCkwxm_22{stroke-dasharray:290 292;stroke-dashoffset:291;animation:qyCCkwxm_draw 2000ms linear 1000ms forwards;}@keyframes qyCCkwxm_draw{100%{stroke-dashoffset:0;}}@keyframes qyCCkwxm_fade{0%{stroke-opacity:1;}94.44444444444444%{stroke-opacity:1;}100%{stroke-opacity:0;}}</style></svg>