<?xml version="1.0" encoding="UTF-8" standalone="no"?>
<svg
   width="338"
   zoomAndPan="magnify"
   viewBox="0 0 253.5 449.999984"
   height="600"
   preserveAspectRatio="xMidYMid meet"
   version="1.0"
   id="svg72"
   sodipodi:docname="rock.svg"
   inkscape:version="1.4 (86a8ad7, 2024-10-11)"
   xmlns:inkscape="http://www.inkscape.org/namespaces/inkscape"
   xmlns:sodipodi="http://sodipodi.sourceforge.net/DTD/sodipodi-0.dtd"
   xmlns="http://www.w3.org/2000/svg"
   xmlns:svg="http://www.w3.org/2000/svg">
  <sodipodi:namedview
     id="namedview72"
     pagecolor="#505050"
     bordercolor="#ffffff"
     borderopacity="1"
     inkscape:showpageshadow="0"
     inkscape:pageopacity="0"
     inkscape:pagecheckerboard="1"
     inkscape:deskcolor="#505050"
     inkscape:zoom="1.94"
     inkscape:cx="192.78351"
     inkscape:cy="242.78351"
     inkscape:window-width="1920"
     inkscape:window-height="991"
     inkscape:window-x="-9"
     inkscape:window-y="-9"
     inkscape:window-maximized="1"
     inkscape:current-layer="svg72" />
  <defs
     id="defs36">
    <clipPath
       id="c4c464d032">
      <path
         d="M 35 176 L 99 176 L 99 245 L 35 245 Z M 35 176 "
         clip-rule="nonzero"
         id="path1" />
    </clipPath>
    <clipPath
       id="6655cb3764">
      <path
         d="M 33.910156 151.441406 L 121.125 165.410156 L 107.75 248.929688 L 20.535156 234.960938 Z M 33.910156 151.441406 "
         clip-rule="nonzero"
         id="path2" />
    </clipPath>
    <clipPath
       id="b6983eecf9">
      <path
         d="M 41.976562 170.910156 L 107.40625 181.390625 L 96.707031 248.179688 L 31.28125 237.699219 Z M 41.976562 170.910156 "
         clip-rule="nonzero"
         id="path3" />
    </clipPath>
    <clipPath
       id="26093c8467">
      <path
         d="M 87.226562 187.542969 L 98.042969 220.003906 C 100.097656 226.175781 98.78125 232.976562 94.570312 237.933594 C 90.359375 242.894531 83.867188 245.292969 77.441406 244.265625 L 50.804688 240 C 44.382812 238.972656 38.960938 234.664062 36.507812 228.636719 C 34.058594 222.609375 34.929688 215.738281 38.8125 210.519531 L 59.222656 183.058594 C 62.777344 178.273438 68.699219 175.863281 74.585938 176.808594 C 80.472656 177.75 85.34375 181.886719 87.226562 187.542969 Z M 87.226562 187.542969 "
         clip-rule="nonzero"
         id="path4" />
    </clipPath>
    <clipPath
       id="e44d976f72">
      <path
         d="M 30 188 L 105 188 L 105 238 L 30 238 Z M 30 188 "
         clip-rule="nonzero"
         id="path5" />
    </clipPath>
    <clipPath
       id="327a334f47">
      <path
         d="M 31.457031 187.609375 L 106.738281 194.53125 L 102.695312 238.507812 L 27.414062 231.589844 Z M 31.457031 187.609375 "
         clip-rule="nonzero"
         id="path6" />
    </clipPath>
    <clipPath
       id="11312ac229">
      <path
         d="M 33.816406 187.828125 L 104.667969 194.339844 L 100.542969 239.210938 L 29.691406 232.699219 Z M 33.816406 187.828125 "
         clip-rule="nonzero"
         id="path7" />
    </clipPath>
    <clipPath
       id="9fac2bf031">
      <path
         d="M 99.578125 193.871094 L 38.910156 188.296875 C 37.257812 188.144531 35.644531 188.832031 34.609375 190.128906 C 33.578125 191.421875 33.265625 193.152344 33.777344 194.726562 L 36.566406 203.265625 C 38.050781 207.808594 37.59375 212.757812 35.308594 216.953125 L 31.011719 224.839844 C 30.21875 226.296875 30.210938 228.050781 30.988281 229.515625 C 31.769531 230.976562 33.234375 231.945312 34.882812 232.097656 L 95.550781 237.675781 C 97.199219 237.828125 98.816406 237.136719 99.847656 235.84375 C 100.882812 234.546875 101.195312 232.820312 100.679688 231.246094 L 97.894531 222.707031 C 96.410156 218.164062 96.867188 213.214844 99.152344 209.019531 L 103.449219 201.128906 C 104.242188 199.675781 104.25 197.917969 103.46875 196.457031 C 102.691406 194.996094 101.226562 194.023438 99.578125 193.871094 Z M 99.578125 193.871094 "
         clip-rule="nonzero"
         id="path8" />
    </clipPath>
    <clipPath
       id="198d26d70a">
      <path
         d="M 92.058594 164.519531 L 167.660156 164.519531 L 167.660156 240.121094 L 92.058594 240.121094 Z M 92.058594 164.519531 "
         clip-rule="nonzero"
         id="path9" />
    </clipPath>
    <clipPath
       id="40a7daa4c6">
      <path
         d="M 130.003906 164.519531 C 109.046875 164.519531 92.058594 181.511719 92.058594 202.46875 C 92.058594 223.425781 109.046875 240.414062 130.003906 240.414062 C 150.964844 240.414062 167.953125 223.425781 167.953125 202.46875 C 167.953125 181.511719 150.964844 164.519531 130.003906 164.519531 Z M 130.003906 164.519531 "
         clip-rule="nonzero"
         id="path10" />
    </clipPath>
    <clipPath
       id="b4fd0a8a18">
      <path
         d="M 67 111 L 165 111 L 165 199 L 67 199 Z M 67 111 "
         clip-rule="nonzero"
         id="path11" />
    </clipPath>
    <clipPath
       id="8e2d88ff0b">
      <path
         d="M 58.847656 91.234375 L 182.191406 97.589844 L 176.917969 200 L 53.574219 193.648438 Z M 58.847656 91.234375 "
         clip-rule="nonzero"
         id="path12" />
    </clipPath>
    <clipPath
       id="1177f095c8">
      <path
         d="M 70.410156 108.417969 L 169.667969 113.53125 L 165.195312 200.382812 L 65.933594 195.269531 Z M 70.410156 108.417969 "
         clip-rule="nonzero"
         id="path13" />
    </clipPath>
    <clipPath
       id="ee45e77c2a">
      <path
         d="M 135.15625 121.488281 L 162.789062 173.210938 C 165.734375 178.722656 165.484375 185.398438 162.132812 190.675781 C 158.78125 195.953125 152.847656 199.019531 146.605469 198.695312 L 84.210938 195.484375 C 77.96875 195.160156 72.378906 191.503906 69.589844 185.910156 C 66.796875 180.3125 67.234375 173.648438 70.730469 168.46875 L 103.53125 119.859375 C 107.15625 114.484375 113.332031 111.402344 119.804688 111.738281 C 126.277344 112.070312 132.101562 115.769531 135.15625 121.488281 Z M 135.15625 121.488281 "
         clip-rule="nonzero"
         id="path14" />
    </clipPath>
    <clipPath
       id="97252fc9ac">
      <path
         d="M 98 145 L 175 145 L 175 234 L 98 234 Z M 98 145 "
         clip-rule="nonzero"
         id="path15" />
    </clipPath>
    <clipPath
       id="68e039619c">
      <path
         d="M 89.957031 154.609375 L 163.878906 138.78125 L 182.214844 224.417969 L 108.289062 240.246094 Z M 89.957031 154.609375 "
         clip-rule="nonzero"
         id="path16" />
    </clipPath>
    <clipPath
       id="613c9c4bb0">
      <path
         d="M 89.957031 154.613281 L 164.167969 138.722656 L 182.539062 224.527344 L 108.328125 240.417969 Z M 89.957031 154.613281 "
         clip-rule="nonzero"
         id="path17" />
    </clipPath>
    <clipPath
       id="42704ea3f8">
      <path
         d="M 127.0625 146.667969 C 106.570312 151.054688 94.066406 173.820312 99.140625 197.511719 C 104.214844 221.207031 124.941406 236.859375 145.433594 232.46875 C 165.925781 228.082031 178.425781 205.316406 173.351562 181.625 C 168.28125 157.929688 147.554688 142.28125 127.0625 146.667969 Z M 127.0625 146.667969 "
         clip-rule="nonzero"
         id="path18" />
    </clipPath>
    <clipPath
       id="453da75789">
      <path
         d="M 48 177 L 104 177 L 104 221 L 48 221 Z M 48 177 "
         clip-rule="nonzero"
         id="path19" />
    </clipPath>
    <clipPath
       id="8f8df51c09">
      <path
         d="M 57.765625 168.90625 L 110.351562 192.5 L 93.808594 229.378906 L 41.222656 205.785156 Z M 57.765625 168.90625 "
         clip-rule="nonzero"
         id="path20" />
    </clipPath>
    <clipPath
       id="dd48a1f07c">
      <path
         d="M 57.769531 168.90625 L 110.777344 192.691406 L 93.789062 230.554688 L 40.78125 206.769531 Z M 57.769531 168.90625 "
         clip-rule="nonzero"
         id="path21" />
    </clipPath>
    <clipPath
       id="651266d887">
      <path
         d="M 83.894531 180.628906 C 69.464844 174.15625 54.074219 177.144531 49.515625 187.304688 C 44.957031 197.464844 52.957031 210.949219 67.386719 217.421875 C 81.816406 223.894531 97.210938 220.90625 101.769531 210.746094 C 106.328125 200.585938 98.324219 187.101562 83.894531 180.628906 Z M 83.894531 180.628906 "
         clip-rule="nonzero"
         id="path22" />
    </clipPath>
    <clipPath
       id="36547eac39">
      <path
         d="M 136 158 L 220 158 L 220 256 L 136 256 Z M 136 158 "
         clip-rule="nonzero"
         id="path23" />
    </clipPath>
    <clipPath
       id="1a753247a2">
      <path
         d="M 135.519531 163.484375 L 213.929688 158.101562 L 220.339844 251.445312 L 141.929688 256.828125 Z M 135.519531 163.484375 "
         clip-rule="nonzero"
         id="path24" />
    </clipPath>
    <clipPath
       id="4f61aefb42">
      <path
         d="M 135.519531 163.484375 L 214.78125 158.042969 L 221.199219 251.5 L 141.9375 256.945312 Z M 135.519531 163.484375 "
         clip-rule="nonzero"
         id="path25" />
    </clipPath>
    <clipPath
       id="1499960f3d">
      <path
         d="M 147.464844 162.664062 L 201.878906 158.929688 C 208.476562 158.476562 214.191406 163.457031 214.644531 170.054688 L 219.394531 239.1875 C 219.847656 245.789062 214.863281 251.503906 208.265625 251.957031 L 153.855469 255.691406 C 147.257812 256.144531 141.539062 251.164062 141.085938 244.566406 L 136.339844 175.433594 C 135.886719 168.835938 140.867188 163.117188 147.464844 162.664062 Z M 147.464844 162.664062 "
         clip-rule="nonzero"
         id="path26" />
    </clipPath>
    <clipPath
       id="3635aa6906">
      <path
         d="M 173.9375 160 L 240 160 L 240 288.144531 L 173.9375 288.144531 Z M 173.9375 160 "
         clip-rule="nonzero"
         id="path27" />
    </clipPath>
    <clipPath
       id="99fff59545">
      <path
         d="M 212.257812 162.996094 L 235.539062 197.8125 C 239.015625 203.011719 240.40625 209.332031 239.429688 215.511719 L 229.4375 278.800781 C 228.566406 284.335938 223.792969 288.410156 218.191406 288.410156 L 195.503906 288.410156 C 189.902344 288.410156 185.132812 284.335938 184.257812 278.800781 L 174.269531 215.511719 C 173.292969 209.332031 174.683594 203.011719 178.160156 197.8125 L 201.441406 162.996094 C 202.648438 161.1875 204.675781 160.105469 206.847656 160.105469 C 209.019531 160.105469 211.050781 161.1875 212.257812 162.996094 Z M 212.257812 162.996094 "
         clip-rule="nonzero"
         id="path28" />
    </clipPath>
    <clipPath
       id="6e06bcc18c">
      <path
         d="M 88 97 L 214 97 L 214 232 L 88 232 Z M 88 97 "
         clip-rule="nonzero"
         id="path29" />
    </clipPath>
    <clipPath
       id="367b5ff179">
      <path
         d="M 79.429688 125.234375 L 181.558594 88.492188 L 222.859375 203.296875 L 120.734375 240.039062 Z M 79.429688 125.234375 "
         clip-rule="nonzero"
         id="path30" />
    </clipPath>
    <clipPath
       id="2aad36d173">
      <path
         d="M 77.914062 124.523438 L 181.691406 87.1875 L 223.84375 204.355469 L 120.066406 241.6875 Z M 77.914062 124.523438 "
         clip-rule="nonzero"
         id="path31" />
    </clipPath>
    <clipPath
       id="39fd178f8d">
      <path
         d="M 109.714844 114.339844 L 151.195312 99.417969 C 167.921875 93.398438 186.359375 102.082031 192.378906 118.808594 L 212.003906 173.359375 C 218.019531 190.085938 209.339844 208.523438 192.613281 214.539062 L 151.132812 229.464844 C 134.40625 235.480469 115.96875 226.800781 109.953125 210.074219 L 90.328125 155.519531 C 84.308594 138.796875 92.988281 120.359375 109.714844 114.339844 Z M 109.714844 114.339844 "
         clip-rule="nonzero"
         id="path32" />
    </clipPath>
    <clipPath
       id="f3a2c0bf3a">
      <path
         d="M 111 88 L 188 88 L 188 125 L 111 125 Z M 111 88 "
         clip-rule="nonzero"
         id="path33" />
    </clipPath>
    <clipPath
       id="d89019daec">
      <path
         d="M 110.03125 91.765625 L 185.410156 85.976562 L 188.164062 121.796875 L 112.785156 127.589844 Z M 110.03125 91.765625 "
         clip-rule="nonzero"
         id="path34" />
    </clipPath>
    <clipPath
       id="d89be40156">
      <path
         d="M 110.035156 91.765625 L 185.699219 85.953125 L 188.515625 122.601562 L 112.851562 128.417969 Z M 110.035156 91.765625 "
         clip-rule="nonzero"
         id="path35" />
    </clipPath>
    <clipPath
       id="ef5fffff2c">
      <path
         d="M 147.867188 88.859375 C 126.972656 90.464844 110.648438 99.761719 111.40625 109.625 C 112.164062 119.488281 129.71875 126.183594 150.613281 124.578125 C 171.507812 122.972656 187.828125 113.675781 187.070312 103.8125 C 186.3125 93.949219 168.761719 87.253906 147.867188 88.859375 Z M 147.867188 88.859375 "
         clip-rule="nonzero"
         id="path36" />
    </clipPath>
  </defs>
  <g
     clip-path="url(#c4c464d032)"
     id="g40">
    <g
       clip-path="url(#6655cb3764)"
       id="g39">
      <g
         clip-path="url(#b6983eecf9)"
         id="g38">
        <g
           clip-path="url(#26093c8467)"
           id="g37">
          <path
             stroke-linecap="butt"
             transform="matrix(0.739104,0.118377,-0.118377,0.739104,33.911108,151.44326)"
             fill="none"
             stroke-linejoin="miter"
             d="m 53.125626,25.6923 c 1.888244,-0.54121 3.867651,-0.826133 5.889759,-0.825302 M 16.141694,87.67131 c 0.105883,-3.700209 1.037644,-7.387563 2.805518,-10.776344 L 40.069388,36.35762 c 2.744399,-5.270208 7.506585,-9.074674 13.056238,-10.66532"
             stroke="#000000"
             stroke-width="8"
             stroke-opacity="1"
             stroke-miterlimit="4"
             id="path37"
             sodipodi:nodetypes="cccccc" />
        </g>
      </g>
    </g>
  </g>
  <g
     clip-path="url(#e44d976f72)"
     id="g44">
    <g
       clip-path="url(#327a334f47)"
       id="g43">
      <g
         clip-path="url(#11312ac229)"
         id="g42">
        <g
           clip-path="url(#9fac2bf031)"
           id="g41">
          <path
             stroke-linecap="butt"
             transform="matrix(0.745382,0.0685111,-0.0685111,0.745382,31.455352,187.61104)"
             fill="none"
             stroke-linejoin="miter"
             d="m 9.1239246,37.548491 c -0.1282929,0.340949 0.9901474,0.564273 0.8452161,0.900391 L 3.962094,49.581796 c -0.876767,2.035332 -0.672695,4.369607 0.540567,6.223317 1.217982,1.848037 3.285202,2.9577 5.496839,2.958803 l 5.141641,1.58e-4"
             stroke="#000000"
             stroke-width="8"
             stroke-opacity="1"
             stroke-miterlimit="4"
             id="path40"
             sodipodi:nodetypes="cccccc" />
        </g>
      </g>
    </g>
  </g>
  <path
     stroke-linecap="butt"
     transform="matrix(0.252854, -0.704523, 0.704523, 0.252854, 99.307078, 180.417683)"
     fill="none"
     stroke-linejoin="miter"
     d="M 0.0013276 1.997707 L 83.736409 2.002047 "
     stroke="#000000"
     stroke-width="4"
     stroke-opacity="1"
     stroke-miterlimit="4"
     id="path44" />
  <g
     clip-path="url(#198d26d70a)"
     id="g46">
    <g
       clip-path="url(#40a7daa4c6)"
       id="g45">
      <path
         stroke-linecap="butt"
         transform="matrix(0.748524,0,0,0.748524,92.058957,164.52085)"
         fill="none"
         stroke-linejoin="miter"
         d="M 10.757995,19.465526 C 4.0175679,28.073949 -4.85428e-4,38.91659 -4.85428e-4,50.696993 c 0,9.148635 0.424796358,19.950324 4.825889628,27.513811 M 108.79273,45.255463 C 124.26068,72.744541 93.181278,19.441766 81.638697,10.534787"
         stroke="#000000"
         stroke-width="8"
         stroke-opacity="1"
         stroke-miterlimit="4"
         id="path45"
         sodipodi:nodetypes="csccc" />
    </g>
  </g>
  <g
     clip-path="url(#b4fd0a8a18)"
     id="g50">
    <g
       clip-path="url(#8e2d88ff0b)"
       id="g49">
      <g
         clip-path="url(#1177f095c8)"
         id="g48">
        <g
           clip-path="url(#ee45e77c2a)"
           id="g47">
          <path
             stroke-linecap="butt"
             transform="matrix(0.747533,0.0385042,-0.0385042,0.747533,58.853713,91.235272)"
             fill="none"
             stroke-linejoin="miter"
             d="m 18.008312,117.02928 c -0.627745,-5.06636 0.4252,-10.28646 3.145242,-14.801 L 61.575631,35.119781 c 4.467073,-7.420413 12.494962,-11.956855 21.15383,-11.953464"
             stroke="#000000"
             stroke-width="8"
             stroke-opacity="1"
             stroke-miterlimit="4"
             id="path46"
             sodipodi:nodetypes="cccc" />
        </g>
      </g>
    </g>
  </g>
  <g
     clip-path="url(#453da75789)"
     id="g58"
     transform="matrix(0.95756297,0,0,1.4019583,5.8720673,-71.835032)">
    <g
       clip-path="url(#8f8df51c09)"
       id="g57"
       transform="translate(-0.86785406)">
      <g
         clip-path="url(#dd48a1f07c)"
         id="g56">
        <g
           clip-path="url(#651266d887)"
           id="g55">
          <path
             stroke-linecap="butt"
             fill="none"
             stroke-linejoin="miter"
             d="m 77.314307,177.91037 c -2.789371,-0.76899 -3.040329,-1.35528 -5.699953,-1.46078 m 23.640504,11.42383 c -3.253541,-3.71504 -6.894747,-5.5177 -12.146505,-7.87345 -1.923584,-0.86286 -3.864246,-1.55758 -5.794046,-2.0896"
             stroke="#000000"
             stroke-width="5.98819"
             stroke-opacity="1"
             stroke-miterlimit="4"
             id="path54"
             sodipodi:nodetypes="cccsc" />
        </g>
      </g>
    </g>
  </g>
  <path
     stroke-linecap="butt"
     transform="matrix(0.499263, 0.557695, -0.557695, 0.499263, 90.475611, 140.873445)"
     fill="none"
     stroke-linejoin="miter"
     d="M -0.00162602 2.00006 L 29.438614 1.998631 "
     stroke="#000000"
     stroke-width="4"
     stroke-opacity="1"
     stroke-miterlimit="4"
     id="path58" />
  <g
     clip-path="url(#36547eac39)"
     id="g62">
    <g
       clip-path="url(#1a753247a2)"
       id="g61">
      <g
         clip-path="url(#4f61aefb42)"
         id="g60">
        <g
           clip-path="url(#1499960f3d)"
           id="g59">
          <path
             stroke-linecap="butt"
             transform="matrix(0.746765,-0.0512828,0.0512828,0.746765,135.51932,163.48555)"
             fill="none"
             stroke-linejoin="miter"
             d="m 95.911879,1.6344411 c 5.299771,2.6057263 8.946801,8.0583039 8.946841,14.3633389 l 0.003,92.57665 c -3e-4,8.84019 -7.166669,16.00085 -16.001659,16.00091 l -72.860973,-0.003 c -3.080576,2e-5 -5.958269,-0.87065 -8.4000358,-2.37934"
             stroke="#000000"
             stroke-width="8"
             stroke-opacity="1"
             stroke-miterlimit="4"
             id="path59"
             sodipodi:nodetypes="cccccc" />
        </g>
      </g>
    </g>
  </g>
  <g
     clip-path="url(#3635aa6906)"
     id="g64">
    <g
       clip-path="url(#99fff59545)"
       id="g63">
      <path
         stroke-linecap="butt"
         transform="matrix(0.748524,0,0,0.748524,172.75052,154.90579)"
         fill="none"
         stroke-linejoin="miter"
         d="M 8.1214106,119.56862 2.029348,80.967289 C 1.9305417,80.342043 1.8498741,79.715719 1.787182,79.08905 m 0,0 C 1.6415014,77.632828 1.5928854,76.174741 1.6392859,74.723977 1.7735744,70.525291 2.7037144,66.38794 4.380061,62.534635 m 0,0 C 5.1665302,60.726831 6.1172454,58.981548 7.22708,57.321784 L 38.329974,10.808345 c 1.612549,-2.416215 4.321006,-3.861769 7.222551,-3.861769 0.503507,0 1.001357,0.04353 1.488777,0.1281078"
         stroke="#000000"
         stroke-width="8"
         stroke-opacity="1"
         stroke-miterlimit="4"
         id="path62"
         sodipodi:nodetypes="ccccsccccsc" />
    </g>
  </g>
  <g
     clip-path="url(#6e06bcc18c)"
     id="g68">
    <g
       clip-path="url(#367b5ff179)"
       id="g67">
      <g
         clip-path="url(#2aad36d173)"
         id="g66">
        <g
           clip-path="url(#39fd178f8d)"
           id="g65">
          <path
             stroke-linecap="butt"
             transform="matrix(0.704329,-0.253393,0.253393,0.704329,79.430933,125.23654)"
             fill="none"
             stroke-linejoin="miter"
             d="m 44.172609,-1.0926774 5.338239,0.10103024 m 0,0 52.379662,0.991325078 C 125.63958,-0.00270962 144.88988,19.251761 144.89227,43.000836 l -0.48602,43.738853 -1.3e-4,17.687061"
             stroke="#000000"
             stroke-width="8"
             stroke-opacity="1"
             stroke-miterlimit="4"
             id="path64"
             sodipodi:nodetypes="ccccccc" />
        </g>
      </g>
    </g>
  </g>
  <path
     stroke-linecap="butt"
     transform="matrix(0.740319,0.110524,-0.110524,0.740319,71.25495,240.42395)"
     fill="none"
     stroke-linejoin="miter"
     d="M -51.977575,-6.1667839 108.24248,1.998871"
     stroke="#000000"
     stroke-width="4"
     stroke-opacity="1"
     stroke-miterlimit="4"
     id="path68"
     sodipodi:nodetypes="cc" />
  <g
     clip-path="url(#f3a2c0bf3a)"
     id="g72"
     transform="matrix(1.0062517,0,0,0.62502882,-0.94602196,45.594869)">
    <g
       clip-path="url(#d89019daec)"
       id="g71">
      <g
         clip-path="url(#d89be40156)"
         id="g70">
        <g
           clip-path="url(#ef5fffff2c)"
           id="g69">
          <path
             stroke-linecap="butt"
             fill="none"
             stroke-linejoin="miter"
             d="m 122.75869,117.47333 c 6.62542,1.93826 19.46572,3.02655 33.92917,2.61276 8.99974,-0.25748 17.13875,-1.05385 23.38915,-2.17101"
             stroke="#000000"
             stroke-width="3.60257"
             stroke-opacity="1"
             stroke-miterlimit="4"
             id="path69"
             sodipodi:nodetypes="csc" />
        </g>
      </g>
    </g>
  </g>
</svg>
