<svg width="406" height="437" viewBox="0 0 406 437" fill="none" xmlns="http://www.w3.org/2000/svg">
<path d="M62.3101 431.832C59.9255 438.708 65.2897 417.525 67.8611 410.717C72.509 398.411 76.5152 385.834 81.4753 373.671C86.9173 360.326 91.0951 346.71 95.4216 332.973C99.4046 320.327 104.571 307.571 106.325 294.355C107.261 287.304 109.467 281.003 111.219 274.148C112.355 269.707 112.758 265.242 114.789 261.062C118.946 252.506 125.447 243.422 131.985 236.528C137.793 230.403 142.934 223.649 149.126 217.899C155.414 212.061 161.464 207.023 168.812 202.563C175.613 198.435 182.245 193.468 190.02 191.276C201.003 188.179 211.511 184.982 222.249 181.031C228.965 178.56 236.549 176.375 242.923 173.115C247.463 170.792 252.264 167.653 252.534 162.019C252.755 157.395 249.568 155.787 247.56 152.155C245.639 148.68 243.054 146.257 240.81 143.108C236.862 137.566 237.312 135.441 244.008 132.918C246.508 131.975 259.178 132.173 259.178 128.29C259.178 123.374 254.903 123.287 251.238 121.619C248.116 120.198 250.617 120.729 250.617 118.202C250.617 114.78 246.429 115.747 243.706 115.747" stroke="#1E1E1E" stroke-width="4" stroke-linecap="round" stroke-linejoin="round"/>
<path d="M310.532 434.137C310.532 429.161 302.264 422 299.448 418.569C294.862 412.985 292.258 406.447 288.326 400.408C278.867 385.881 280.27 366.4 270.906 351.693C266.788 345.225 264.82 337.268 261.952 330.2C258.825 322.494 256.484 314.533 253.012 306.956C246.23 292.158 237.898 278.68 229.695 264.678C225.928 258.247 225.743 247.907 225.036 240.527C224.469 234.603 223.993 228.584 223.993 222.631C223.993 215.788 228.453 210.784 233.077 206.343C235.344 204.166 237.763 201.487 240.847 200.512C243.132 199.789 244.792 199.645 246.886 198.19C258.199 190.327 270.994 184.081 283.443 178.188C286.817 176.591 300.722 171.571 296.401 165.021C293.573 160.735 288.236 159.483 283.634 158.19C278.515 156.751 275.659 152.27 271.781 148.916C267.351 145.084 262.989 142.175 268.503 136.726C273.648 131.641 280.626 131.196 286.51 127.604C291.178 124.754 280.895 120.116 279.348 119.825C277.287 119.438 259.178 121.036 259.178 118.364C259.178 117.083 260.857 115.523 258.89 114.825C256.03 113.81 251.291 114.521 248.269 114.521" stroke="#1E1E1E" stroke-width="4" stroke-linecap="round" stroke-linejoin="round"/>
<path d="M39.4515 89.982C37.6351 88.8446 45.8294 88.9035 46.3512 88.9035C52.8049 88.9035 58.937 90.0148 65.3274 90.3267C88.0672 91.4365 110.885 89.9629 133.623 89.6257C154.277 89.3195 174.869 89.6559 195.48 91.0161C223.535 92.8676 251.612 92.9588 279.692 94.2516C304.742 95.4048 329.94 96.1455 355.005 95.0592C370.82 94.3738 386.991 92.9341 402.797 94.6209" stroke="#1E1E1E" stroke-width="4" stroke-linecap="round" stroke-linejoin="round"/>
<path d="M68.8442 129.502C72.6026 128.875 76.8781 126.171 81.1608 127.557C84.6028 128.67 87.0292 125.86 90.8101 127.716C92.4711 128.531 97.057 130.587 98.7994 128.835C99.4634 128.168 99.9717 125.217 101.347 125.777C102.839 126.385 102.38 129.304 104.541 129.433C107.108 129.586 108.09 124.619 109.541 123.171C111.097 121.619 115.889 120.592 117.935 121.606C119.42 122.342 120.09 120.659 121.11 119.666C121.636 119.155 123.91 121.497 122.812 122.955C120.039 126.638 135.899 126.59 136.069 126.27C136.708 125.066 137.165 122.027 138.77 121.711C143.509 120.778 148.769 119.538 153.62 119.833C154.557 119.89 152.75 122.11 156.201 121.972C157.884 121.905 159.55 121.127 161.145 121.938C163.063 122.912 167.229 121.716 168.596 123.108C170.35 124.894 170.887 124.931 173.783 125.176C175.89 125.355 177.84 126.044 179.846 126.668C179.962 126.704 181.99 127.285 181.994 127.248C182.129 126.054 181.791 124.966 183.18 124.8C184.859 124.6 190.716 123.607 192.042 124.992C192.451 125.42 191.809 126.465 192.274 126.826C194.027 128.188 197.13 127.231 199.188 127.744C200.033 127.954 202.526 129.81 202.259 128.664C201.775 126.588 200.203 126.954 202.938 127.701C208.593 129.246 213.755 129.113 219.422 129.913C222.304 130.32 226.54 128.16 229.051 129.034C229.183 129.08 231.181 130.154 230.483 129.59" stroke="#1E1E1E" stroke-width="4" stroke-linecap="round" stroke-linejoin="round"/>
<path d="M64.6136 204.346C64.2604 204.722 66.4204 204.425 66.6514 204.392C69.0717 204.042 71.5044 203.962 73.9473 203.979C79.5055 204.017 84.3707 206.668 90.1573 205.542C92.7093 205.046 94.8634 203.03 97.2348 202.531C97.7235 202.428 98.6813 203.4 99.1194 203.584C100.89 204.328 103.006 204.213 104.888 204.213C109.415 204.213 115.432 204.976 119.781 203.915C121.006 203.616 130.791 198.43 129.529 197.323C128.749 196.639 125.641 196.586 128.975 195.775C133.137 194.763 137.661 195.681 141.887 194.42C144.793 193.553 147.541 191.661 150.261 190.325C152.262 189.343 156.946 191.473 155.714 187.388C153.418 179.776 163.398 185.863 167.461 185.417C170.058 185.132 172.135 183.14 174.653 182.853C177.113 182.573 179.542 184.484 182.153 184.504C183.654 184.516 182.092 180.431 181.697 179.707C180.347 177.234 182.17 179.165 184.352 179.55C187.886 180.174 192.053 179.941 195.306 178.332C196.715 177.634 197.874 177.132 199.451 177.132C201.263 177.132 203.494 178.461 205.291 177.809C206.83 177.25 202.308 173.705 201.931 173.358C200.371 171.925 200.164 171.943 202.053 172.942C204.038 173.99 206.901 173.766 208.7 172.447C209.842 171.61 211.813 167.904 210.34 167.191C202.023 163.164 212.771 162.989 217.227 162.28C229.667 160.3 213.664 160.47 217.188 157.19C218.387 156.074 226.298 153.431 223.725 150.658C223.252 150.149 214.569 145.974 216.24 145.974" stroke="#1E1E1E" stroke-width="4" stroke-linecap="round" stroke-linejoin="round"/>
<path d="M280.198 120.431C287.796 119.629 295.029 117.571 302.513 116.12C307.977 115.061 312.618 118.088 318.362 117.497C319.725 117.357 323.577 116.222 324.899 117.122C326.094 117.936 326.679 118.894 328.288 118.894C329.041 118.894 329.758 118.146 330.215 118.146C330.405 118.146 330.968 118.85 331.215 118.948C333.128 119.709 335.808 119.564 337.78 119.196C339.656 118.846 345.862 117.912 346.725 115.7C346.903 115.244 344.986 115.506 344.743 115.71C343.804 116.496 353.479 116.627 354.5 116.532C357.489 116.253 360.275 116.241 363.227 116.488C368.71 116.946 372.8 115.124 378.276 116.072C383.151 116.917 388.207 116.744 392.453 117.904" stroke="#1E1E1E" stroke-width="4" stroke-linecap="round" stroke-linejoin="round"/>
<path d="M320.167 190.547C325.133 190.547 327.485 194.529 323.342 198.468C320.209 201.447 316.397 203.724 312.265 205.007C310.881 205.437 307.833 205.445 306.784 206.606C305.364 208.179 312.527 209.755 313.258 210.13C316.094 211.588 315.128 214.797 314.486 217.275C313.87 219.652 315.765 222.965 314.86 224.742C314.395 225.654 309.533 229.205 310.912 230.313C312.151 231.308 314.295 232.775 313.259 234.686C312.665 235.782 311.983 236.441 311.983 237.757C311.983 239.471 314.113 239.248 314.691 240.445C316.153 243.474 310.836 245.278 311.427 245.801C314.196 248.249 317.813 248.597 320.101 251.742C320.701 252.567 320.529 253.479 320.971 254.409C321.883 256.328 323.491 257.531 324.542 259.363" stroke="#1E1E1E" stroke-width="4" stroke-linecap="round" stroke-linejoin="round"/>
<path d="M325.018 287.611C324.919 285.323 352.481 284.107 353.982 287.111C354.245 287.636 339.696 290.595 345.378 296.775C345.966 297.415 347.568 297.726 347.487 298.743C347.343 300.535 346.271 300.401 347.723 302.028C348.012 302.352 350.094 305.145 349.516 305.305C348.967 305.456 343.46 306.267 346.276 306.611C350.683 307.151 356.766 305.145 360.785 307.265C362.689 308.269 357.206 309.676 356.448 309.952C355.606 310.259 355.741 312.285 356.536 312.565C357.847 313.027 359.406 312.43 360.683 312.948C360.83 313.008 360.479 313.283 360.457 313.328C360.097 314.054 362.102 314.383 362.423 314.461C365.72 315.266 369.973 315.377 370.834 319.286C371.613 322.824 375.136 324.082 377.558 326.342C379.824 328.455 381.938 330.972 383.948 333.321" stroke="#1E1E1E" stroke-width="4" stroke-linecap="round" stroke-linejoin="round"/>
<path d="M38.1335 16.8075C38.1335 27.1324 54.2612 16.8294 55.9014 23.1553C56.6152 25.9082 58.7488 26.3176 60.3043 28.5641C62.4332 31.6388 64.175 34.1829 66.7216 36.9688C68.3146 38.7114 69.6838 41.4574 70.1819 43.7803C70.9595 47.4067 67.6608 52.0802 70.3099 55.2439C73.5197 59.0773 79.5078 59.6738 84.1332 60.2571C86.1302 60.509 93.0528 59.5937 93.8552 62.1104C94.8711 65.2972 91.9465 69.14 96.2855 70.3148C100.898 71.5636 109.39 74.7634 114.039 72.4012C118.13 70.3222 119.659 65.4494 124.061 63.5131C129.473 61.133 135.288 63.7327 140.754 61.9463C143.726 60.9749 146.528 63.0944 148.841 65.1128C149.617 65.79 152.928 68.6725 153.997 66.9152C155.025 65.2252 155.316 63.4187 157.773 63.4187C160.189 63.4187 162.706 63.8693 165.2 63.8349C167.75 63.7996 164.728 69.0206 167.966 69.4038C171.612 69.8351 174.844 67.3219 178.131 66.1437C181.017 65.1092 193.854 59.8231 195.785 64.2132C197.034 67.0532 198.44 66.0421 202.104 66.0485C205.711 66.0548 203.042 68.732 206.069 69.2511C214.156 70.638 223.253 69.0079 231.238 68.2219C238.433 67.5136 236.767 63.7306 233.389 59.3157C232.703 58.419 237.036 57.591 237.582 57.3984C239.598 56.6875 240.904 54.5005 241.026 52.4714" stroke="#1E1E1E" stroke-width="4" stroke-linecap="round" stroke-linejoin="round"/>
<path d="M226.184 238.743C226.184 235.853 228.536 232.428 229.954 230.014C233.583 223.834 239.347 217.65 244.921 213.236C248.574 210.344 251.758 207.511 255.827 205.176C259.468 203.087 263.094 200.931 266.792 198.943C272.275 195.995 277.956 193.241 283.269 189.998C287.534 187.396 292.962 184.869 295.011 179.921C295.82 177.967 297.356 175.313 297.356 173.153C297.356 171.805 297.417 170.407 297.779 169.105" stroke="#1E1E1E" stroke-width="4" stroke-linecap="round" stroke-linejoin="round"/>
<path d="M242.814 114.239C242.801 114.185 242.494 114.405 242.379 114.369C241.749 114.172 241.582 113.169 241.462 112.633C240.904 110.147 241.118 113.361 241.787 114.261C242.526 115.253 243.38 115.919 244.637 116.025C245.499 116.098 243.156 115.027 242.713 114.285C241.983 113.063 242.387 111.69 240.786 111.69C239.92 111.69 238.59 111.306 237.751 111.117C237.387 111.035 237.017 111.093 236.653 111.023C236.361 110.968 238.251 110.627 238.544 110.602C240.218 110.463 241.493 111.662 242.915 112.416C243.477 112.713 244.249 112.879 244.748 113.241C245.804 114.006 247.59 113.531 248.821 114.222" stroke="#1E1E1E" stroke-width="4" stroke-linecap="round" stroke-linejoin="round"/>
<path d="M241.129 54.1131C241.129 52.6572 249.987 47.5357 251.45 46.9476C252.981 46.3327 252.343 45.9524 252.691 44.4057C253.161 42.3109 255.694 40.8075 257.498 40.0496C258.194 39.757 262.946 38.1155 263.455 39.0314C264.333 40.6093 261.44 42.8117 264.051 39.9928C267.821 35.9243 271.654 33.7733 276.395 31.1028C278.471 29.9339 284.758 26.114 284.758 30.8287C284.758 35.3745 280.248 38.778 282.186 42.7347C283.293 44.9928 280.719 47.2624 280.609 49.4771C280.47 52.2748 283.789 51.1171 285.278 52.1523C286.617 53.0825 283.805 56.683 283.86 58.0568C283.904 59.1361 284.758 60.0668 284.758 61.3239C284.758 63.5474 275.139 72.3924 282.646 72.4265C289.921 72.4596 297.024 72.7969 304.331 72.7969C305.687 72.7969 305.238 65.6117 303.29 64.3119C301.4 63.0516 300.421 64.2237 299.26 65.7022C297.619 67.7926 296.36 68.3556 293.966 69.3282C292.348 69.9853 289.28 71.8772 287.404 71.2453C285.846 70.7207 289.478 65.2236 289.803 64.6947C292.776 59.8508 295.504 55.2733 298.975 50.7999C300.533 48.7914 297.914 47.8608 296.311 47.3073C292.941 46.1434 291.853 44.7303 292.888 41.0201C294.281 36.0258 296.48 31.3641 297.998 26.4388C298.603 24.4773 302.168 21.1914 301.429 19.405C300.415 16.9524 301.337 14.1429 302.757 12.0683C303.462 11.0381 306.694 8.66245 306.694 7.38293C306.694 5.15055 308.711 2.93844 310.884 2.5527C318.273 1.24091 317.258 14.9563 322.23 18.4345C324.421 19.967 327.563 20.2719 328.055 23.2286C328.445 25.5667 330.085 25.2528 331.763 26.2544C333.621 27.3643 332.045 30.272 335.374 26.2446C339.07 21.7725 337.083 14.6857 341.098 10.0878C341.614 9.49719 343.306 7.33959 344.263 7.65373C347.18 8.61121 349.468 6.96467 352.066 5.49709C356.853 2.7927 361.551 2.23293 367.036 2.48274C372.813 2.74582 372.441 12.0399 373.806 15.8762C374.027 16.4986 375.647 16.3624 376.199 17.0664C377.877 19.2088 378.753 20.4925 379.39 23.1117C380.209 26.4778 384.492 26.2207 386.3 28.7123C387.519 30.3932 387.463 33.7203 387.664 35.691C388.038 39.3657 388.923 41.625 391.978 44.0196C394.557 46.0412 396.315 48.5764 398.504 50.9506C400.015 52.5895 403.125 52.9457 403.337 55.4318" stroke="#1E1E1E" stroke-width="4" stroke-linecap="round" stroke-linejoin="round"/>
<path d="M6.56407 406.288C5.12797 406.288 2.69153 401.78 2.42586 400.405C0.861434 392.31 4.00364 384.298 6.12464 376.651C9.67432 363.853 10.1908 349.484 8.37371 336.344C8.12983 334.581 7.60471 332.651 6.31565 331.326C3.57991 328.514 7.49345 339.192 9.14549 342.751C14.9691 355.296 21.7217 367.701 28.1495 379.938C32.1568 387.567 38.0271 394.029 37.7817 403.07C37.7522 404.159 35.3332 405.745 34.6174 404.517C30.8595 398.072 32.0695 388.465 31.6705 381.295C31.1384 371.734 31.1284 362.42 31.1284 352.893C31.1284 350.11 30.3677 359.356 32.5151 361.127C34.6472 362.884 35.7607 358.979 35.8926 357.629C36.3528 352.917 36.8189 347.399 34.3369 343.178C32.5677 340.169 29.0217 339.933 29.0217 343.661C29.0217 345.94 31.851 355.685 32.8927 348.728C33.6723 343.522 32.1307 338.274 34.6483 333.502C36.0205 330.9 37.8221 322.207 36.6754 324.915C35.3371 328.075 34.0484 334.205 35.6983 337.418C37.2953 340.528 40.2121 337.444 40.8225 335.372C41.7936 332.076 39.0946 329.157 39.4313 326.373C39.6279 324.746 41.3901 329.722 43.0285 329.722C44.4131 329.722 43.8037 322.389 43.6192 321.174C43.0187 317.221 43.1919 305.189 43.1919 309.187C43.1919 315.812 44.3996 323.415 50.8633 315.892C52.8581 313.57 51.4056 307.753 48.0014 307.395C45.0435 307.083 45.5875 311.167 46.7295 310.024" stroke="#1E1E1E" stroke-width="4" stroke-linecap="round" stroke-linejoin="round"/>
<path d="M26.5573 326.779C23.1113 325.151 29.3595 314.734 29.3595 311.456" stroke="#1E1E1E" stroke-width="4" stroke-linecap="round" stroke-linejoin="round"/>
<path d="M52.8903 282.399C50.3832 282.399 48.3473 273.877 46.7581 272.052C43.4653 268.271 54.619 278.286 58.7156 281.176C61.0224 282.804 66.3202 288.686 65.7289 285.925" stroke="#1E1E1E" stroke-width="4" stroke-linecap="round" stroke-linejoin="round"/>
<path d="M50.7042 255.543C48.8649 253.735 54.5063 259.077 56.015 261.169C57.7133 263.524 60.1527 268.235 63.3242 268.907C64.6709 269.193 68.4403 264.918 69.6485 263.97C70.9076 262.983 64.7104 258.575 63.9005 257.758C60.3097 254.135 70.2497 267.09 75.2685 268.003" stroke="#1E1E1E" stroke-width="4" stroke-linecap="round" stroke-linejoin="round"/>
<path d="M75.3481 251.327C75.2546 251.157 75.0078 251.142 75.0103 251.142" stroke="#1E1E1E" stroke-width="4" stroke-linecap="round" stroke-linejoin="round"/>
<path d="M67.001 243.4V243.665" stroke="#1E1E1E" stroke-width="4" stroke-linecap="round" stroke-linejoin="round"/>
<path d="M72.5658 220.574C72.4638 220.211 72.488 225.47 73.3806 227.333C75.2384 231.21 85.1228 243.637 90.8256 237.329C97.4624 229.988 81.9316 221.113 82.781 233.803" stroke="#1E1E1E" stroke-width="4" stroke-linecap="round" stroke-linejoin="round"/>
</svg>
