<svg width="406" height="497" viewBox="0 0 406 497" fill="none" xmlns="http://www.w3.org/2000/svg">
<path d="M273.169 113.627L208.07 4.79097C205.714 1.06969 200.286 1.06967 197.93 4.79095L132.831 113.627C132.023 114.902 130.765 115.827 129.306 116.215L7.15832 145.509C2.96278 146.626 1.30697 151.693 4.03244 155.073L85.9586 251.684C86.892 252.841 87.3624 254.304 87.2783 255.789L76.913 382.797C76.6653 387.17 81.0356 390.326 85.1092 388.716L200.794 339.554C202.211 338.994 203.789 338.994 205.206 339.554L320.891 388.716C324.964 390.326 329.335 387.17 329.087 382.797L318.722 255.789C318.638 254.304 319.108 252.841 320.041 251.684L401.968 155.073C404.693 151.693 403.037 146.626 398.842 145.509L276.694 116.215C275.235 115.827 273.977 114.902 273.169 113.627Z" stroke="#1E1E1E" stroke-width="4" stroke-linecap="round"/>
<path d="M78.3113 59.901C76.1655 59.901 68.7938 43.7728 67.673 44.6695" stroke="#1E1E1E" stroke-width="4" stroke-linecap="round" stroke-linejoin="round"/>
<path d="M308.929 72.532C308.929 65.5479 318.16 56.495 323.132 51.8766" stroke="#1E1E1E" stroke-width="4" stroke-linecap="round" stroke-linejoin="round"/>
<path d="M355.158 277.749C355.838 276.467 377.96 290.894 380.723 293.575" stroke="#1E1E1E" stroke-width="4" stroke-linecap="round" stroke-linejoin="round"/>
<path d="M5.70898 299.593C5.70898 295.486 24.4017 294.529 26.4008 290.529" stroke="#1E1E1E" stroke-width="4" stroke-linecap="round" stroke-linejoin="round"/>
<path d="M209.703 389.274C209.703 396.95 208.948 404.667 208.282 412.307" stroke="#1E1E1E" stroke-width="4" stroke-linecap="round" stroke-linejoin="round"/>
<path d="M20.7413 467.882C22.8109 467.882 26.132 464.049 27.6568 462.909C34.3886 457.88 40.9427 453.03 46.9984 447.17C55.47 438.973 63.9048 430.746 72.5016 422.682C73.135 422.088 76.7537 418.382 76.7537 419.36C76.7537 429.958 69.1642 441.957 65.6716 451.809C64.8036 454.257 62.8778 466.537 59.5217 467.623C58.5502 467.937 58.037 465.604 57.816 465.102C56.0456 461.082 52.7434 457.859 49.1619 455.435C45.1808 452.74 44.4384 453.751 50.2847 454.173C58.0567 454.734 67.3647 454.23 73.9533 449.472C75.7319 448.188 74.5022 452.493 74.3057 453.395C72.0261 463.865 67.7807 473.778 66.3471 484.457C66.2929 484.86 65.0862 496.988 64.1543 494.569C62.4434 490.127 65.1459 484.633 66.1914 480.418C67.8558 473.708 68.1619 466.422 70.4528 459.897C72.1996 454.921 75.7647 446.585 81.6614 445.774C94.7744 443.97 85.4989 457.237 78.7369 459.564C77.5293 459.98 74.2392 461.413 77.2068 459.934C84.4363 456.332 93.5814 447.706 101.283 446.695C103.545 446.399 109.944 444.212 107.662 444.212C103.648 444.212 100.502 447.181 98.4169 450.369C92.8634 458.856 105.678 460.372 109.148 452.721C109.981 450.882 111.16 445.646 107.8 445.646C106.978 445.646 105.296 447.021 106.397 447.736C110.765 450.572 119.434 446.454 123.73 444.918C130.082 442.648 122.582 446.314 120.356 448.214C113.241 454.286 122.139 459.275 127.912 455.063C135.616 449.443 145.046 446.63 154.584 446.63C158.375 446.63 146.679 447.168 143.518 449.263C142.027 450.251 138.477 453.309 140.94 455.479C148.904 462.494 151.048 450.755 156.309 449.516C159.949 448.659 154.379 455.863 159.702 457.771C171.023 461.83 180.893 438.153 183.747 431.038C185.103 427.654 185.934 423.913 185.934 420.262C185.934 413.137 177.345 432.221 176.088 439.234C175.316 443.537 170.75 453.387 173.669 457.656C177.553 463.336 184.346 457.965 188.256 455.01C189.324 454.203 197.987 446.973 196.533 450.436C196.039 451.613 194.045 456.319 195.709 457.512C202.961 462.712 218.041 437.236 208.835 456.959C204.261 466.759 198.896 476.36 195.453 486.645C195.431 486.708 199.825 476.062 201.425 472.567C204.475 465.903 212.754 444.993 221.901 443.547C230.786 442.143 219.559 453.414 216.597 454.67C213.621 455.932 206.809 457.34 213.818 457.34C219.524 457.34 225.755 453.115 230.225 449.841C232.759 447.984 235.679 445.62 237.689 443.149C238.068 442.683 239.42 440.02 239.438 440.086C239.981 442.103 246.856 454.488 246.057 455.048C244.309 456.274 239.414 457.451 237.161 457.785C236.513 457.882 242.299 457.833 243.571 457.256C247.509 455.468 257.54 448.06 250.502 445.84C247.93 445.028 247.817 452.113 248.178 453.62C249.045 457.241 259.033 456.722 261.902 456.722" stroke="#1E1E1E" stroke-width="4" stroke-linecap="round" stroke-linejoin="round"/>
<path d="M200.327 437.353C200.058 437.361 199.968 437.348 199.968 437.606" stroke="#1E1E1E" stroke-width="4" stroke-linecap="round" stroke-linejoin="round"/>
<path d="M287.485 434.936C293.024 433.059 305.426 431.016 299.642 441.073C297.064 445.555 292.333 452.22 287.986 455.199C287.41 455.594 284.726 457.136 285.625 456.808C287.769 456.026 300.048 457.258 300.192 456.103" stroke="#1E1E1E" stroke-width="4" stroke-linecap="round" stroke-linejoin="round"/>
<path d="M311.298 432.687C314.686 432.097 324.386 430.476 322.82 436.693C321.193 443.153 311.569 446.242 310.789 452.896C310.269 457.336 325.272 454.838 328.388 454.838" stroke="#1E1E1E" stroke-width="4" stroke-linecap="round" stroke-linejoin="round"/>
<path d="M343.413 451.1C343.413 450.982 343.416 450.961 343.329 450.903" stroke="#1E1E1E" stroke-width="4" stroke-linecap="round" stroke-linejoin="round"/>
<path d="M342.254 442.61H342.254" stroke="#1E1E1E" stroke-width="4" stroke-linecap="round" stroke-linejoin="round"/>
<path d="M358.459 437.691C359.114 434.45 359.892 424.571 359.892 427.877C359.892 435.347 360.25 457.755 360.25 450.284" stroke="#1E1E1E" stroke-width="4" stroke-linecap="round" stroke-linejoin="round"/>
<path d="M386.107 427.261C379.47 420.395 358.733 449.3 383.784 449.3C391.463 449.3 386.768 437.434 376.983 442.975" stroke="#1E1E1E" stroke-width="4" stroke-linecap="round" stroke-linejoin="round"/>
</svg>
