<svg width="147" height="331" viewBox="0 0 147 331" fill="none" xmlns="http://www.w3.org/2000/svg" style="">
<path d="M106.351 24.114C105.768 18.8299 96.3413 22.4317 94.6129 24.3579C82.7633 37.5647 81.2023 52.962 81.2023 69.8279C81.2023 110.305 77.7355 152.005 83.9051 192.135C89.9283 231.313 100.137 268.677 100.137 308.395C100.137 313.836 99.3878 323.627 93.9299 326.454C92.2559 327.321 84.6639 329.41 83.0597 327.889C80.8308 325.776 81.9476 316.724 81.7054 313.943C81.1257 307.289 78.8751 300.995 78.0126 294.387C73.7457 261.694 72.4529 228.915 68.5617 196.132C64.6018 162.769 63.1372 128.668 63.2771 95.1095C63.3678 73.3709 63.2835 5.84066 97.7495 2.20952C129.212 -1.10521 144.363 42.6744 144.91 68.9226C145.022 74.3448 131.157 77.3645 130.702 73.3468C129.741 64.8525 126.101 56.3755 121.809 49.12C117.602 42.0082 112.881 26.5037 104.093 23.7596" stroke="#1E1E1E" stroke-width="4" stroke-linecap="round" stroke-linejoin="round" class="xtfdBPBH_0"></path>
<path d="M30.7409 288.357C18.1147 288.357 17.2761 260.791 16.2311 251.877C16.1225 250.951 8.76852 225.805 6.05082 232.031C1.10355 243.364 29.5984 252.872 35.9568 255.792C38.2861 256.862 67.407 267.747 58.7976 273.344C50.8153 278.534 34.5424 251.535 30.5062 245.426C27.1015 240.273 22.8423 234.222 21.7923 227.989C21.0496 223.58 22.0908 229.098 23.5735 230.805C31.3383 239.741 30.8418 222.779 25.9724 217.813C22.8789 214.659 20.0391 215.7 20.0391 220.28C20.0391 222.441 21.3491 223.087 23.4556 223.234C24.4343 223.302 26.7663 222.142 26.393 223.049C24.0655 228.707 22.5423 214.939 22.444 214.193C22.0146 210.934 21.526 207.279 18.9326 204.953C17.6028 203.761 18.5502 197.979 17.9697 200.454C14.8645 213.695 38.4102 216.254 26.9329 203.245C17.9319 193.043 28.9212 203.282 28.9682 198.788C29.044 191.535 19.9517 184.634 19.1199 176.242C18.5346 170.337 22.2299 194.333 29.4326 186.069C35.8523 178.704 19.4665 169.212 19.1393 170.405C18.4891 172.776 20.0675 175.383 22.6969 174.834C24.3735 174.484 23.6926 169.39 24.1316 169.39" stroke="#1E1E1E" stroke-width="4" stroke-linecap="round" stroke-linejoin="round" class="xtfdBPBH_1"></path>
<path d="M5.35423 206.583C-1.33553 203.582 6.80978 194.722 4.43506 189.972" stroke="#1E1E1E" stroke-width="4" stroke-linecap="round" stroke-linejoin="round" class="xtfdBPBH_2"></path>
<path d="M12.992 149.712C11.3754 149.606 1.51395 142.713 6.60154 143.072C10.1143 143.321 26.4668 146.868 24.5036 146.56" stroke="#1E1E1E" stroke-width="4" stroke-linecap="round" stroke-linejoin="round" class="xtfdBPBH_3"></path>
<path d="M7.12661 128.751C7.12661 135.411 25.974 139.705 26.4317 130.019C26.9732 118.563 0.239112 113.581 7.12661 129.685" stroke="#1E1E1E" stroke-width="4" stroke-linecap="round" stroke-linejoin="round" class="xtfdBPBH_4"></path>
<path d="M22.7311 111.147C22.7311 110.964 22.7092 110.844 22.6436 110.68" stroke="#1E1E1E" stroke-width="4" stroke-linecap="round" stroke-linejoin="round" class="xtfdBPBH_5"></path>
<path d="M14.283 108.169C13.9167 108.115 13.6003 107.789 13.2544 107.789" stroke="#1E1E1E" stroke-width="4" stroke-linecap="round" stroke-linejoin="round" class="xtfdBPBH_6"></path>
<path d="M12.591 93.335C11.5704 92.0608 5.37157 85.7856 7.48193 85.6747C13.4195 85.3625 18.2472 88.6982 23.4557 88.6982" stroke="#1E1E1E" stroke-width="4" stroke-linecap="round" stroke-linejoin="round" class="xtfdBPBH_7"></path>
<path d="M12.9289 74.1252C11.451 73.722 4.00348 63.6151 11.2494 65.4315C14.891 66.3444 24.9772 67.2364 27.6867 70.5217" stroke="#1E1E1E" stroke-width="4" stroke-linecap="round" stroke-linejoin="round" class="xtfdBPBH_8"></path>
<style data-made-with="vivus-instant">.xtfdBPBH_0{stroke-dasharray:841 843;stroke-dashoffset:842;animation:xtfdBPBH_draw 1333ms linear 0ms forwards;}.xtfdBPBH_1{stroke-dasharray:398 400;stroke-dashoffset:399;animation:xtfdBPBH_draw 1333ms linear 83ms forwards;}.xtfdBPBH_2{stroke-dasharray:19 21;stroke-dashoffset:20;animation:xtfdBPBH_draw 1333ms linear 166ms forwards;}.xtfdBPBH_3{stroke-dasharray:31 33;stroke-dashoffset:32;animation:xtfdBPBH_draw 1333ms linear 250ms forwards;}.xtfdBPBH_4{stroke-dasharray:60 62;stroke-dashoffset:61;animation:xtfdBPBH_draw 1333ms linear 333ms forwards;}.xtfdBPBH_5{stroke-dasharray:1 3;stroke-dashoffset:2;animation:xtfdBPBH_draw 1333ms linear 416ms forwards;}.xtfdBPBH_6{stroke-dasharray:2 4;stroke-dashoffset:3;animation:xtfdBPBH_draw 1333ms linear 500ms forwards;}.xtfdBPBH_7{stroke-dasharray:27 29;stroke-dashoffset:28;animation:xtfdBPBH_draw 1333ms linear 583ms forwards;}.xtfdBPBH_8{stroke-dasharray:31 33;stroke-dashoffset:32;animation:xtfdBPBH_draw 1333ms linear 666ms forwards;}@keyframes xtfdBPBH_draw{100%{stroke-dashoffset:0;}}@keyframes xtfdBPBH_fade{0%{stroke-opacity:1;}93.54838709677419%{stroke-opacity:1;}100%{stroke-opacity:0;}}</style></svg>
