<svg width="371" height="503" viewBox="0 0 371 503" fill="none" xmlns="http://www.w3.org/2000/svg" style="">
<path d="M68.0738 442.775C68.2058 442.762 67.0584 407.851 67.0584 405.408C67.0584 390.265 67.3573 375.551 65.3878 360.457C63.3851 345.109 64.6333 329.388 63.9809 313.938C62.7426 284.611 63.8048 255.388 63.8048 226.054C63.8048 214.168 63.9621 202.294 63.9809 190.421C63.9935 182.501 65.2657 174.463 65.7309 166.541C66.1215 159.889 66.2261 153.417 67.6214 146.871C70.1308 135.098 74.4422 124.832 79.9859 114.162C84.0704 106.301 90.0688 101.478 96.6674 95.8222C100.724 92.3455 105.896 91.3446 110.464 88.7673C117.522 84.7857 125.022 79.5244 133.439 78.5878C136.376 78.2609 139.126 79.5896 142.063 79.6268C147.66 79.6977 152.696 81.4777 158.198 82.3291C167.195 83.7213 176.662 81.7246 185.445 84.6728C189.719 86.1076 193.275 88.9638 197.411 90.7962C205.257 94.273 214.215 97.5462 220.844 103.088C226.993 108.229 231.163 114.776 237.72 119.546C248.825 127.622 255.371 143.022 260.896 155.126C266.498 167.397 272.102 179.725 274.705 193.045C275.601 197.633 275.187 202.198 275.187 206.832C275.187 211.97 275.826 217.239 276.329 222.353C276.876 227.928 278.283 233.485 278.471 239.091C278.724 246.636 278.236 254.108 279.001 261.628C282.043 291.542 273.257 320.787 275.319 350.715C276.253 364.276 276.256 376.546 274.761 390.044C273.178 404.332 274.726 419.178 275.621 433.48C276.714 450.965 274.751 468.555 274.751 486.026" stroke="#1E1E1E" stroke-width="4" stroke-linecap="round" stroke-linejoin="round" class="UqMmcVOI_0"></path>
<path d="M67.0169 441.199C67.0169 441.938 55.7237 438.115 55.0536 437.881C50.7611 436.379 46.4028 435.979 42.0149 434.985C37.7191 434.013 33.6027 432.416 29.2848 431.441C20.8919 429.546 12.2407 428.718 3.61271 428.718" stroke="#1E1E1E" stroke-width="4" stroke-linecap="round" stroke-linejoin="round" class="UqMmcVOI_1"></path>
<path d="M3.6749 427.942C3.6749 420.027 4.67752 411.487 5.26257 403.478C6.83693 381.927 4.2213 360.561 3.61216 339.091C3.06339 319.75 3.59201 300.25 3.59201 280.893C3.59201 272.41 2.7527 263.939 2.7527 255.419C2.7527 245.952 3.42267 236.725 3.04743 227.27C2.50495 213.6 3.68824 200.015 4.27301 186.372C4.943 170.74 5.08411 155.166 5.08411 139.516C5.08411 131.346 7.55487 122.909 8.69292 114.828C9.62414 108.215 10.4773 101.768 13.1606 95.5837C16.5379 87.7997 19.9467 80.7355 24.5771 73.6796C31.2701 63.4806 40.1148 56.0165 49.7023 48.6899C54.2785 45.1928 59.6684 42.9492 64.6182 40.0401C68.698 37.6422 72.8434 35.0019 77.3137 33.3868C81.0808 32.0258 84.2058 29.6569 87.7521 27.8409C92.97 25.169 99.3707 23.3701 105.005 21.6929C111.966 19.6205 119.184 19.3029 126.236 17.7351C128.217 17.2946 130.705 18.0069 132.69 18.2143C136.411 18.6027 140.038 18.4538 143.743 19.0789C151.028 20.3079 158.585 21.2414 165.985 21.2414C174.645 21.2414 185.947 20.636 193.937 24.6694C198.934 27.1917 203.698 30.041 208.682 32.5482C216.024 36.2422 223.419 40.5986 231.276 43.1294C234.377 44.1283 237.798 45.1362 240.578 46.8822C244.251 49.1889 248.545 50.4924 252.067 52.915C260.003 58.3741 266.955 63.1475 273.472 70.1625C280.396 77.6161 287.453 85.9648 293.071 94.4333C297.285 100.785 301.149 107.512 303.185 114.989C304.295 119.063 305.893 123.004 306.755 127.141C307.941 132.838 308.211 138.575 309.287 144.267C311.018 153.419 313.883 162.914 317.362 171.557C321.443 181.698 323.639 192.014 326.382 202.503C332.12 224.438 328.892 248.223 328.892 270.729C328.892 300.473 328.375 330.056 329.629 359.803C330.445 379.152 330.598 398.236 329.446 417.56C328.571 432.236 327.485 448.173 329.949 462.738C331.865 474.063 332.539 508.582 332.539 497.097" stroke="#1E1E1E" stroke-width="4" stroke-linecap="round" stroke-linejoin="round" class="UqMmcVOI_2"></path>
<path d="M273.498 486.384C273.15 487.218 284.627 489.979 286.571 490.242C290.522 490.778 294.328 491.64 298.26 492.177C302.961 492.82 306.697 492.468 310.74 494.705C313.895 496.45 317.948 496.254 321.186 497.623C323.628 498.655 326.312 500.081 329.053 500.018C330.537 499.983 334.133 502.239 333.379 500.041" stroke="#1E1E1E" stroke-width="4" stroke-linecap="round" stroke-linejoin="round" class="UqMmcVOI_3"></path>
<path d="M68.7577 441.682C68.9691 437.383 76.9079 434.593 80.0832 433.117C83.776 431.399 87.0778 429.139 90.6471 427.376C93.0041 426.211 97.3999 421.225 99.6878 421.225" stroke="#1E1E1E" stroke-width="4" stroke-linecap="round" stroke-linejoin="round" class="UqMmcVOI_4"></path>
<path d="M100.745 420.437C100.745 407.677 101.307 395.128 102.682 382.42C103.886 371.294 103.387 359.856 103.387 348.675C103.387 339.463 103.187 330.001 102.46 320.806C101.037 302.828 101.232 284.682 101.232 266.661C101.232 247.744 103.109 228.725 102.017 209.844C101.129 194.498 101.708 178.867 101.708 163.459C101.708 150.034 103.73 136.537 106.65 123.493C109.597 110.327 115.816 99.4533 122.126 87.6565C124.12 83.9296 127.483 80.1468 131.944 79.7799" stroke="#1E1E1E" stroke-width="4" stroke-linecap="round" stroke-linejoin="round" class="UqMmcVOI_5"></path>
<path d="M334.591 498.426C333.595 498.426 334.285 498.423 334.91 498.02C337.617 496.276 339.855 494.376 342.348 492.363C345.612 489.728 350.215 487.095 354.175 485.63C357.781 484.295 366.133 481.777 368.382 478.399" stroke="#1E1E1E" stroke-width="4" stroke-linecap="round" stroke-linejoin="round" class="UqMmcVOI_6"></path>
<path d="M368.738 479.208C368.738 461.935 367.699 444.729 366.801 427.496C365.636 405.11 366.992 382.633 366.316 360.228C365.799 343.096 364.355 326.553 365.362 309.376C365.955 299.263 366.645 289.052 367.856 278.989C369.263 267.308 368.334 254.916 368.334 243.169C368.334 223.597 367.833 203.763 366.268 184.25C365.23 171.304 365.044 157.3 360.539 145.022C357.842 137.668 355.787 129.927 352.65 122.723C350.884 118.665 349.416 114.501 347.403 110.546C344.132 104.117 343.272 97.2944 339.235 91.1402C333.159 81.8766 327.958 72.3815 320.709 63.8841C316.845 59.3541 312.724 55.4878 308.733 50.9862C300.272 41.4419 289.77 35.6963 277.934 31.4171C269.521 28.3752 262.292 21.9243 254.481 17.5562C245.879 12.7456 236.167 9.38342 226.923 6.07721C224.423 5.18322 222.141 3.92506 219.575 3.28515C215.072 2.16232 210.594 4.23635 206.223 3.23057C202.921 2.47061 198.353 2.5023 195.034 2.91897C191.547 3.35665 188.533 2.50879 185.115 2.50879C181.565 2.50879 178.7 4.11287 175.286 4.77096C164.72 6.80804 153.51 5.60409 142.813 7.41515C135.448 8.66213 129.21 12.9576 122.347 15.1259C115.891 17.1655 108.665 18.6072 102.689 21.7276" stroke="#1E1E1E" stroke-width="4" stroke-linecap="round" stroke-linejoin="round" class="UqMmcVOI_7"></path>
<path d="M201.136 27.8264C201.291 26.169 204.801 23.8362 206 22.8969C209.154 20.424 212.743 18.3612 215.733 15.7068C216.981 14.5984 218.14 13.3821 219.478 12.3783C220.779 11.4017 222.298 10.8398 223.634 9.92161C224.719 9.17511 225.917 7.64128 227.263 7.3421" stroke="#1E1E1E" stroke-width="4" stroke-linecap="round" stroke-linejoin="round" class="UqMmcVOI_8"></path>
<path d="M121.655 18.9599C120.793 18.9599 121.366 20.2892 121.53 20.8543C122.575 24.4572 123.054 28.0284 123.759 31.7064C125.462 40.5956 126.993 49.7042 129.354 58.4508C130.504 62.712 131.743 67.1822 133.616 71.1977C134.019 72.0606 134.267 72.9965 134.718 73.8298C135.456 75.1931 135.649 77.4703 136.615 78.6195C136.911 78.9711 136.671 77.7015 136.671 77.242" stroke="#1E1E1E" stroke-width="4" stroke-linecap="round" stroke-linejoin="round" class="UqMmcVOI_9"></path>
<path d="M187.118 85.4091C187.118 80.4619 190.417 75.2536 191.613 70.4975C192.525 66.8674 194.28 63.3313 194.939 59.6717C195.505 56.5249 195.779 53.2749 196.63 50.1916C197.103 48.4755 201.973 29.3901 200.646 29.4985" stroke="#1E1E1E" stroke-width="4" stroke-linecap="round" stroke-linejoin="round" class="UqMmcVOI_10"></path>
<path d="M25.4866 374.411C28.7049 373.654 33.5221 373.797 36.7952 374.411" stroke="#1E1E1E" stroke-width="4" stroke-linecap="round" stroke-linejoin="round" class="UqMmcVOI_11"></path>
<path d="M80.7667 372.027C80.8611 371.649 93.5221 364.388 94.6402 363.965" stroke="#1E1E1E" stroke-width="4" stroke-linecap="round" stroke-linejoin="round" class="UqMmcVOI_12"></path>
<path d="M24.6705 302.12C26.0947 300.979 31.5213 303.252 33.3366 303.364" stroke="#1E1E1E" stroke-width="4" stroke-linecap="round" stroke-linejoin="round" class="UqMmcVOI_13"></path>
<path d="M75.6564 295.77C79.6232 294.233 83.5394 292.953 86.7125 289.938" stroke="#1E1E1E" stroke-width="4" stroke-linecap="round" stroke-linejoin="round" class="UqMmcVOI_14"></path>
<path d="M18.9773 233.846C23.1477 233.846 27.2671 234.598 31.4324 234.598" stroke="#1E1E1E" stroke-width="4" stroke-linecap="round" stroke-linejoin="round" class="UqMmcVOI_15"></path>
<path d="M75.8313 227.833C79.4132 227.833 86.1252 228.804 88.2086 224.956" stroke="#1E1E1E" stroke-width="4" stroke-linecap="round" stroke-linejoin="round" class="UqMmcVOI_16"></path>
<path d="M25.5643 155.956C28.9743 156.514 37.0802 157.719 39.5932 160.078" stroke="#1E1E1E" stroke-width="4" stroke-linecap="round" stroke-linejoin="round" class="UqMmcVOI_17"></path>
<path d="M80.7667 162.125C84.0075 161.741 87.4157 162.048 90.6763 162.048" stroke="#1E1E1E" stroke-width="4" stroke-linecap="round" stroke-linejoin="round" class="UqMmcVOI_18"></path>
<path d="M52.806 75.4225C53.9689 77.6531 61.513 82.9618 63.8621 83.3281" stroke="#1E1E1E" stroke-width="4" stroke-linecap="round" stroke-linejoin="round" class="UqMmcVOI_19"></path>
<path d="M97.4382 107.615C99.4177 107.615 101.263 107.742 103.209 107.952" stroke="#1E1E1E" stroke-width="4" stroke-linecap="round" stroke-linejoin="round" class="UqMmcVOI_20"></path>
<path d="M244.139 105.231C244.139 99.881 250.655 93.2148 253.544 89.0046" stroke="#1E1E1E" stroke-width="4" stroke-linecap="round" stroke-linejoin="round" class="UqMmcVOI_21"></path>
<path d="M272.935 50.9798C272.935 47.6803 275.026 44.8464 275.831 41.6744" stroke="#1E1E1E" stroke-width="4" stroke-linecap="round" stroke-linejoin="round" class="UqMmcVOI_22"></path>
<path d="M277.89 163.784C278.645 162.185 288.205 161.704 290.442 159.326" stroke="#1E1E1E" stroke-width="4" stroke-linecap="round" stroke-linejoin="round" class="UqMmcVOI_23"></path>
<path d="M325.923 132.913C327.539 127.195 336.545 122.538 339.777 117.102" stroke="#1E1E1E" stroke-width="4" stroke-linecap="round" stroke-linejoin="round" class="UqMmcVOI_24"></path>
<path d="M288.461 225.448C293.564 225.448 299.436 224.25 304.374 223.064" stroke="#1E1E1E" stroke-width="4" stroke-linecap="round" stroke-linejoin="round" class="UqMmcVOI_25"></path>
<path d="M342.75 215.728C345.119 212.232 349.741 210.796 352.97 208.341" stroke="#1E1E1E" stroke-width="4" stroke-linecap="round" stroke-linejoin="round" class="UqMmcVOI_26"></path>
<path d="M291.181 298.569C291.365 296.91 305.661 297.749 307.425 298.258" stroke="#1E1E1E" stroke-width="4" stroke-linecap="round" stroke-linejoin="round" class="UqMmcVOI_27"></path>
<path d="M343.158 298.75C347.025 298.365 350.874 297.79 354.719 297.351" stroke="#1E1E1E" stroke-width="4" stroke-linecap="round" stroke-linejoin="round" class="UqMmcVOI_28"></path>
<path d="M288.033 361.581C292.932 361.581 297.989 361.117 302.723 362.566" stroke="#1E1E1E" stroke-width="4" stroke-linecap="round" stroke-linejoin="round" class="UqMmcVOI_29"></path>
<path d="M342.827 366.091C345.826 365.326 350.904 363.55 352.154 360.492" stroke="#1E1E1E" stroke-width="4" stroke-linecap="round" stroke-linejoin="round" class="UqMmcVOI_30"></path>
<path d="M287.8 423.893C293.9 423.893 303.002 426.734 308.26 429.984" stroke="#1E1E1E" stroke-width="4" stroke-linecap="round" stroke-linejoin="round" class="UqMmcVOI_31"></path>
<path d="M343.002 433.043C347.182 430.421 350.826 428.547 354.214 424.8" stroke="#1E1E1E" stroke-width="4" stroke-linecap="round" stroke-linejoin="round" class="UqMmcVOI_32"></path>
<path d="M143.134 408.047C143.134 406.507 140.366 402.959 139.637 401.663C135.964 395.137 132.965 388.309 129.553 381.647C125.639 374.002 120.662 366.945 116.997 359.151C114.695 354.255 118.985 358.388 121.168 359.741C126.754 363.201 133.606 367.264 139.988 368.932C144.013 369.984 156.174 372.272 152.014 372.272C146.898 372.272 142.443 371.564 137.67 374.235C135.598 375.395 132.747 377.142 131.165 378.901C130.414 379.735 132.55 375.036 132.825 374.062C133.712 370.92 134.095 367.532 134.201 364.272C134.373 359.022 133.462 353.965 131.83 348.967C130.7 345.502 128.593 342.287 126.639 339.225C124.924 336.535 122.282 334.517 120.827 331.674C120.748 331.519 124.269 335.516 125.594 336.589C127.501 338.134 129.598 339.03 131.289 340.858C133.147 342.866 135.696 345.745 138.46 346.393C140.267 346.816 144.836 347.669 146.255 345.708C148.871 342.092 146.326 335.397 145.111 331.746C142.528 323.988 139.001 316.381 137.136 308.411C136.539 305.857 136.09 297.99 136.09 300.612C136.09 302.81 136.652 304.881 137.06 307.014C137.708 310.401 140.149 314.301 144.082 314.209C147.871 314.121 145.952 304.669 145.334 303.15C144.456 300.995 142.29 296.522 139.108 297.784C138.276 298.114 136.248 298.918 137.458 300.148C141.147 303.901 139.529 289.233 139.351 288.044C138.143 279.995 138.329 270.388 134.503 262.916C132.136 258.292 134.867 263.702 137.071 262.428C140.804 260.269 145.893 261.43 147.36 265.705C147.904 267.289 146.024 272.419 144.815 269.54C144.154 267.964 145.149 263.201 145.6 261.735C146.255 259.605 145.754 257.588 146.196 255.521C146.254 255.25 148.267 252.814 148.44 252.814" stroke="#1E1E1E" stroke-width="4" stroke-linecap="round" stroke-linejoin="round" class="UqMmcVOI_33"></path>
<path d="M122.471 347.959C122.471 342.207 123.817 335.953 124.8 330.305C125.391 326.905 125.868 316.556 125.868 320.007" stroke="#1E1E1E" stroke-width="4" stroke-linecap="round" stroke-linejoin="round" class="UqMmcVOI_34"></path>
<path d="M122.391 226.609C122.026 226.041 121.497 225.901 121.032 225.511C119.622 224.33 124.086 227.562 125.611 228.59C125.969 228.831 129.581 231.784 130.016 231.13C130.967 229.703 132.765 220.015 131.933 220.211" stroke="#1E1E1E" stroke-width="4" stroke-linecap="round" stroke-linejoin="round" class="UqMmcVOI_35"></path>
<path d="M126.757 218.305C131.906 218.305 137.344 218.073 142.375 219.358" stroke="#1E1E1E" stroke-width="4" stroke-linecap="round" stroke-linejoin="round" class="UqMmcVOI_36"></path>
<path d="M140.976 207.215H141.396" stroke="#1E1E1E" stroke-width="4" stroke-linecap="round" stroke-linejoin="round" class="UqMmcVOI_37"></path>
<path d="M134.441 206.495C134.262 206.52 134.221 206.589 134.221 206.748" stroke="#1E1E1E" stroke-width="4" stroke-linecap="round" stroke-linejoin="round" class="UqMmcVOI_38"></path>
<path d="M130.534 193.486C128.461 191.892 126.915 189.611 125.171 187.672C124.187 186.578 123.55 186.281 125.507 186.609C130.412 187.431 135.367 188.222 140.298 188.871C140.656 188.919 143.2 189.297 142.585 189.42" stroke="#1E1E1E" stroke-width="4" stroke-linecap="round" stroke-linejoin="round" class="UqMmcVOI_39"></path>
<path d="M131.514 176.677C131.105 176.289 125.197 169.598 125.48 169.082C125.912 168.292 139.877 171.37 141.614 171.634C142.514 171.771 148.111 172.53 146.911 172.785" stroke="#1E1E1E" stroke-width="4" stroke-linecap="round" stroke-linejoin="round" class="UqMmcVOI_40"></path>
<style data-made-with="vivus-instant">.UqMmcVOI_0{stroke-dasharray:891 893;stroke-dashoffset:892;animation:UqMmcVOI_draw 1333ms linear 0ms forwards;}.UqMmcVOI_1{stroke-dasharray:65 67;stroke-dashoffset:66;animation:UqMmcVOI_draw 1333ms linear 16ms forwards;}.UqMmcVOI_2{stroke-dasharray:1083 1085;stroke-dashoffset:1084;animation:UqMmcVOI_draw 1333ms linear 33ms forwards;}.UqMmcVOI_3{stroke-dasharray:63 65;stroke-dashoffset:64;animation:UqMmcVOI_draw 1333ms linear 49ms forwards;}.UqMmcVOI_4{stroke-dasharray:38 40;stroke-dashoffset:39;animation:UqMmcVOI_draw 1333ms linear 66ms forwards;}.UqMmcVOI_5{stroke-dasharray:350 352;stroke-dashoffset:351;animation:UqMmcVOI_draw 1333ms linear 83ms forwards;}.UqMmcVOI_6{stroke-dasharray:41 43;stroke-dashoffset:42;animation:UqMmcVOI_draw 1333ms linear 99ms forwards;}.UqMmcVOI_7{stroke-dasharray:666 668;stroke-dashoffset:667;animation:UqMmcVOI_draw 1333ms linear 116ms forwards;}.UqMmcVOI_8{stroke-dasharray:34 36;stroke-dashoffset:35;animation:UqMmcVOI_draw 1333ms linear 133ms forwards;}.UqMmcVOI_9{stroke-dasharray:64 66;stroke-dashoffset:65;animation:UqMmcVOI_draw 1333ms linear 149ms forwards;}.UqMmcVOI_10{stroke-dasharray:58 60;stroke-dashoffset:59;animation:UqMmcVOI_draw 1333ms linear 166ms forwards;}.UqMmcVOI_11{stroke-dasharray:12 14;stroke-dashoffset:13;animation:UqMmcVOI_draw 1333ms linear 183ms forwards;}.UqMmcVOI_12{stroke-dasharray:17 19;stroke-dashoffset:18;animation:UqMmcVOI_draw 1333ms linear 199ms forwards;}.UqMmcVOI_13{stroke-dasharray:9 11;stroke-dashoffset:10;animation:UqMmcVOI_draw 1333ms linear 216ms forwards;}.UqMmcVOI_14{stroke-dasharray:13 15;stroke-dashoffset:14;animation:UqMmcVOI_draw 1333ms linear 233ms forwards;}.UqMmcVOI_15{stroke-dasharray:13 15;stroke-dashoffset:14;animation:UqMmcVOI_draw 1333ms linear 249ms forwards;}.UqMmcVOI_16{stroke-dasharray:14 16;stroke-dashoffset:15;animation:UqMmcVOI_draw 1333ms linear 266ms forwards;}.UqMmcVOI_17{stroke-dasharray:15 17;stroke-dashoffset:16;animation:UqMmcVOI_draw 1333ms linear 283ms forwards;}.UqMmcVOI_18{stroke-dasharray:10 12;stroke-dashoffset:11;animation:UqMmcVOI_draw 1333ms linear 299ms forwards;}.UqMmcVOI_19{stroke-dasharray:14 16;stroke-dashoffset:15;animation:UqMmcVOI_draw 1333ms linear 316ms forwards;}.UqMmcVOI_20{stroke-dasharray:6 8;stroke-dashoffset:7;animation:UqMmcVOI_draw 1333ms linear 333ms forwards;}.UqMmcVOI_21{stroke-dasharray:20 22;stroke-dashoffset:21;animation:UqMmcVOI_draw 1333ms linear 349ms forwards;}.UqMmcVOI_22{stroke-dasharray:10 12;stroke-dashoffset:11;animation:UqMmcVOI_draw 1333ms linear 366ms forwards;}.UqMmcVOI_23{stroke-dasharray:14 16;stroke-dashoffset:15;animation:UqMmcVOI_draw 1333ms linear 383ms forwards;}.UqMmcVOI_24{stroke-dasharray:22 24;stroke-dashoffset:23;animation:UqMmcVOI_draw 1333ms linear 399ms forwards;}.UqMmcVOI_25{stroke-dasharray:17 19;stroke-dashoffset:18;animation:UqMmcVOI_draw 1333ms linear 416ms forwards;}.UqMmcVOI_26{stroke-dasharray:13 15;stroke-dashoffset:14;animation:UqMmcVOI_draw 1333ms linear 433ms forwards;}.UqMmcVOI_27{stroke-dasharray:17 19;stroke-dashoffset:18;animation:UqMmcVOI_draw 1333ms linear 449ms forwards;}.UqMmcVOI_28{stroke-dasharray:12 14;stroke-dashoffset:13;animation:UqMmcVOI_draw 1333ms linear 466ms forwards;}.UqMmcVOI_29{stroke-dasharray:15 17;stroke-dashoffset:16;animation:UqMmcVOI_draw 1333ms linear 483ms forwards;}.UqMmcVOI_30{stroke-dasharray:12 14;stroke-dashoffset:13;animation:UqMmcVOI_draw 1333ms linear 499ms forwards;}.UqMmcVOI_31{stroke-dasharray:22 24;stroke-dashoffset:23;animation:UqMmcVOI_draw 1333ms linear 516ms forwards;}.UqMmcVOI_32{stroke-dasharray:14 16;stroke-dashoffset:15;animation:UqMmcVOI_draw 1333ms linear 533ms forwards;}.UqMmcVOI_33{stroke-dasharray:378 380;stroke-dashoffset:379;animation:UqMmcVOI_draw 1333ms linear 549ms forwards;}.UqMmcVOI_34{stroke-dasharray:30 32;stroke-dashoffset:31;animation:UqMmcVOI_draw 1333ms linear 566ms forwards;}.UqMmcVOI_35{stroke-dasharray:25 27;stroke-dashoffset:26;animation:UqMmcVOI_draw 1333ms linear 583ms forwards;}.UqMmcVOI_36{stroke-dasharray:16 18;stroke-dashoffset:17;animation:UqMmcVOI_draw 1333ms linear 599ms forwards;}.UqMmcVOI_37{stroke-dasharray:1 3;stroke-dashoffset:2;animation:UqMmcVOI_draw 1333ms linear 616ms forwards;}.UqMmcVOI_38{stroke-dasharray:1 3;stroke-dashoffset:2;animation:UqMmcVOI_draw 1333ms linear 633ms forwards;}.UqMmcVOI_39{stroke-dasharray:29 31;stroke-dashoffset:30;animation:UqMmcVOI_draw 1333ms linear 649ms forwards;}.UqMmcVOI_40{stroke-dasharray:32 34;stroke-dashoffset:33;animation:UqMmcVOI_draw 1333ms linear 666ms forwards;}@keyframes UqMmcVOI_draw{100%{stroke-dashoffset:0;}}@keyframes UqMmcVOI_fade{0%{stroke-opacity:1;}93.54838709677419%{stroke-opacity:1;}100%{stroke-opacity:0;}}</style></svg>
