<svg width="381" height="520" viewBox="0 0 381 520" fill="none" xmlns="http://www.w3.org/2000/svg">
<path d="M69.8959 307.934C69.7499 309.393 63.8737 303.914 63.4796 303.553C59.2934 299.721 59.5522 294.684 58.551 289.428C56.2316 277.251 70.8003 272.851 80.812 273.939C88.7339 274.8 95.9935 285.915 95.6247 293.276C95.3268 299.22 88.9923 305.068 85.365 309.37" stroke="#1E1E1E" stroke-width="4" stroke-linecap="round" stroke-linejoin="round"/>
<path d="M71.1295 310.338C70.4389 311.486 70.3904 313.79 70.0827 315.072C69.1345 319.021 67.6064 322.709 66.1553 326.488C64.2596 331.424 62.5257 336.398 61.2105 341.52C59.9967 346.247 57.6448 350.631 57.0842 355.508C56.5044 360.553 56.5678 359.276 62.0733 360.084C71.0299 361.398 79.504 359.328 88.3672 359.041C90.4145 358.975 92.4144 359.24 94.4481 359.24C95.1793 359.24 93.1068 349.722 92.9874 349.165C90.9368 339.612 88.7765 329.99 86.3628 320.518C85.6169 317.591 84.6877 314.264 84.6877 311.209" stroke="#1E1E1E" stroke-width="4" stroke-linecap="round" stroke-linejoin="round"/>
<path d="M33.5876 446.881C33.4096 454.18 42.5071 455.152 47.1807 450.898C52.7949 445.788 47.204 440.314 41.4975 440.314" stroke="#1E1E1E" stroke-width="4" stroke-linecap="round" stroke-linejoin="round"/>
<path d="M104.571 447.091C103.462 447.167 103.936 450.527 104.008 451.182C104.477 455.45 109.842 455.964 113.224 455.83C119.535 455.579 122.854 448.352 120.234 442.928" stroke="#1E1E1E" stroke-width="4" stroke-linecap="round" stroke-linejoin="round"/>
<path d="M44.376 66.7764C44.376 61.1876 35.7449 62.0614 33.1065 64.8197C24.4876 73.83 39.989 86.1063 44.63 76.0051" stroke="#1E1E1E" stroke-width="4" stroke-linecap="round" stroke-linejoin="round"/>
<path d="M107.039 67.7606C100.911 74.6069 114.776 79.5136 119.812 77.1022C122.877 75.6346 125.401 64.8887 120.694 64.8887" stroke="#1E1E1E" stroke-width="4" stroke-linecap="round" stroke-linejoin="round"/>
<path d="M2.92746 47.3024C4.21438 48.8871 12.8074 46.8068 14.2817 46.225C18.5362 44.5463 21.8172 43.4866 25.05 40.1263C28.0941 36.9623 30.8506 34.9358 32.8605 30.9066C34.8003 27.0179 37.0952 23.6118 39.8284 20.2311C46.3405 12.1765 55.3735 5.31954 66.0094 3.68825C72.1371 2.74841 79.5482 1.32095 85.4994 3.70259C92.8213 6.63277 99.7889 11.7122 105.648 16.92C111.531 22.1492 117.696 27.2508 123.367 32.6867C126.811 35.9887 131.878 37.7672 136.66 37.7672C137.328 37.7672 140.659 38.4084 140.989 37.8801" stroke="#1E1E1E" stroke-width="4" stroke-linecap="round" stroke-linejoin="round"/>
<path d="M142.005 40.8488C144.019 27.9521 140.517 66.9265 140.517 79.9795C140.517 92.8369 140.326 106.133 141.397 118.931C142.074 127.01 141.605 135.296 141.605 143.41C141.605 148.133 142.887 152.689 142.887 157.45" stroke="#1E1E1E" stroke-width="4" stroke-linecap="round" stroke-linejoin="round"/>
<path d="M4.77794 471.227C0.991351 471.227 13.3122 469.568 16.102 472.128C17.8381 473.721 20.0718 476.272 20.6247 478.556C21.7219 483.087 24.6373 486.856 26.9596 490.837C37.2123 508.412 68.6097 525.532 88.351 514.424C98.5162 508.704 105.893 503.221 113.752 494.503C118.235 489.53 122.861 482.964 128.082 478.776C131.396 476.118 134.831 472.657 139.341 472.335C140.131 472.279 150.023 471.584 150.023 472.921" stroke="#1E1E1E" stroke-width="4" stroke-linecap="round" stroke-linejoin="round"/>
<path d="M145.149 159.758C149.221 159.758 137.007 160.009 132.946 160.297C123.371 160.977 113.541 162.266 104.1 164.061C90.023 166.737 74.7194 169.197 62.2493 176.68C51.2825 183.262 43.0942 197.635 48.9747 210.451C52.5358 218.212 56.3666 221.718 63.5555 225.886C70.5731 229.955 82.2056 229.134 88.9786 225.397C107.613 215.114 121.296 196.903 143.487 193.307C151.388 192.026 160.233 191.257 168.202 192.252C177.127 193.366 185.745 196.721 194.474 198.829C206.57 201.75 218.239 204.644 230.653 206.189C246.162 208.119 262.636 210.769 277.406 215.824C285.238 218.504 294.728 217.566 302.891 217.566C311.451 217.566 319.821 216.136 328.131 214.19C336.593 212.207 343.965 210.134 351.412 205.394C358.774 200.708 364.63 194.531 371.172 188.914C377.084 183.839 380.48 177.703 377.722 170.344C374.898 162.81 365.541 161.785 358.635 163.521C340.751 168.018 325.08 178.793 307.299 183.724C291.291 188.163 271.373 190.348 255.059 185.15C236.493 179.234 217.143 174.249 197.836 171.195C184.823 169.136 172.195 164.628 159.145 162.988C154.816 162.444 150.413 162.096 146.068 161.721C143.292 161.48 135.969 161.097 134.046 159.596" stroke="#1E1E1E" stroke-width="4" stroke-linecap="round" stroke-linejoin="round"/>
<path d="M104.62 157.289C104.073 157.289 101.259 152.743 100.72 152.153C97.2463 148.352 93.4341 144.415 88.6897 142.134C80.5983 138.244 69.6552 137.202 61.0802 139.925C53.5238 142.324 51.0338 150.806 49.3591 157.35C48.2202 161.8 48.3539 167.112 49.3046 171.575C49.672 173.299 51.4152 175.74 51.4152 177.392" stroke="#1E1E1E" stroke-width="4" stroke-linecap="round" stroke-linejoin="round"/>
<path d="M93.6257 160.984C93.2894 161.328 93.4216 159.14 93.2991 158.823C92.4641 156.666 89.129 155.06 87.2504 154.017C82.8193 151.557 77.3713 150.445 72.2933 151.305C67.4133 152.131 63.6884 155.345 61.3214 159.479C58.2434 164.853 61.2144 168.188 65.9409 171.342" stroke="#1E1E1E" stroke-width="4" stroke-linecap="round" stroke-linejoin="round"/>
<path d="M4.00389 470.049C2.05257 454.439 4.1897 438.564 3.19489 422.782C2.45661 411.069 3.08469 399.136 3.08469 387.405C3.08469 376.777 4.57234 366.173 4.57234 355.609C4.57234 335.079 2.53079 314.464 3.51741 293.97C4.73972 268.581 5.03686 242.916 5.23755 217.516C5.30924 208.443 5.03194 199.175 5.03194 190.023C5.03194 184.491 4.87471 178.97 4.87471 173.439C4.87471 167.564 5.8176 161.222 5.04807 155.412C3.67694 145.06 5.64877 135.809 5.64877 125.56C5.64877 115.341 7.58247 104.636 6.90998 94.5889C6.51679 88.7144 5.7302 82.8664 5.40352 76.9498C5.20516 73.3572 6.58006 69.8379 6.58006 66.2161C6.58006 62.923 5.99266 59.933 6.18967 56.5777C6.26491 55.2964 6.0585 50.8153 5.13206 49.9197C3.98033 48.8064 4.73464 47.0416 4.87471 48.6415" stroke="#1E1E1E" stroke-width="4" stroke-linecap="round" stroke-linejoin="round"/>
<path d="M143.915 195.737C143.915 196.908 142.936 197.939 142.936 199.111C142.936 203.705 142.18 208.535 141.857 213.14C141.189 222.647 141.004 232.347 141.411 241.875C141.887 253.032 140.517 264.12 140.517 275.271C140.517 286.252 141.702 297.204 141.702 308.159C141.702 342.12 144.883 375.829 144.883 409.803C144.883 423.606 145.959 437.398 145.959 451.194C145.959 455.003 146.371 458.745 146.371 462.532C146.371 465.51 147.048 468.439 147.048 471.428C147.048 472.404 146.65 474.481 147.096 475.374" stroke="#1E1E1E" stroke-width="4" stroke-linecap="round" stroke-linejoin="round"/>
<path d="M165.139 238.848C165.139 236.392 164.648 234.555 165.902 232.07C168.476 226.969 177.684 227.25 182.564 226.185C191.055 224.333 199.384 222.714 206.864 218.171C208.774 217.011 211.602 215.563 211.602 212.979C211.602 210.853 207.015 211.897 206.294 212.584C201.321 217.326 199.64 224.213 196.757 230.159C192.198 239.561 187.916 249.007 181.356 257.231C179.097 260.063 173.401 266.616 169.227 266.505C165.285 266.4 167.325 261.897 168.659 260.47C172.929 255.905 178.562 251.269 183.772 247.839C191.661 242.647 200.345 238.443 209.345 235.567C213.463 234.251 217.37 230.847 210.771 234.329C208.325 235.62 204.796 238.323 204.009 241.213C202.961 245.058 209.995 243.476 211.612 242.849C215.362 241.396 220.853 239.363 221.655 234.908C222.242 231.645 219.336 231.986 217.208 233.296C216.012 234.032 215.266 235.603 216.976 236.236C220.726 237.624 226.361 234.557 229.961 233.75C235.559 232.497 241.078 233.03 246.716 233.03C247.608 233.03 246.13 232.19 245.72 232.158C241.875 231.86 238.499 233.624 235.172 235.336C233.824 236.03 227.489 241.178 232.213 242.094C237.893 243.195 240.805 239.898 244.597 236.428C250.348 231.165 239.712 243.6 246.157 243.165C250.845 242.847 254.803 237.053 259.366 235.723C260.847 235.291 268.324 231.909 263.735 234.118C259.81 236.007 254.758 237.932 254.758 243.014C254.758 245.873 263.687 244.63 265.306 243.719C269.122 241.573 277.87 234.208 267.918 234.703C266.498 234.774 266.485 236.875 267.208 237.679C269.025 239.7 274.048 238.486 276.501 237.998" stroke="#1E1E1E" stroke-width="4" stroke-linecap="round" stroke-linejoin="round"/>
<path d="M237.959 226.405C237.959 222.757 239.989 222.24 243.199 222.629C244.847 222.828 246.708 223.452 248.086 222.236C249.043 221.391 250.024 219.441 251.396 219.282" stroke="#1E1E1E" stroke-width="4" stroke-linecap="round" stroke-linejoin="round"/>
<path d="M295.772 234.613C297.52 233.402 298.923 231.237 300.244 229.613C300.438 229.374 302.848 227.028 302.856 227.218C303.069 232.118 299.503 238.033 298.288 242.893" stroke="#1E1E1E" stroke-width="4" stroke-linecap="round" stroke-linejoin="round"/>
<path d="M315.318 228.047C315.318 226.88 311.253 231.735 311.155 231.89C308.434 236.205 308.677 241.583 314.91 242.03C317.64 242.226 321.938 237.251 322.517 234.692C323.677 229.57 318.868 225.097 314.472 228.735" stroke="#1E1E1E" stroke-width="4" stroke-linecap="round" stroke-linejoin="round"/>
<path d="M335.149 238.189H335.336" stroke="#1E1E1E" stroke-width="4" stroke-linecap="round" stroke-linejoin="round"/>
<path d="M337.434 227.622C337.48 227.459 337.553 227.306 337.621 227.153" stroke="#1E1E1E" stroke-width="4" stroke-linecap="round" stroke-linejoin="round"/>
<path d="M360.716 221.656C362.389 219.425 358.128 217.626 356.619 217.577C351.476 217.411 347.01 226.073 354.525 225.552C356.851 225.39 360.429 221.605 360.428 221.745C360.406 223.604 358.697 238.71 357.123 239.215" stroke="#1E1E1E" stroke-width="4" stroke-linecap="round" stroke-linejoin="round"/>
</svg>
