<svg width="421" height="351" viewBox="0 0 421 351" fill="none" xmlns="http://www.w3.org/2000/svg" style="">
<path d="M30.7148 212.142C30.0036 213.262 32.7887 214.154 33.7076 214.361C37.08 215.12 40.3334 213.364 43.4564 212.432C47.8718 211.113 51.7318 209.598 54.8612 206.012C57.3264 203.187 60.3084 201.006 60.9232 197.12C61.9852 190.407 59.7743 185.311 58.3389 179.088C58.1698 178.355 57.4705 177.812 58.0809 177.154C62.6116 172.27 67.3101 167.081 72.2752 162.657C78.9072 156.748 84.7035 149.34 91.6033 143.951C92.639 143.142 93.6583 142.257 94.6964 141.459C95.3214 140.978 97.4481 142.56 97.9826 142.854C99.8554 143.885 101.937 143.838 104.022 143.838C112.466 143.838 117.761 143.143 121.388 134.89C122.866 131.525 122.47 127.617 122.47 124.029C122.47 123.254 122.767 121.81 122.436 121.074" stroke="#1E1E1E" stroke-width="4" stroke-linecap="round" stroke-linejoin="round" class="MWoLtPyv_0"></path>
<path d="M120.818 121.684C120.818 120.525 124.046 118.858 124.852 118.34C128.078 116.265 131.373 114.288 134.508 112.075C142.939 106.121 150.913 99.4766 159.294 93.4178C161.065 92.1375 175.216 79.2789 176.877 80.8351C181.896 85.5359 191.122 88.5471 197.427 84.8627C201.669 82.3842 203.73 75.5136 205.6 71.281C206.688 68.8167 208.526 66.2779 209.391 63.7532C209.938 62.1588 214.498 60.1843 215.896 59.4311C220.233 57.0941 224.4 54.7358 228.432 51.8882C234.694 47.4667 241.692 44.3852 248.38 40.6769C253.439 37.8722 258.547 34.744 263.973 32.7171C264.136 32.6562 264.38 33.5681 264.428 33.6791C264.776 34.4837 265.372 35.1262 265.995 35.7281C267.205 36.8952 268.207 38.4335 269.852 39.0242C273.912 40.4827 280.051 38.4178 283.993 37.1266C289.013 35.4821 291.591 31.1993 294.483 27.1686C295.026 26.4114 297.429 22.5909 298.159 22.5909" stroke="#1E1E1E" stroke-width="4" stroke-linecap="round" stroke-linejoin="round" class="MWoLtPyv_1"></path>
<path d="M296.185 24.9533C295.054 24.9533 300.204 21.2702 300.591 21.0425C305.315 18.2606 310.281 16.4159 315.231 14.1803C318.557 12.6781 321.616 11.2247 325.294 11.1279C328.524 11.0428 332.33 9.43823 335.462 8.65441C340.343 7.43253 345.169 6.22203 350.126 5.32506C354.749 4.48837 361.624 1.73829 366.383 3.41234C372.128 5.43376 378.585 3.02547 384.411 4.61611C389.023 5.87539 393.606 6.46802 398.04 8.36806C401.997 10.0634 405.524 12.3627 408.09 15.8418C410.771 19.4772 414.285 21.7135 415.84 26.1476C417.468 30.7895 417.689 36.2983 417.689 41.1843C417.689 46.7314 419.562 53.3615 418.064 58.7265C416.496 64.3442 416.216 70.5242 415.334 76.2951C414.936 78.8975 413.828 80.642 412.637 82.9243C411.498 85.105 408.903 87.3654 408.452 89.7306C407.827 93.0166 405.294 95.6409 404.539 99.1045C403.331 104.641 399.851 110.381 397.362 115.454C392.854 124.643 388.191 131.963 381.381 139.634C374.988 146.836 369.739 155.259 363.852 162.906C357.456 171.213 349.826 178.565 342.314 185.84C337.203 190.79 331.308 195.324 326.704 200.724C322.89 205.198 318.359 209.174 313.653 212.706C310.06 215.402 306.953 218.555 303.407 221.323C298.308 225.304 293.07 229.924 288.421 234.424C282.771 239.892 276.337 244.725 269.707 248.957C265.98 251.336 261.895 253.017 258.192 255.47C253.506 258.573 248.911 261.872 244.016 264.643C224.23 275.845 205.594 289.563 185.071 299.446C173.15 305.186 161.857 312.427 149.771 317.769C144.635 320.039 139.16 321.967 133.939 324.053C127.343 326.689 120.574 329.116 113.87 331.463C110.133 332.772 106.666 334.702 102.933 336.061C96.8761 338.265 90.6251 339.879 84.5292 341.964C78.6982 343.958 73.9272 349.129 67.5548 348.772C62.8981 348.511 58.258 348.511 53.5968 348.393C42.803 348.12 30.8205 348.058 21.2409 342.299C18.9662 340.932 18.3944 337.89 17.0284 335.795C15.6191 333.634 13.7476 332.24 12.7156 329.775C10.8085 325.22 8.03692 321.009 6.98075 316.16C4.56273 305.06 1.18566 294.152 2.1831 282.587C2.94283 273.779 7.23537 264.951 10.2702 256.753C12.8198 249.866 15.0761 242.955 18.1727 236.282C20.0987 232.131 22.4523 228.172 24.3666 224.038C25.5511 221.48 26.3409 219.084 28.1795 216.904C28.7595 216.216 29.3753 215.525 29.9969 214.883C30.2175 214.656 30.3826 213.523 30.5369 213.973" stroke="#1E1E1E" stroke-width="4" stroke-linecap="round" stroke-linejoin="round" class="MWoLtPyv_2"></path>
<path d="M31.291 214.368C28.5917 214.368 36.8476 214.357 39.3169 215.447C43.9168 217.478 48.796 218.53 53.442 220.645C59.3235 223.322 64.0704 226.84 69.1563 230.863C74.4097 235.019 77.2529 240.969 81.5199 246.007C83.0627 247.829 83.6062 250.136 84.8042 252.152C86.1545 254.425 88.3074 256.04 89.5665 258.405C92.5595 264.028 95.97 269.058 98.2105 275.054C99.1094 277.459 99.9744 279.727 100.609 282.226C101.485 285.67 100.944 284.37 101.678 281.061C102.99 275.149 103.253 269.144 103.253 263.077C103.253 255.067 103.496 247.219 102.048 239.303C99.7263 226.608 93.2973 214.193 84.3834 204.913C80.8674 201.253 77.7669 197.061 74.0212 193.645C71.9731 191.777 70.1446 189.714 68.1381 187.809C66.2039 185.972 63.82 184.926 61.7084 183.349C59.8119 181.933 57.4038 179.872 55.1851 178.99" stroke="#1E1E1E" stroke-width="4" stroke-linecap="round" stroke-linejoin="round" class="MWoLtPyv_3"></path>
<path d="M94.3306 143.092C92.8022 143.008 97.4504 143.013 98.9056 143.488C104.505 145.315 110.248 147.807 115.462 150.528C121.134 153.488 126.368 156.924 130.9 161.481C136.469 167.081 142.404 172.959 147.228 179.225C151.333 184.557 153.28 190.982 156.146 196.99C159.322 203.649 161.814 210.628 165.055 217.284C166.352 219.948 168.809 224.214 168.809 227.236C168.809 228.991 169.237 228.551 169.488 226.987C171.463 214.7 172.971 202.187 171.893 189.694C170.576 174.423 162.673 159.583 154.905 146.74C147.552 134.585 137.441 124.074 123.732 119.503" stroke="#1E1E1E" stroke-width="4" stroke-linecap="round" stroke-linejoin="round" class="MWoLtPyv_4"></path>
<path d="M178.562 83.3783C178.89 83.3783 177.841 83.3114 177.63 83.0606C176.899 82.1951 178.531 83.6402 178.812 83.8398C183.529 87.1919 187.78 90.8553 192.641 94.0546C200.34 99.1214 206.643 106.287 213.072 112.758C216.469 116.178 220.54 118.494 223.198 122.632C225.457 126.151 227.684 129.628 230.103 133.036C232.141 135.906 233.6 139.061 235.469 142.027C237.237 144.835 239.871 147.067 241.484 149.944C243.938 154.324 246.457 160.03 247.812 164.952C248.451 167.273 249.494 170.062 249.877 172.383C250.73 177.546 250.925 161.776 249.711 156.686C248.222 150.446 248.203 143.925 246.821 137.606C245.441 131.296 243.893 125.013 242.663 118.67C241.539 112.874 240.387 105.769 237.697 100.495C235.444 96.0784 232.989 92.3933 230.137 88.3315C225.304 81.4479 220.526 74.8722 215.28 68.314C214.663 67.5421 211.804 63.9824 210.912 63.9824" stroke="#1E1E1E" stroke-width="4" stroke-linecap="round" stroke-linejoin="round" class="MWoLtPyv_5"></path>
<path d="M268.156 35.0807C266.134 35.0807 266.528 34.8246 268.249 37.1679C271.89 42.1241 276.545 45.7902 280.497 50.4282C290.592 62.2733 300.035 72.6259 304.656 87.9666C308.044 99.2134 312.205 110.515 314.334 122.088C315.074 126.109 315.608 130.215 316.6 134.184C317.565 138.047 317.453 126.25 317.453 122.267C317.453 114.858 318.128 107.397 318.31 99.9697C318.519 91.4433 317.053 83.3389 315.672 74.9776C313.822 63.7762 312.241 52.8317 308.048 42.2267C306.319 37.8526 304.085 33.1605 300.795 29.7243C299.943 28.8341 298.913 26.1557 297.592 25.8914" stroke="#1E1E1E" stroke-width="4" stroke-linecap="round" stroke-linejoin="round" class="MWoLtPyv_6"></path>
<path d="M225.71 327.741C221.924 327.741 225.187 320.434 225.825 319.249C229.566 312.288 234.962 306.479 240.769 301.148C244.739 297.504 249.761 292.892 252.885 288.467C253.923 286.998 256.873 282.745 253.115 285.145C247.606 288.662 252.037 300.698 253.643 304.743C255.406 309.184 258.335 312.708 259.26 317.528C260.486 323.913 260.477 329.998 260.477 336.513C260.477 339.858 253.704 349.569 252.302 342.792C250.88 335.921 255.892 326.976 258.118 320.659C261.904 309.914 267.464 300.69 273.058 290.815C275.368 286.739 277.941 282.83 280.406 278.849C280.635 278.479 283.18 275.15 283.196 275.252C283.362 276.337 280.493 282.114 281.892 283.144C286.35 286.426 291.108 273.773 289.224 270.804C286.313 266.214 283.878 279.462 289.6 273.18C292.739 269.734 294.835 265.641 298.22 262.451C302.494 258.424 300.935 258.45 299.176 262.289C298.155 264.517 297.604 267.132 297.604 269.579C297.604 271.764 300.571 269.956 300.994 268.891C301.757 266.97 302.282 263.679 301.611 261.635C300.867 259.373 303.671 267.113 306.049 267.232C307.604 267.31 307.917 259.841 308.146 258.815C308.911 255.386 315.41 246.801 313.349 249.647C311.383 252.36 307.873 268.029 314.546 260.835C315.717 259.573 321.319 249.338 316.821 249.338C313.394 249.338 319.79 253.883 319.79 249.009" stroke="#1E1E1E" stroke-width="4" stroke-linecap="round" stroke-linejoin="round" class="MWoLtPyv_7"></path>
<path d="M291.652 261.164C291.652 254.921 300.378 255.162 301.535 249.071" stroke="#1E1E1E" stroke-width="4" stroke-linecap="round" stroke-linejoin="round" class="MWoLtPyv_8"></path>
<path d="M341.529 215.299C341.398 214.119 337.985 220.842 337.843 221.392C336.374 227.062 338.7 235.776 345.879 235.743C348.583 235.731 350.52 229.917 349.038 227.807C344.995 222.047 340.962 233.049 340.882 235.887" stroke="#1E1E1E" stroke-width="4" stroke-linecap="round" stroke-linejoin="round" class="MWoLtPyv_9"></path>
<path d="M359.861 220.462H360.2" stroke="#1E1E1E" stroke-width="4" stroke-linecap="round" stroke-linejoin="round" class="MWoLtPyv_10"></path>
<path d="M356.593 212.235C356.349 212.235 356.331 212.223 356.331 212.482" stroke="#1E1E1E" stroke-width="4" stroke-linecap="round" stroke-linejoin="round" class="MWoLtPyv_11"></path>
<path d="M364.456 201.128C363.3 197.814 370.703 193.051 372.296 196.162C374.008 199.505 369.751 210.97 370.284 207.251C370.979 202.392 379.867 201.901 382.907 204.423C387.303 208.067 378.904 211.841 376.62 213.469" stroke="#1E1E1E" stroke-width="4" stroke-linecap="round" stroke-linejoin="round" class="MWoLtPyv_12"></path>
<path d="M377.669 185.168C377.864 183.448 381.318 180.807 382.911 180.335" stroke="#1E1E1E" stroke-width="4" stroke-linecap="round" stroke-linejoin="round" class="MWoLtPyv_13"></path>
<path d="M376.821 187.78C376.821 186.139 379.021 191.297 380.024 192.715C380.863 193.901 381.429 191.703 381.814 191.042C383.351 188.403 386.133 186.984 389.08 186.594C393.669 185.987 397.757 188.187 399.446 192.632C401.749 198.698 396.754 198.117 393.256 200.656" stroke="#1E1E1E" stroke-width="4" stroke-linecap="round" stroke-linejoin="round" class="MWoLtPyv_14"></path>
<style data-made-with="vivus-instant">.MWoLtPyv_0{stroke-dasharray:156 158;stroke-dashoffset:157;animation:MWoLtPyv_draw 1333ms linear 0ms forwards;}.MWoLtPyv_1{stroke-dasharray:224 226;stroke-dashoffset:225;animation:MWoLtPyv_draw 1333ms linear 47ms forwards;}.MWoLtPyv_2{stroke-dasharray:827 829;stroke-dashoffset:828;animation:MWoLtPyv_draw 1333ms linear 95ms forwards;}.MWoLtPyv_3{stroke-dasharray:230 232;stroke-dashoffset:231;animation:MWoLtPyv_draw 1333ms linear 142ms forwards;}.MWoLtPyv_4{stroke-dasharray:249 251;stroke-dashoffset:250;animation:MWoLtPyv_draw 1333ms linear 190ms forwards;}.MWoLtPyv_5{stroke-dasharray:241 243;stroke-dashoffset:242;animation:MWoLtPyv_draw 1333ms linear 238ms forwards;}.MWoLtPyv_6{stroke-dasharray:230 232;stroke-dashoffset:231;animation:MWoLtPyv_draw 1333ms linear 285ms forwards;}.MWoLtPyv_7{stroke-dasharray:346 348;stroke-dashoffset:347;animation:MWoLtPyv_draw 1333ms linear 333ms forwards;}.MWoLtPyv_8{stroke-dasharray:17 19;stroke-dashoffset:18;animation:MWoLtPyv_draw 1333ms linear 380ms forwards;}.MWoLtPyv_9{stroke-dasharray:51 53;stroke-dashoffset:52;animation:MWoLtPyv_draw 1333ms linear 428ms forwards;}.MWoLtPyv_10{stroke-dasharray:1 3;stroke-dashoffset:2;animation:MWoLtPyv_draw 1333ms linear 476ms forwards;}.MWoLtPyv_11{stroke-dasharray:1 3;stroke-dashoffset:2;animation:MWoLtPyv_draw 1333ms linear 523ms forwards;}.MWoLtPyv_12{stroke-dasharray:53 55;stroke-dashoffset:54;animation:MWoLtPyv_draw 1333ms linear 571ms forwards;}.MWoLtPyv_13{stroke-dasharray:8 10;stroke-dashoffset:9;animation:MWoLtPyv_draw 1333ms linear 619ms forwards;}.MWoLtPyv_14{stroke-dasharray:44 46;stroke-dashoffset:45;animation:MWoLtPyv_draw 1333ms linear 666ms forwards;}@keyframes MWoLtPyv_draw{100%{stroke-dashoffset:0;}}@keyframes MWoLtPyv_fade{0%{stroke-opacity:1;}93.54838709677419%{stroke-opacity:1;}100%{stroke-opacity:0;}}</style></svg>
