<svg width="394" height="288" viewBox="0 0 394 288" fill="none" xmlns="http://www.w3.org/2000/svg">
<path d="M2.28833 258.415C4.35785 258.415 7.67903 254.581 9.20383 253.442C15.9356 248.412 22.4897 243.563 28.5454 237.703C37.017 229.506 45.4518 221.279 54.0486 213.215C54.682 212.621 58.3007 208.914 58.3007 209.893C58.3007 220.491 50.7112 232.49 47.2186 242.341C46.3505 244.789 44.4248 257.07 41.0687 258.155C40.0972 258.469 39.584 256.136 39.363 255.635C37.5926 251.614 34.2904 248.392 30.7089 245.967C26.7278 243.273 25.9854 244.284 31.8317 244.706C39.6037 245.267 48.9117 244.763 55.5003 240.005C57.2789 238.72 56.0492 243.025 55.8527 243.928C53.5731 254.397 49.3277 264.31 47.8941 274.989C47.8399 275.393 46.6332 287.521 45.7013 285.101C43.9904 280.66 46.6929 275.165 47.7384 270.951C49.4028 264.24 49.7089 256.955 51.9998 250.429C53.7466 245.454 57.3117 237.118 63.2084 236.307C76.3213 234.503 67.0459 247.77 60.2839 250.097C59.0763 250.512 55.7862 251.945 58.7538 250.467C65.9833 246.865 75.1284 238.239 82.8298 237.228C85.0922 236.931 91.4909 234.745 89.2091 234.745C85.1953 234.745 82.0493 237.714 79.9639 240.901C74.4104 249.389 87.2254 250.905 90.6948 243.253C91.5283 241.415 92.7068 236.179 89.3472 236.179C88.5255 236.179 86.8425 237.553 87.9435 238.268C92.312 241.105 100.981 236.986 105.277 235.451C111.629 233.18 104.129 236.847 101.903 238.746C94.7878 244.819 103.686 249.807 109.459 245.596C117.163 239.976 126.593 237.162 136.131 237.162C139.922 237.162 128.225 237.701 125.065 239.796C123.574 240.784 120.024 243.841 122.487 246.011C130.451 253.026 132.595 241.288 137.856 240.049C141.496 239.191 135.926 246.395 141.249 248.304C152.57 252.362 162.44 228.686 165.294 221.57C166.65 218.187 167.481 214.445 167.481 210.794C167.481 203.669 158.892 222.753 157.635 229.766C156.863 234.069 152.297 243.919 155.216 248.188C159.1 253.868 165.893 248.497 169.803 245.543C170.871 244.736 179.534 237.506 178.08 240.968C177.586 242.146 175.592 246.851 177.256 248.045C184.508 253.245 199.588 227.769 190.382 247.492C185.808 257.291 180.443 266.892 177 277.177C176.978 277.241 181.372 266.595 182.972 263.1C186.022 256.436 194.301 235.525 203.448 234.08C212.333 232.675 201.106 243.946 198.144 245.202C195.168 246.464 188.356 247.873 195.365 247.873C201.071 247.873 207.302 243.648 211.772 240.373C214.306 238.517 217.226 236.152 219.236 233.681C219.615 233.216 220.967 230.552 220.985 230.619C221.528 232.635 228.403 245.02 227.604 245.58C225.856 246.806 220.961 247.984 218.708 248.318C218.06 248.414 223.846 248.366 225.118 247.788C229.056 246.001 239.087 238.593 232.049 236.372C229.477 235.561 229.364 242.646 229.725 244.153C230.592 247.773 240.58 247.254 243.449 247.254" stroke="#1E1E1E" stroke-width="4" stroke-linecap="round" stroke-linejoin="round"/>
<path d="M181.874 227.886C181.605 227.894 181.515 227.88 181.515 228.139" stroke="#1E1E1E" stroke-width="4" stroke-linecap="round" stroke-linejoin="round"/>
<path d="M269.032 225.468C274.571 223.592 286.974 221.548 281.189 231.606C278.611 236.087 273.88 242.753 269.533 245.732C268.957 246.126 266.273 247.668 267.172 247.34C269.316 246.558 281.595 247.79 281.739 246.636" stroke="#1E1E1E" stroke-width="4" stroke-linecap="round" stroke-linejoin="round"/>
<path d="M292.845 223.219C296.233 222.63 305.933 221.009 304.367 227.225C302.74 233.685 293.116 236.774 292.336 243.428C291.816 247.869 306.819 245.371 309.935 245.371" stroke="#1E1E1E" stroke-width="4" stroke-linecap="round" stroke-linejoin="round"/>
<path d="M324.96 241.632C324.96 241.514 324.963 241.493 324.876 241.435" stroke="#1E1E1E" stroke-width="4" stroke-linecap="round" stroke-linejoin="round"/>
<path d="M323.801 233.143H323.801" stroke="#1E1E1E" stroke-width="4" stroke-linecap="round" stroke-linejoin="round"/>
<path d="M340.006 228.223C340.661 224.982 341.439 215.103 341.439 218.409C341.439 225.879 341.798 248.287 341.798 240.817" stroke="#1E1E1E" stroke-width="4" stroke-linecap="round" stroke-linejoin="round"/>
<path d="M367.654 217.794C361.017 210.928 340.28 239.833 365.331 239.833C373.01 239.833 368.315 227.967 358.53 233.508" stroke="#1E1E1E" stroke-width="4" stroke-linecap="round" stroke-linejoin="round"/>
<path d="M205.665 5.3584C200.371 5.3584 201.97 36.413 202.407 40.2154C203.35 48.4131 202.735 56.5806 204.717 64.7183C205.419 67.5973 206.381 70.409 206.687 73.3746C207.28 79.1264 206.636 84.0016 206.258 89.7248C206.081 92.3996 204.806 95.1638 204.001 97.7373C202.451 102.698 200.78 107.797 198.693 112.55C197.59 115.062 196.926 117.77 195.696 120.216C194.603 122.39 194.314 125.179 192.996 127.174C190.515 130.93 188.463 134.648 186.421 138.677C182.477 146.458 180.948 155.531 177.871 163.685C176.533 167.233 175.769 171.206 173.243 174.152C170.454 177.406 166.524 179.928 163.337 182.727" stroke="#1E1E1E" stroke-width="4" stroke-linecap="round" stroke-linejoin="round"/>
<path d="M187.477 137.458C188.438 136.642 188.151 140.909 188.178 141.226C188.648 146.857 190.295 152.8 191.707 158.261C193.019 163.336 194.748 168.576 196.466 173.535C197.597 176.801 198.74 182.052 201.684 184.115" stroke="#1E1E1E" stroke-width="4" stroke-linecap="round" stroke-linejoin="round"/>
<path d="M206.173 92.1211C206.173 98.5747 208.022 104.167 211.602 109.402C215.289 114.796 217.86 119.834 217.86 126.457C217.86 131.974 214.537 139.232 216.822 144.444C218.57 148.433 221.548 150.928 224.208 154.253C225.904 156.372 227.283 158.38 229.615 159.803C230.331 160.24 232.126 160.951 232.29 161.917" stroke="#1E1E1E" stroke-width="4" stroke-linecap="round" stroke-linejoin="round"/>
<path d="M156.801 157.615C156.801 156.883 155.93 156.089 155.565 155.5C154.636 154.002 154.404 152.202 153.863 150.55C152.602 146.706 152.128 143.393 152.012 139.353C151.885 134.932 151.159 130.627 152.407 126.292C153.502 122.489 154.982 118.603 156.619 114.998C159.598 108.436 160.959 101.525 162.399 94.5226C163.818 87.6213 162.901 80.6731 164.125 73.7774C167.306 55.8444 180.504 43.2436 191.088 29.3692C194.742 24.5796 198.892 20.0171 202.155 14.9572C203.041 13.5831 204.969 11.1687 204.969 9.39648" stroke="#1E1E1E" stroke-width="4" stroke-linecap="round" stroke-linejoin="round"/>
<path d="M13.5029 95.838C20.0769 91.4081 25.3254 85.3091 31.8745 80.8403C38.9847 75.9885 45.4838 71.3875 53.7691 68.8055C63.4611 65.7851 73.65 66.1663 83.6448 65.9114C92.9511 65.674 102.491 60.24 110.783 56.3297C118.816 52.5418 126.851 46.4394 133.505 40.5646C141.324 33.66 151.21 29.2241 161.041 25.9824C170.011 23.025 180.984 22.1604 190.257 24.1609C192.368 24.6165 193.789 24.7277 195.964 24.4745C196.259 24.4401 196.974 24.1921 197.014 24.4822" stroke="#1E1E1E" stroke-width="4" stroke-linecap="round" stroke-linejoin="round"/>
<path d="M208.624 15.2701C208.624 18.5604 214.967 23.3539 217.102 25.5134C220.756 29.2083 225.306 32.8756 228.265 37.1434C235.387 47.4169 240.13 58.9143 242.514 71.2497C244.202 79.9845 244.228 88.9191 245.697 97.699C247.222 106.819 247.341 116.081 250.859 124.775C251.865 127.261 252.842 129.659 253.421 132.295C254.431 136.887 258.016 140.61 258.69 145.207C259.004 147.352 259.074 149.525 257.722 151.281C256.942 152.295 254.55 157.014 253.36 155.068" stroke="#1E1E1E" stroke-width="4" stroke-linecap="round" stroke-linejoin="round"/>
<path d="M218.926 27.075C223.037 27.075 227.136 27.2929 231.242 27.2929C236.235 27.2929 241.178 30.0748 246.132 30.8091C261.015 33.0151 271.658 43.1956 282.774 52.4166C288.705 57.3372 295.534 61.9054 302.756 64.6457C313.104 68.5722 324.762 69.2332 335.417 72.3001C341.165 73.9545 347.155 73.1073 352.903 74.7819C358.276 76.3472 364.122 78.3634 369.22 80.6237C372.068 81.8862 391.86 95.5755 391.473 96.2855" stroke="#1E1E1E" stroke-width="4" stroke-linecap="round" stroke-linejoin="round"/>
<path d="M322.924 69.1312C322.924 71.9544 329.262 65.3883 329.537 65.0472C334.605 58.7742 339.456 53.8346 347.27 51.147C350.938 49.8852 354.688 49.124 358.57 49.124C362.294 49.124 365.417 50.956 368.915 52.0035C373.208 53.2892 378.412 53.9214 382.242 51.1349C385.685 48.6299 386.281 44.8647 388.661 41.6902" stroke="#1E1E1E" stroke-width="4" stroke-linecap="round" stroke-linejoin="round"/>
<path d="M304.993 66.8025C304.993 65.5527 305.416 69.3421 306.109 70.3817C307.089 71.8506 307.852 73.4864 308.891 74.9074C311.16 78.011 315.155 79.5846 318.427 81.442C324.189 84.7128 327.572 90.1643 329.972 96.2626C331.602 100.406 332.007 104.889 332.195 109.304C332.288 111.472 333.544 117.358 332.022 115.811" stroke="#1E1E1E" stroke-width="4" stroke-linecap="round" stroke-linejoin="round"/>
<path d="M191.128 23.1606C191.223 23.7042 193.58 21.6928 193.908 21.4201C194.849 20.6363 195.743 18.9656 196.139 17.8144C196.922 15.5348 197.374 13.2788 198.044 10.99C198.507 9.40774 198.969 7.6666 199.28 6.05026C200.016 2.233 198.205 13.7524 197.517 17.5785C197.302 18.772 197.062 19.5901 196.513 20.6805C196.294 21.1151 194.835 22.2439 195.684 22.3754C196.85 22.5557 197.667 23.1691 198.777 23.4306C199.998 23.7183 200.543 23.3819 199.112 24.2489C198.586 24.5671 198.083 24.9836 197.409 24.7945C197.369 24.7831 199.037 23.0678 199.177 22.9057C199.933 22.0326 200.346 20.8896 200.47 19.7539C200.906 15.7674 200.498 11.464 200.498 7.44554C200.498 2.9014 201.361 10.8027 201.369 8.85098C201.375 7.33564 200.935 2.96324 201.625 4.31214C202.007 5.05764 201.956 6.01996 202.382 6.80688C203.189 8.29996 204.192 9.66917 204.818 11.2563C206.076 14.4437 208.543 17.1196 210.925 19.5138C211.923 20.5178 210.181 19.0185 209.955 18.7231C208.742 17.1394 208.135 15.2451 207.75 13.3166C207.345 11.2909 206.733 9.31043 206.349 7.28656C206.221 6.61485 206.231 5.85205 206.231 5.16737C206.231 4.39796 206.434 6.69469 206.602 7.44555C207.095 9.64748 208.05 11.2191 209.247 13.106C210.28 14.7349 211.225 17.2347 211.635 19.147C212.347 22.4724 208.248 13.1745 207.316 9.90389C206.654 7.58196 206.94 5.47827 206.94 3.27489C206.94 1.45474 206.801 4.56271 206.73 5.07522C206.596 6.0422 206.505 11.4522 205.964 8.6639C205.616 6.87332 204.952 5.70563 204.248 4.1209C204.016 3.59909 203.155 5.85448 202.382 5.96917C201.352 6.12186 201.95 1.16805 201.703 4.25776C201.585 5.72399 201.458 7.61746 202.116 8.9846C204.217 13.3525 204.218 18.3086 204.055 23.1292C204.005 24.6362 203.93 26.1389 203.93 27.6478C203.93 28.2758 203.834 28.5666 203.721 27.7068C203.467 25.7866 203.564 23.8009 204.089 21.9371C204.722 19.6913 205.361 17.1828 206.249 15.0266C207.693 11.5191 205.937 17.4765 205.675 18.5775C204.909 21.7921 203.93 24.8981 203.906 28.2376C203.891 30.2994 204.019 32.505 203.414 34.4892C202.818 36.4474 202.214 38.6097 202.214 40.6726C202.214 45.1087 202.287 31.6594 203.669 27.4441C204.841 23.8707 204.649 19.8118 205.964 16.3518C206.446 15.0836 210.629 20.2765 211.423 20.9137C214.302 23.2215 216.705 25.5056 219.225 28.1887C219.663 28.6547 222.15 30.1781 222.101 31.0568C222.096 31.1309 217.852 27.2188 217.683 27.0266C215.207 24.2083 213.271 20.9818 211.603 17.637C210.372 15.1669 208.556 12.4247 207.946 9.72097C207.528 7.87202 207.443 2.16141 207.443 4.05686C207.443 7.60382 210.574 11.891 212.063 15.0653C213.197 17.4833 214.473 19.9838 216.378 21.8763C217.912 23.3995 219.035 25.8508 220.19 27.6892C221.285 29.4305 222.529 30.9714 223.826 32.5622C225.879 35.0802 228.225 37.4687 230.412 39.8321" stroke="#1E1E1E" stroke-width="4" stroke-linecap="round" stroke-linejoin="round"/>
<path d="M263.889 36.8522C263.577 34.3579 273.355 34.1143 274.8 34.451C279.107 35.4546 283.832 35.7669 287.872 37.669C291.784 39.5109 295.594 42.9942 300.042 43.397C308.276 44.1427 310.656 35.1555 316.26 31.5151C319.911 29.1434 325.448 29.1399 329.603 29.6475C333.746 30.1535 336.741 30.8988 339.391 27.085" stroke="#1E1E1E" stroke-width="4" stroke-linecap="round" stroke-linejoin="round"/>
<path d="M238.453 55.3309C241.959 55.3309 245.347 55.1545 248.582 56.8279C253.577 59.4111 256.966 64.3713 259.651 69.1256C262.194 73.6312 264.741 79.5006 269.613 81.9027C271.572 82.8686 276.681 83.605 278.792 82.6529" stroke="#1E1E1E" stroke-width="4" stroke-linecap="round" stroke-linejoin="round"/>
<path d="M244.793 85.0693C244.793 89.2004 248.345 93.6493 251.097 96.3968C255.711 101.004 260.788 100.857 266.232 103.536C270.101 105.44 274.145 108.433 277.306 111.332C282.399 116.004 285.174 121.742 288.507 127.701C294.376 138.19 301.802 148.201 312.6 153.806" stroke="#1E1E1E" stroke-width="4" stroke-linecap="round" stroke-linejoin="round"/>
<path d="M169.518 58.1564C169.426 58.6657 167.638 59.4442 167.255 59.8323C165.61 61.5007 163.913 63.6851 162.699 65.69C161.752 67.2524 161.406 69.0676 160.45 70.6189C158.86 73.2019 156.678 75.579 154.431 77.6051C150.075 81.5323 144.304 85.0647 138.64 86.7453C135.525 87.6696 132.094 89.06 129.389 90.8967C127.478 92.1946 124.142 94.8762 123.656 97.3153" stroke="#1E1E1E" stroke-width="4" stroke-linecap="round" stroke-linejoin="round"/>
<path d="M159.389 106.404C158.991 106.47 158.286 108.149 158.086 108.432C156.708 110.381 155.112 112.318 153.076 113.618C147.567 117.134 141.12 117.961 136.095 122.482C132.645 125.587 129.825 130.028 127.9 134.226C125.97 138.437 124.061 144.087 124.258 148.764C124.335 150.588 125.366 152.269 125.801 154.02C126.52 156.911 126.186 160.017 125.404 162.846C124.174 167.295 122.805 171.706 121.48 176.127C121.196 177.075 121.114 179.141 120.013 179.476" stroke="#1E1E1E" stroke-width="4" stroke-linecap="round" stroke-linejoin="round"/>
<path d="M119.397 51.9602C118.707 53.2278 117.494 54.4422 116.679 55.6684C114.904 58.3389 113.412 61.1584 111.935 64.0006C109.117 69.4229 107.785 75.3487 108.743 81.4601C109.777 88.0646 107.409 93.0346 103.615 98.3457C99.2724 104.424 94.9322 110.122 91.1324 116.603C90.2094 118.177 79.8981 135.604 81.236 136.378" stroke="#1E1E1E" stroke-width="4" stroke-linecap="round" stroke-linejoin="round"/>
<path d="M21.6506 44.5877C21.7351 44.4927 21.7918 44.8696 21.8533 44.9906C22.3363 45.9401 22.9165 46.8221 23.607 47.6334C25.148 49.4441 27.0835 51.0772 29.3887 51.8018C32.6875 52.8386 36.6932 51.9867 40.1199 52.3443C47.0955 53.0721 51.0596 56.9827 55.8094 61.6667C58.2624 64.0857 61.9798 65.1293 65.0729 66.4474" stroke="#1E1E1E" stroke-width="4" stroke-linecap="round" stroke-linejoin="round"/>
<path d="M72.9733 45.047C71.5065 45.8258 73.2565 42.9016 73.4988 42.5894C75.352 40.2023 78.0511 39.081 80.9416 38.494C86.9741 37.2691 92.7973 38.3934 98.4052 40.708C106.203 43.9265 113.736 42.3871 121.22 39.2671C125.723 37.3898 130.534 38.8207 135.072 37.8033" stroke="#1E1E1E" stroke-width="4" stroke-linecap="round" stroke-linejoin="round"/>
</svg>
