<svg width="455" height="407" viewBox="0 0 455 407" fill="none" xmlns="http://www.w3.org/2000/svg">
<path d="M204.703 150.135C204.703 142.547 180.581 145.579 175.985 145.579C164.474 145.579 152.196 155.3 146.675 165.274C128.305 198.468 158.19 227.033 190.462 230.373C206.966 232.081 225.615 234.483 234.149 217.032C239.597 205.889 238.133 191.515 230.621 181.725C217.543 164.68 197.376 154.57 176.832 165.408C158.334 175.166 155.654 204.365 175.166 214.266C192.451 223.037 210.635 216.573 210.635 197.232C210.635 188.339 191.066 173.616 183.867 182.468C177.675 190.081 182.761 207.164 193.234 199.342" stroke="#1E1E1E" stroke-width="4" stroke-linecap="round" stroke-linejoin="round"/>
<path d="M171.123 132.773C171.123 121.816 165.099 113.559 168.291 101.423C173.081 83.2114 187.446 73.788 187.446 53.2547C187.446 35.8772 178.124 26.5363 188.636 9.73311C199.244 -7.22358 190.791 10.9164 193.099 19.6982C194.944 26.7194 199.363 32.4471 201.406 39.466C203.308 46.0022 202.402 54.0036 202.402 60.7791C202.402 83.6974 177.087 104.722 193.099 128.595C193.728 129.534 197.666 113.779 202.572 109.009C210.596 101.208 222.105 97.8786 225.16 85.7025C227.858 74.9554 228.379 67.585 236.418 59.5322C239.512 56.4326 243.217 53.8352 246.508 50.9205C251.971 46.0828 245.216 55.6187 244.427 59.3137C242.288 69.3311 241.807 78.7305 241.807 88.9026C241.807 96.176 234.183 102.46 230.114 107.799C224.854 114.701 208.59 127.446 217.053 137.812C218.681 139.805 221.508 132.572 222.877 130.879C229.708 122.435 237.697 114.953 246.492 108.596C258.486 99.9272 270.999 102.784 277.911 86.5125C283.802 72.6458 285.008 56.5507 295.7 45.0374C305.952 33.9977 318.778 30.3729 333.099 27.6438C335.989 27.093 338.168 26.3009 333.55 26.3009C326.818 26.3009 320.94 34.9796 317.951 40.1614C309.307 55.1468 300.656 69.001 295.089 85.3882C289.617 101.493 294.531 113.649 280.807 126.506C272.928 133.889 263.151 138.605 254.929 145.435C251.199 148.534 238.486 169.217 247.002 160.135C256.061 150.473 272.516 140.399 286.248 140.399C297.598 140.399 301.756 139.501 307.744 129.709C313.733 119.915 318.13 118.625 329.254 118.625C336.367 118.625 331.667 121.261 328.209 123.775C320.636 129.282 316.964 137.376 314.675 146.098C312.427 154.665 315.445 165.386 303.484 165.386C281.33 165.386 269.254 166.727 260.574 190.043C256.719 200.399 263.261 189.386 270.577 188.994C279.861 188.496 285.227 196.005 291.809 201.263C310.285 216.021 334.611 212.095 356.604 213.208C366.269 213.698 378.389 208.224 382.858 219.006C385.409 225.163 387.144 232.906 391.263 238.228C393.917 241.658 384.819 232.015 380.718 230.602C376.117 229.016 371.889 227.652 366.994 227.287C348.798 225.933 333.123 236.263 314.541 235.153C299.258 234.24 284.681 206.569 266.83 219.475C263.599 221.811 258.576 226.488 254.38 226.488C251.029 226.488 246.192 226.871 252.942 227.783C273.162 230.514 264.902 252.47 278.514 260.988C287.821 266.811 298.56 260.76 305.155 271.539C307.827 275.906 307.697 282.447 310.688 286.311C313.072 289.391 287.401 279.952 284.6 279.828C274.67 279.389 264.705 281.398 255.604 276.308C248.397 272.277 247.385 260.399 244.04 253.596C241.217 247.857 236.891 243.669 233.893 238.67C232.28 235.981 238.285 243.576 238.862 246.658C242.978 268.619 225.021 282.958 244.162 302.817C254.294 313.33 262.774 320.89 262.695 336.094C262.607 353.023 253.698 373.864 267.693 388.563C273.722 394.895 257.411 374.032 254.921 365.651C251.795 355.124 247.207 345.709 242.014 336.051C231.169 315.879 216.316 305.866 216.316 281.123C216.316 273.153 215.701 266.976 214.047 259.389C212.958 254.395 218.328 245.174 211.682 255.12C200.584 271.732 211.186 287.065 205.924 304.712C203.553 312.662 199.133 320.923 198.735 329.283C198.25 339.472 194.495 308.758 188.668 300.384C182.988 292.222 173.616 283.115 181.568 272.962C182.37 271.937 190.282 259.589 186.126 263.138C159.881 285.545 157.52 318.229 162.067 349.715C163.817 361.832 154.979 373.949 147.215 382.496C131.544 399.746 148.296 381.494 148.501 373.111C148.872 357.956 137.949 347.021 137.831 332.561C137.719 318.882 138.916 310.195 145.341 297.651C150.748 287.094 157.533 281.529 157.533 268.693C157.533 264.227 157.159 260.039 159.399 256.032C162.323 250.8 152.268 258.179 150.045 259.911C143.046 265.363 141.172 274.673 134.685 280.875C128.23 287.047 124.907 290.179 115.532 290.179C105.782 290.179 121.269 292.408 122.835 284.264C124.094 277.714 123.486 270.621 123.486 263.969C123.486 253.918 135.452 248.196 142.002 243.258C152.14 235.614 112.836 244.904 109.338 245.177C87.229 246.898 60.3078 228.85 40.9381 244.441C32.5002 251.233 24.9827 253.814 13.9376 254.489C11.6606 254.628 4.24471 253.137 10.7917 253.993C20.249 255.231 29.4708 244.128 34.7942 237.46C41.3312 229.272 52.6447 222.859 62.0744 219.017C76.2303 213.249 95.7834 233.902 108.054 225.246C112.583 222.052 118.614 219.006 109.87 219.006C96.4988 219.006 92.8133 209.678 83.2626 202.804C74.8938 196.78 66.7999 193.045 57.4005 189.43C47.5805 185.654 67.0953 188.551 71.3263 188.551C85.591 188.551 91.1607 199.27 103.766 200.589C107.294 200.958 117.903 199.534 114.356 199.534C104.257 199.534 97.0312 190.302 90.2654 184.118C79.3279 174.12 76.0808 160.224 62.9413 151.702C50.5127 143.64 35.8938 144.783 23.0057 138.422C8.21661 131.122 2.54053 124.081 2.54053 107.277C2.54053 102.4 2.83715 82.0483 9.42549 93.7093C22.5385 116.919 38.2024 119.49 62.2182 117.745C72.1177 117.026 80.8119 121.481 87.1375 129.048C94.0881 137.364 94.7472 151.862 104.251 158.054C107.802 160.367 111.538 161.597 115.78 161.597C124.989 161.597 120.354 160.982 115.918 154.345C109.885 145.321 108.607 134.106 112.844 124.172C116.335 115.986 126.357 106.109 123.446 96.2272C120.063 84.7436 117.698 87.6608 125.833 95.9075C132.506 102.673 133.245 111.025 130.722 120.136C128.109 129.575 128.637 142.221 141.408 142.221C144.402 142.221 141.233 137.601 140.733 134.716C139.394 126.978 138.876 121.351 143.731 114.596C152.643 102.198 153.686 93.358 153.686 78.4765C153.686 72.6198 147.478 55.9064 154.082 63.6142C159.368 69.7846 160.589 79.1057 160.589 87.0082C160.589 99.7857 154.649 118.776 160.765 129.096C161.803 130.848 176.645 137.545 177.379 134.02" stroke="#1E1E1E" stroke-width="4" stroke-linecap="round" stroke-linejoin="round"/>
<path d="M296.957 403.652C296.957 408.217 297.666 394.393 296.559 389.964C294.832 383.052 292.823 372.544 287.994 366.943C287.131 365.943 285.765 363.009 284.216 363.009C282.13 363.009 286.022 368.049 286.312 368.337C289.783 371.772 295.192 372.603 299.665 374.137C300.719 374.498 305.002 376.529 305.002 375.305C305.002 369.249 304.243 361.358 302.832 355.491C302.412 353.743 301.598 351.791 301.598 349.971C301.598 348.023 303.659 353.29 304.896 354.794C307.671 358.17 310.195 361.794 313.265 364.915C318.37 370.103 323.127 375.592 328.185 380.813C330.733 383.443 328.986 378.653 328.37 377.226C326.921 373.871 325.624 370.039 327.806 366.857C332.485 360.036 329.573 360.464 329.573 366.154C329.573 370.714 334.383 378.046 338.968 371.987C340.481 369.988 339.757 361.77 336.184 361.77C329.421 361.77 339.079 364.004 341.407 364.004C353.976 364.004 342.417 343.703 338.777 340.303C335.481 337.225 332.056 334.462 328.283 332.061C321.455 327.716 338.521 345.07 345.485 349.191C347.081 350.135 354.089 352.547 356.091 350.862C361.657 346.178 352.724 334.176 359.563 327.87C360.268 327.22 358.869 327.431 358.53 327.582C355.745 328.825 355.391 332.353 355.399 334.939C355.417 339.946 360.989 344.441 363.772 338.049C365.13 334.93 360.206 330.19 362.975 332.225C363.594 332.68 368.457 335.563 368.613 332.614C368.949 326.278 367.57 314.739 371.857 309.64C373.745 307.394 370.149 310.388 369.673 312.21C368.432 316.958 378.681 331.344 380.65 322.511C381.625 318.135 378.461 313.591 374.995 311.171C370.402 307.964 382.887 319.125 386.834 323.102C392.321 328.631 396.714 335.451 402.844 340.318C407.237 343.806 393.766 333.726 389.325 330.299C388.147 329.39 383.668 326.956 384.306 324.927C385.984 319.593 384.516 313.565 383.224 308.329C382.903 307.027 380.338 304.487 382.686 306.662C384.034 307.91 387.278 312.566 389.402 309.918C391.984 306.699 385.498 300.26 386.903 298.334C388.476 296.176 392.155 305.712 395.679 304.285C397.046 303.732 396.248 294.059 396.274 293.191C396.363 290.208 398.603 295.217 400.26 295.496C405.271 296.339 404.463 289.981 404.017 287.229C402.897 280.308 402.847 275.566 405.763 269.25C408.693 262.901 398.956 278.303 407.004 280.462C409.064 281.014 408.639 273.302 408.294 272.176C406.547 266.468 408.529 270.645 411.801 271.745C416.958 273.48 413.245 256.53 412.663 254.68C412.351 253.689 409.876 252.101 410.914 252.101C414.227 252.101 417.341 251.154 420.61 251.154C428.043 251.154 428.43 253.436 426.036 260.04" stroke="#1E1E1E" stroke-width="4" stroke-linecap="round" stroke-linejoin="round"/>
<path d="M387.396 283.712C387.387 283.632 387.345 283.548 387.323 283.47" stroke="#1E1E1E" stroke-width="4" stroke-linecap="round" stroke-linejoin="round"/>
<path d="M402.596 308.581C404.576 319.348 412.629 323.397 417.671 313.054C418.474 311.407 415.411 309.776 415.829 310.405C417.091 312.302 428.009 320.42 426.949 320.235" stroke="#1E1E1E" stroke-width="4" stroke-linecap="round" stroke-linejoin="round"/>
<path d="M432.19 307.974H432.118" stroke="#1E1E1E" stroke-width="4" stroke-linecap="round" stroke-linejoin="round"/>
<path d="M426.021 303.653C425.959 303.6 425.911 303.543 425.857 303.483" stroke="#1E1E1E" stroke-width="4" stroke-linecap="round" stroke-linejoin="round"/>
<path d="M428.187 287.677C428.187 284.633 433.243 278.871 436.531 281.91C440.779 285.836 440.981 294.434 442.019 299.719C443.179 305.626 452.489 288.665 452.448 288.672" stroke="#1E1E1E" stroke-width="4" stroke-linecap="round" stroke-linejoin="round"/>
</svg>
