<svg width="352" height="509" viewBox="0 0 352 509" fill="none" xmlns="http://www.w3.org/2000/svg" style="">
<path d="M143.114 457.381C142.103 457.634 140.328 459.364 139.618 460.051C136.737 462.84 134.35 465.935 133.151 469.782C131.498 475.086 128.865 482.353 130.676 487.881C132.304 492.854 135.351 498.634 139.678 501.917C142.044 503.711 144.064 505.825 147.168 506.086C150.378 506.355 153.725 505.858 156.653 504.475C169.054 498.615 175.875 481.165 169.872 468.723C167.263 463.315 163.776 459.46 158.455 456.723C157.451 456.207 155.09 454.388 153.868 454.388" stroke="#1E1E1E" stroke-width="4" stroke-linecap="round" stroke-linejoin="round" class="npsZzAnQ_0"></path>
<path d="M160.528 450.049C159.439 452.191 160.253 455.432 161.376 457.492" stroke="#1E1E1E" stroke-width="4" stroke-linecap="round" stroke-linejoin="round" class="npsZzAnQ_1"></path>
<path d="M173.686 474.865C169.156 475.03 183.189 477.43 187.271 475.46C193.403 472.5 196.51 467.249 196.889 460.733C197.331 453.141 192.679 445.346 186.417 441.256C183.425 439.301 179.41 436.959 176.006 435.827C175.143 435.539 174.02 435.221 173.114 435.506" stroke="#1E1E1E" stroke-width="4" stroke-linecap="round" stroke-linejoin="round" class="npsZzAnQ_2"></path>
<path d="M150.32 404.834C150.956 404.834 149.049 404.831 148.414 404.834C146.621 404.843 144.93 405.46 143.408 406.392C140.203 408.354 138.283 412.102 136.572 415.324C133.271 421.538 129.638 429.266 130.659 436.505C131.05 439.281 133.165 442.472 134.394 444.925C135.927 447.987 139.186 450.368 142.545 451.083C147.421 452.121 154.072 452.293 158.56 449.776C163.204 447.172 166.348 439.509 167.811 434.651C169.435 429.261 169.94 422.41 167.982 417.081C166.39 412.746 163.218 407.872 158.873 405.833C156.889 404.902 150.752 403.237 148.79 404.86" stroke="#1E1E1E" stroke-width="4" stroke-linecap="round" stroke-linejoin="round" class="npsZzAnQ_3"></path>
<path d="M128.349 426.057C128.349 426.207 126.889 426.298 126.71 426.33C124.797 426.683 123.085 427.698 121.394 428.611C117.716 430.596 115.766 434.581 112.784 437.435C106.903 443.065 103.235 449.816 103.235 457.976C103.235 466.006 110.702 474.192 119.142 472.953C119.499 472.9 132.703 470.591 132.251 469.72" stroke="#1E1E1E" stroke-width="4" stroke-linecap="round" stroke-linejoin="round" class="npsZzAnQ_4"></path>
<path d="M138.859 407.535C138.746 409.502 138.888 408.531 139.238 407.158C140.235 403.257 139.751 400.761 138.357 397.07C136.655 392.562 134.304 388.918 130.772 385.693C127.662 382.853 123.116 381.716 118.954 381.787C112.627 381.896 107.479 386.327 103.25 390.446C95.9498 397.554 94.0618 409.839 96.2796 419.373C97.4293 424.316 101.761 429.195 106.332 431.158C109.871 432.677 113.19 431.727 116.638 430.439" stroke="#1E1E1E" stroke-width="4" stroke-linecap="round" stroke-linejoin="round" class="npsZzAnQ_5"></path>
<path d="M151.548 378.381C151.548 375.462 151.732 384.258 152.418 387.095C153.208 390.367 152.407 394.793 154.548 397.569C156.404 399.974 158.612 402.245 160.626 404.531C164.03 408.396 169.745 410.692 174.819 411.174C177.78 411.455 180.681 410.17 183.224 408.751C186.588 406.873 187.46 404.374 188.456 400.835C189.799 396.061 191.251 389.726 190.053 384.784C188.837 379.771 186.691 373.266 182.888 369.59C180.877 367.646 178.575 365.897 176.5 363.996C174.495 362.16 171.767 362.076 169.287 361.29C168.191 360.942 164.912 358.87 163.748 359.808" stroke="#1E1E1E" stroke-width="4" stroke-linecap="round" stroke-linejoin="round" class="npsZzAnQ_6"></path>
<path d="M150.084 311.116C149.099 311.178 148.287 320.678 147.878 322.06C147.233 324.246 146.738 326.833 146.738 329.13C146.738 330.29 147.465 331.125 146.108 331.103C143.303 331.058 140.801 333.376 138.15 334.25C136.271 334.87 134.546 335.872 132.701 336.584C128.132 338.35 123.962 341.421 121.058 345.328C118.034 349.398 117.496 354.978 117.496 359.893C117.496 363.641 118.368 366.774 119.266 370.347C119.897 372.858 120.641 374.582 122.572 376.341C123.322 377.024 123.849 377.947 124.621 378.588C125.435 379.265 126.497 379.313 127.416 379.766C129.806 380.944 132.009 382.002 134.778 381.488C136.514 381.166 138.098 380.504 139.87 380.349C141.312 380.223 142.743 380.011 144.059 379.37C147.67 377.612 150.53 374.56 154.063 372.696C155.906 371.723 157.635 369.033 158.783 367.302C159.977 365.501 160.959 363.795 161.532 361.721C162.422 358.502 163.219 355.731 163.207 352.358C163.2 350.32 162.472 348.288 162.091 346.304C161.671 344.117 161.508 341.634 160.048 339.846C158.245 337.638 156.053 335.697 153.885 333.875C152.907 333.053 153.209 331.995 153.523 330.724C154.059 328.553 154.45 326.26 154.517 324.024C154.576 322.037 154.688 320.04 155.023 318.079C155.202 317.031 154.961 315.069 155.433 314.173" stroke="#1E1E1E" stroke-width="4" stroke-linecap="round" stroke-linejoin="round" class="npsZzAnQ_7"></path>
<path d="M164.361 314.573C164.361 315.737 166.019 318.163 166.963 318.918C167.398 319.266 162.602 325.742 162.223 326.26C159.824 329.537 159.012 333.188 159.012 337.216" stroke="#1E1E1E" stroke-width="4" stroke-linecap="round" stroke-linejoin="round" class="npsZzAnQ_8"></path>
<path d="M164.855 353.818C163.871 355.184 171.517 359.743 172.872 360.702C178.015 364.343 184.276 364.917 189.7 360.936C192.556 358.84 196.54 356.771 198.644 353.884C201.795 349.559 200.776 343.708 199.683 338.899C198.443 333.444 195.029 329.277 191.34 325.291C187.872 321.543 184.335 320.297 179.484 319.414C177.006 318.963 174.925 318.659 172.386 318.659C170.168 318.659 169.459 313.806 168.672 312.242" stroke="#1E1E1E" stroke-width="4" stroke-linecap="round" stroke-linejoin="round" class="npsZzAnQ_9"></path>
<path d="M174.232 311.938C174.232 311.226 174.695 314.063 175.001 314.66C175.251 315.149 177.228 316.434 177.228 316.683" stroke="#1E1E1E" stroke-width="4" stroke-linecap="round" stroke-linejoin="round" class="npsZzAnQ_10"></path>
<path d="M194.64 323.811C194.64 323.55 195.879 324.25 196.121 324.324C197.673 324.803 199.321 325.05 200.943 325.054C204.202 325.062 206.991 323.441 209.081 321.12C214.367 315.252 214.594 304.643 209.106 298.909C206.925 296.631 205.482 294.1 202.82 292.261C200.339 290.547 197.753 289.012 194.948 287.872C192.653 286.939 190.107 285.602 187.571 285.602" stroke="#1E1E1E" stroke-width="4" stroke-linecap="round" stroke-linejoin="round" class="npsZzAnQ_11"></path>
<path d="M144.38 277.956C145.194 274.598 142.226 284.601 142.027 288.051C141.895 290.335 141.861 292.632 141.861 294.919C141.861 296.752 142.626 298.312 143.177 300.035C145.325 306.747 151.07 313.951 158.773 312.663C162.191 312.092 165.737 312.913 169.012 311.545C170.527 310.913 171.643 310.013 172.916 309.022C174.994 307.403 177.449 304.791 179.059 302.7C183.847 296.479 186.144 288.08 183.776 280.382C182.905 277.55 181.383 275.642 179.617 273.395C178.006 271.345 175.956 268.636 173.545 267.457C172.3 266.848 170.934 266.57 169.69 265.931C168.488 265.315 167.326 264.484 165.959 264.299C163.795 264.006 160.091 263.43 158.801 265.521" stroke="#1E1E1E" stroke-width="4" stroke-linecap="round" stroke-linejoin="round" class="npsZzAnQ_12"></path>
<path d="M132.578 282.123C131.118 283.781 132.357 281.503 132.679 280.609C132.999 279.721 133.365 278.605 133.965 277.889" stroke="#1E1E1E" stroke-width="4" stroke-linecap="round" stroke-linejoin="round" class="npsZzAnQ_13"></path>
<path d="M127.889 276.949C127.889 277.578 127.974 278.266 127.838 278.88C127.675 279.613 126.997 282.521 127.107 282.427" stroke="#1E1E1E" stroke-width="4" stroke-linecap="round" stroke-linejoin="round" class="npsZzAnQ_14"></path>
<path d="M132.644 283.367C132.644 281.767 124.325 281.852 123.154 282.179C117.214 283.835 113.576 287.743 109.961 292.506C105.899 297.856 102.524 304.733 101.049 311.315C100.24 314.923 99.9338 318.479 101.038 322.047C102.216 325.855 104.309 328.26 106.978 331.148C110.167 334.599 116.03 334.104 120.226 333.663C125.887 333.068 131.461 331.423 135.828 327.702C142.565 321.961 142.754 312.467 142.754 304.38C142.754 301.124 142.689 297.038 141.029 294.182C139.499 291.55 137.919 289.55 135.639 287.538C134.858 286.848 133.041 284.706 131.868 284.706" stroke="#1E1E1E" stroke-width="4" stroke-linecap="round" stroke-linejoin="round" class="npsZzAnQ_15"></path>
<path d="M68.1569 383.752C68.7236 381.05 68.5725 378.246 69.1779 375.548C70.0919 371.474 70.6143 367.362 71.3585 363.252C73.1839 353.172 75.4014 343.207 77.9696 333.288C78.8648 329.83 80.1712 326.604 81.3703 323.251C82.4146 320.331 82.9761 317.272 84.6727 314.621C85.8553 312.773 87.175 311.073 88.067 309.062C88.4983 308.091 88.7048 307.424 89.6694 307.001" stroke="#1E1E1E" stroke-width="4" stroke-linecap="round" stroke-linejoin="round" class="npsZzAnQ_16"></path>
<path d="M144.852 381.442C144.322 382.684 144.756 385.056 144.523 386.466C144.169 388.614 142.869 387.086 141.888 387.819C140.747 388.673 143.196 391.691 141.74 392.427C140.96 392.821 139.718 393.661 138.892 393.811" stroke="#1E1E1E" stroke-width="4" stroke-linecap="round" stroke-linejoin="round" class="npsZzAnQ_17"></path>
<path d="M101.871 430.68C100.962 431.942 99.7087 433.24 98.6543 434.507C98.3496 434.873 96.0782 438.19 96.0782 436.944C96.0782 436.532 93.8727 436 93.4808 435.878C91.8145 435.356 91.6128 435.309 90.6299 436.732C89.6985 438.081 88.4859 439.178 87.6425 440.597C86.7954 442.023 86.1716 443.568 85.2945 444.982C84.0128 447.048 82.998 448.643 80.837 449.846C79.8124 450.416 81.5156 447.517 81.3182 446.361C81.2248 445.814 78.0783 449.735 77.6656 450.288C76.2929 452.126 74.7366 453.489 73.0293 454.949C72.1897 455.667 71.0061 457.171 71.5188 455.191C72.1623 452.707 71.7175 454.191 70.074 454.785C69.1225 455.13 68.5948 455.956 67.8764 456.613C67.3477 457.097 66.534 457.156 65.9279 457.528C63.3701 459.098 60.6469 461.498 57.7518 462.42C55.9848 462.983 55.7888 459.514 55.766 458.558C55.7169 456.507 56.3362 453.848 58.3017 452.784C60.2433 451.732 59.9244 451.421 60.049 449.343C60.0704 448.985 58.6709 449.252 58.401 449.259C58.1587 449.265 58.0249 443.972 58.0249 443.353C58.0249 440.031 59.122 437.161 57.213 434.352C56.7834 433.721 56.4507 433.739 55.782 434.065C53.2569 435.297 52.1543 433.396 52.1543 431.229C52.1543 428.933 52.8089 426.618 52.7925 424.248C52.7751 421.752 51.3359 420.814 50.2345 423.535C49.7525 424.726 49.9609 425.061 49.2184 423.692C48.6197 422.589 47.873 421.616 47.2326 420.548C46.2689 418.941 45.417 415.681 43.0504 415.633C41.2995 415.597 41.1568 417.018 40.0603 418.048C38.4679 419.545 36.0606 420.363 34.7202 422.105C32.3547 425.178 32.5296 418.284 32.2072 416.939C31.3174 413.226 28.6603 409.813 29.4156 405.878C29.6651 404.578 29.0818 401.843 28.0784 400.976C27.3835 400.376 27.7164 398.614 27.5851 397.751C27.2334 395.438 27.1259 393.069 26.7128 390.77C26.5791 390.027 26.1797 387.895 25.9809 388.625C25.474 390.484 26.1374 393.121 25.8601 395.122C25.6422 396.695 26.7001 391.68 26.7923 391.089C27.0076 389.711 27.4979 387.441 26.3928 386.311C24.6981 384.579 24.4526 381.993 22.3965 380.463C18.7453 377.745 21.627 372.483 21.8428 370.939C21.9538 370.145 21.0857 367.581 19.9106 368.942C19.0592 369.928 17.6423 369.924 18.0302 368.348C18.4136 366.791 19.2694 365.265 19.8052 363.754C20.6024 361.505 20.8869 359.221 21.1258 356.864C21.1881 356.249 21.1808 355.303 21.607 354.792C21.8318 354.522 20.9709 354.441 20.7682 354.154C19.7929 352.774 17.6615 352.985 16.164 352.675C15.0755 352.449 14.2598 352.163 13.2712 351.678C12.2482 351.177 13.7617 349.084 14.0404 348.446C15.0765 346.074 17.5912 342.722 17.5912 340.093C17.5912 338.061 17.6771 336.044 17.6856 334.011C17.6997 330.615 22.0282 328.108 23.7081 325.559C24.8388 323.843 25.6903 321.489 26.3804 319.58C27.4164 316.713 28.0094 314.332 30.1807 312.07C30.5317 311.704 30.9005 311.732 31.3009 311.491C32.6958 310.649 33.6723 308.683 34.6308 307.423C34.8943 307.076 37.9615 303.794 37.8898 304.213C37.7656 304.938 36.1891 306.339 36.9095 306.19C38.5377 305.854 39.7627 304.969 41.1574 304.09C43.1887 302.808 45.4309 302.038 47.6272 301.101C48.8598 300.575 50.2506 299.649 51.6334 299.636C52.7576 299.626 51.1533 302.479 53.3288 302.507C55.4296 302.534 57.4395 300.797 59.2182 299.868C59.9302 299.497 61.0371 299.169 61.5274 298.483C64.2604 294.659 68.5796 293.78 72.8413 293.514C75.0417 293.377 77.2444 294.541 79.4135 293.838C80.1999 293.583 82.296 291.783 82.8395 291.783C83.4368 291.783 86.6073 292.91 86.6509 293.781" stroke="#1E1E1E" stroke-width="4" stroke-linecap="round" stroke-linejoin="round" class="npsZzAnQ_18"></path>
<path d="M187.999 269.09H187.999" stroke="#1E1E1E" stroke-width="4" stroke-linecap="round" stroke-linejoin="round" class="npsZzAnQ_19"></path>
<path d="M187.999 269.09C187.94 269.813 187.198 270.75 187.001 271.499C186.507 273.375 186.397 275.129 186.472 277.074C186.542 278.863 186.802 284.965 188.725 285.783" stroke="#1E1E1E" stroke-width="4" stroke-linecap="round" stroke-linejoin="round" class="npsZzAnQ_20"></path>
<path d="M215.749 303.837C215.71 304.367 215.401 304.632 215.898 304.423C217.97 303.552 219.627 302.024 221.468 300.771C223.767 299.207 226.215 294.931 226.505 292.133C226.737 289.89 227.194 287.472 226.463 285.288C226.154 284.363 226.136 283.16 225.576 282.358C225.451 282.179 224.664 281.249 224.638 281.603" stroke="#1E1E1E" stroke-width="4" stroke-linecap="round" stroke-linejoin="round" class="npsZzAnQ_21"></path>
<path d="M200.924 268.001C200.469 268.017 201.197 272.247 201.296 272.67C202.14 276.272 206.323 280.36 209.754 281.405C217.455 283.751 226.622 281.278 230.83 274.302C232.947 270.791 233.519 266.849 234.265 262.857C235.033 258.746 234.306 254.777 233.836 250.687C233.362 246.558 231.02 242.432 228.919 238.93" stroke="#1E1E1E" stroke-width="4" stroke-linecap="round" stroke-linejoin="round" class="npsZzAnQ_22"></path>
<path d="M195.484 222.779C193.319 222.779 196.878 223.262 197.42 223.289C199.393 223.389 200.748 224.829 202.642 225.268C204.676 225.739 205.67 227.827 207.223 228.818" stroke="#1E1E1E" stroke-width="4" stroke-linecap="round" stroke-linejoin="round" class="npsZzAnQ_23"></path>
<path d="M176.644 237.008C176.62 236.464 175.548 237.471 175.44 237.566C174.428 238.454 173.867 239.714 173.532 240.992C173.104 242.622 172.353 244.128 171.928 245.742C171.526 247.273 171.812 249.013 171.812 250.579C171.812 254.405 173.033 257.092 174.798 260.328C177.282 264.882 181.84 266.572 186.696 267.59C195.81 269.501 205.564 266.351 209.683 257.64C210.56 255.786 213.696 251.639 212.962 249.613" stroke="#1E1E1E" stroke-width="4" stroke-linecap="round" stroke-linejoin="round" class="npsZzAnQ_24"></path>
<path d="M164.448 196.66C164.448 195.948 162.769 196.534 162.549 196.712C161.051 197.922 159.471 199.196 158.495 200.893C157.426 202.752 156.123 204.466 155.095 206.347C154.1 208.169 153.48 210.246 152.833 212.214C152.226 214.064 151.712 215.701 151.408 217.622C151.108 219.517 151.714 221.203 152.276 222.993C153.183 225.879 154.62 228.356 156.628 230.603C158.616 232.828 161.512 235.281 164.448 236.059C166.901 236.709 169.55 237.681 172.104 237.681C174.11 237.681 175.452 236.774 177.235 236.115C179.604 235.241 181.442 233.45 183.075 231.572C186.013 228.195 188.807 224.335 190.478 220.165C191.417 217.824 192.479 215.834 192.479 213.276" stroke="#1E1E1E" stroke-width="4" stroke-linecap="round" stroke-linejoin="round" class="npsZzAnQ_25"></path>
<path d="M153.568 226.427C155.09 226.427 150.563 225.837 149.041 225.837C146.994 225.837 144.741 225.836 142.745 226.339C139.155 227.242 135.642 228.883 132.312 230.485C130.593 231.311 128.993 231.988 127.548 233.292C125.951 234.734 124.726 236.687 123.444 238.404C121.111 241.527 119.948 246.098 119.05 249.825C118.582 251.766 118.467 254.572 118.812 256.555C119.24 259.02 119.264 261.544 120.315 263.883C121.845 267.289 122.607 270.318 125.786 272.674C126.456 273.17 127.136 273.838 127.959 274.045C128.726 274.237 129.455 274.055 130.135 274.548C130.983 275.162 132.328 275.865 133.373 276.071C136.573 276.7 139.818 277.432 143.102 277.432C144.476 277.432 146.029 277.296 147.363 276.932C148.529 276.613 149.536 275.439 150.515 274.757C151.737 273.906 152.82 272.688 153.683 271.486C154.483 270.372 155.005 268.604 156.159 267.822C157.394 266.986 158.036 265.788 158.695 264.455C159.225 263.385 160.267 262.722 160.724 261.517C161.285 260.04 162.043 258.702 162.419 257.153C162.995 254.781 163.071 252.163 163.071 249.731C163.071 247.901 163.169 245.921 162.905 244.114C162.595 241.991 161.958 240.012 161.579 237.946C161.253 236.17 160.234 235.677 159.38 234.207C158.385 232.497 157.645 230.87 155.747 229.855" stroke="#1E1E1E" stroke-width="4" stroke-linecap="round" stroke-linejoin="round" class="npsZzAnQ_26"></path>
<path d="M109.762 239.324C109.22 238.635 111.263 240.241 112.072 240.58C113.445 241.155 114.964 242.685 115.775 243.938C117.181 246.112 117.419 248.608 118.293 250.952" stroke="#1E1E1E" stroke-width="4" stroke-linecap="round" stroke-linejoin="round" class="npsZzAnQ_27"></path>
<path d="M120.07 268.384C120.062 269.205 119.472 269.714 119.233 270.454C118.746 271.958 118.242 273.418 117.69 274.901C116.84 277.188 116.238 280.161 114.859 282.197C112.162 286.179 109.044 288.743 104.78 291.104C100.143 293.671 95.4408 293.801 90.299 294.229C86.3894 294.554 84.9171 292.46 82.2092 290.088C81.0685 289.088 79.9815 288.032 78.8289 287.046C77.4308 285.851 75.6521 284.931 74.5029 283.469C70.7728 278.725 71.0184 272.344 71.47 266.656C71.7706 262.872 72.3024 259.137 73.1036 255.427C73.4865 253.654 74.3417 251.697 75.8105 250.535C76.6299 249.886 78.8762 247.868 80.1366 248.709" stroke="#1E1E1E" stroke-width="4" stroke-linecap="round" stroke-linejoin="round" class="npsZzAnQ_28"></path>
<path d="M96.0467 199.741C95.0937 199.896 94.1508 199.874 93.1864 199.89C90.8662 199.927 87.936 201.344 85.8097 202.209C81.9777 203.768 78.6844 207.014 75.8311 209.89C73.5092 212.231 71.6422 214.728 70.1365 217.677C68.5492 220.785 67.7244 224.413 67.3488 227.868C67.1548 229.653 66.7296 232.674 67.424 234.36C68.3257 236.55 69.5789 238.235 70.8826 240.192C72.2442 242.237 73.7389 244.362 75.7967 245.744C79.1467 247.993 83.3732 249.05 87.3801 249.062C89.9673 249.07 92.3861 248.362 94.768 247.354C97.1732 246.336 99.7388 245.543 101.818 243.907C104.806 241.557 107.239 238.987 109.458 235.904C111.044 233.702 114.407 230.013 113.785 227.259" stroke="#1E1E1E" stroke-width="4" stroke-linecap="round" stroke-linejoin="round" class="npsZzAnQ_29"></path>
<path d="M124.195 191.726C124.195 190.472 121.469 190.738 120.852 190.999C118.076 192.17 115.551 194.245 114.034 196.936C112.608 199.466 111.046 202.309 110.238 205.106C109.582 207.375 108.246 210.643 108.888 213.039C109.501 215.326 109.924 217.689 110.698 219.929C111.199 221.378 111.291 223.047 112.084 224.371C112.646 225.311 113.569 225.924 114.284 226.733C117.153 229.972 121.317 230.762 125.396 230.533C128.754 230.344 133.43 230.704 136.316 228.516C137.978 227.255 138.698 225.183 140.536 224.099C142.095 223.179 142.385 221.491 143.339 220.075C144.041 219.032 144.275 217.67 144.747 216.516C145.445 214.813 145.921 213.136 146.208 211.335C146.365 210.352 146.52 209.258 146.79 208.305C147.017 207.503 147.687 205.116 147.314 205.861" stroke="#1E1E1E" stroke-width="4" stroke-linecap="round" stroke-linejoin="round" class="npsZzAnQ_30"></path>
<path d="M139.584 167.031C139.077 167.031 138.784 166.665 138.169 166.663C135.659 166.653 134.015 167.957 132.082 169.465C130.213 170.924 128.88 172.771 127.326 174.546C126.002 176.057 124.504 178.148 123.869 180.068C122.439 184.388 123.07 188.401 125.12 192.379C127.338 196.684 129.991 200.884 134.488 203.001C138.095 204.7 141.046 203.866 144.746 203.121C146.661 202.737 148.791 202.669 150.749 202.669C153.413 202.669 155.87 201.345 158.345 200.555C159.034 200.336 160.475 199.477 160.741 198.767" stroke="#1E1E1E" stroke-width="4" stroke-linecap="round" stroke-linejoin="round" class="npsZzAnQ_31"></path>
<path d="M63.5288 197.267C62.6027 197.267 61.6044 198.756 60.9679 199.306C58.9194 201.076 56.7939 202.964 55.2344 205.193C51.8837 209.983 49.4375 214.712 47.4731 220.185C44.5658 228.285 46.7795 238.14 53.8867 243.435C58.0803 246.56 63.079 250.276 68.424 247.478C70.4234 246.432 71.1729 243.969 72.6516 242.461" stroke="#1E1E1E" stroke-width="4" stroke-linecap="round" stroke-linejoin="round" class="npsZzAnQ_32"></path>
<path d="M126.551 174.09C126.291 175.233 127.326 171.827 127.309 170.654C127.284 168.964 126.715 168.03 125.862 166.672C124.392 164.331 122.982 161.948 121.497 159.621C119.255 156.107 116.766 152.701 112.447 151.925C110.391 151.555 108.618 151.93 106.592 151.93C105.066 151.93 103.559 151.766 102.039 151.684C99.2306 151.534 96.614 152.203 94.3062 153.847C91.694 155.709 88.4191 157.466 86.2809 159.893C84.0593 162.415 83.0481 165.562 81.9485 168.691C80.7432 172.12 79.448 175.685 79.448 179.374C79.448 182.536 79.1511 186.365 81.0722 189.116C81.8295 190.2 82.6027 191.025 83.5328 191.949C84.7507 193.158 86.4889 193.624 87.8497 194.67C90.3193 196.567 92.7217 197.672 95.5908 198.727C99.5414 200.179 103.154 200.816 107.38 200.763C107.84 200.757 112.099 198.459 112.112 198.479" stroke="#1E1E1E" stroke-width="4" stroke-linecap="round" stroke-linejoin="round" class="npsZzAnQ_33"></path>
<path d="M83.1635 192.803C83.6681 192.74 82.6053 193.66 82.2572 194.03C81.7414 194.579 81.1247 194.839 80.4303 195.088C79.0172 195.594 77.5675 195.823 76.1823 196.407C73.3008 197.621 70.8947 198.036 67.7916 198.036C61.8872 198.036 58.2526 191.118 56.5383 186.328C56.0838 185.058 56.224 182.8 56.4162 181.493C56.807 178.836 57.6251 176.325 58.2198 173.71C58.9005 170.718 59.6989 167.727 61.1193 164.993C62.5716 162.198 64.3335 159.998 66.2983 157.587C68.6019 154.762 72.3114 152.205 76.0839 152.124C76.6159 152.113 79.7839 152.015 79.7839 152.809" stroke="#1E1E1E" stroke-width="4" stroke-linecap="round" stroke-linejoin="round" class="npsZzAnQ_34"></path>
<path d="M87.9695 157.185C87.2034 157.215 87.4656 157.653 86.8481 157.096C86.0485 156.374 84.8203 155.87 83.8684 155.375C81.8851 154.346 79.4263 153.497 78.2625 151.498C75.3274 146.454 75.6508 140.924 77.9382 135.724C79.7356 131.637 82.3834 127.806 85.0295 124.236C87.0903 121.457 89.5063 118.594 92.4568 116.714C95.9009 114.52 100.194 113.811 104.231 113.811C105.822 113.811 107.765 114.481 109.287 114.973C111.603 115.721 113.812 116.485 115.828 117.97C117.741 119.379 119.227 121.464 120.968 123.083C122.341 124.359 123.447 125.875 123.602 127.782C124.094 133.808 124.169 139.256 121.25 144.742C120.118 146.871 119.105 149.066 118.072 151.243C117.806 151.804 117.234 152.516 117.15 153.141" stroke="#1E1E1E" stroke-width="4" stroke-linecap="round" stroke-linejoin="round" class="npsZzAnQ_35"></path>
<path d="M128.649 135.711C128.441 135.701 130.269 135.534 130.688 135.48C131.521 135.372 133.393 135.162 134.113 135.55C135.691 136.4 135.4 137.533 136.183 138.853" stroke="#1E1E1E" stroke-width="4" stroke-linecap="round" stroke-linejoin="round" class="npsZzAnQ_36"></path>
<path d="M234.185 244.291C232.52 244.291 237.403 243.42 238.982 242.89C241.128 242.169 242.484 241.645 244.367 240.323C247.669 238.003 252.623 235.067 254.22 231.237C255.272 228.711 257.51 226.7 257.83 223.945C258.009 222.405 258.955 220.728 258.955 219.23C258.955 217.366 257.927 215.526 257.397 213.776C256.45 210.648 254.469 207.293 251.85 205.223C251.228 204.73 248.743 202.791 249.089 202.977" stroke="#1E1E1E" stroke-width="4" stroke-linecap="round" stroke-linejoin="round" class="npsZzAnQ_37"></path>
<path d="M259.119 210.01C257.83 210.033 258.117 211.105 259.819 209.947C261.647 208.704 263.263 208.095 264.304 206.044C266.49 201.736 266.638 197.313 266.638 192.578C266.638 187.142 264.095 183.41 260.213 180.084C259.964 179.871 256.168 176.277 256.14 176.467" stroke="#1E1E1E" stroke-width="4" stroke-linecap="round" stroke-linejoin="round" class="npsZzAnQ_38"></path>
<path d="M257.661 232.482C256.63 232.482 261.141 234.598 262.268 234.898C265.093 235.65 266.51 235.617 269.353 235.072C275.359 233.92 280.584 229.799 281.606 223.363C282.66 216.729 281.856 209.781 280.746 203.192C280.328 200.708 279.358 197.279 277.332 195.583C276.89 195.212 275.12 193.884 275.583 193.884" stroke="#1E1E1E" stroke-width="4" stroke-linecap="round" stroke-linejoin="round" class="npsZzAnQ_39"></path>
<path d="M268.361 192.76C266.869 192.311 272.109 192.895 273.114 192.895C274.465 192.895 275.733 193.186 277.054 193.186C281.573 193.186 283.79 187.734 283.856 183.802C283.941 178.789 282.96 171.385 280.251 167.06C279.32 165.575 278.41 164.603 277.205 163.377C276.586 162.746 274.332 161.621 275.217 161.621" stroke="#1E1E1E" stroke-width="4" stroke-linecap="round" stroke-linejoin="round" class="npsZzAnQ_40"></path>
<path d="M205.867 130.295C207.238 129.481 200.068 121.117 199.229 120.262C196.793 117.78 193.813 115.857 190.987 113.829C186.252 110.431 180.325 109.382 174.619 108.567C169.049 107.772 161.941 106.019 156.978 109.505C155.168 110.776 153.349 111.826 151.616 113.227C149.9 114.613 148.557 116.573 146.798 117.831C144.215 119.677 140.232 120.45 138.966 123.591C138.803 123.993 137.206 126.529 137.428 126.89C137.868 127.606 138.748 127.645 138.948 128.602C139.495 131.223 138.571 132.167 137.945 134.36C137.663 135.348 137.526 135.946 138.826 135.491C140.174 135.019 138.816 139.039 138.665 139.666C138.119 141.944 137.491 144.281 137.476 146.638C137.467 148.04 139.049 146.139 139.52 145.818C142.083 144.071 135.038 153.088 137.547 154.912C138.135 155.339 139.084 154.843 139.529 155.347C140.305 156.224 139.77 158.926 139.66 160.04C139.57 160.94 139.114 165.273 140.104 165.349C140.223 165.358 141.48 165.243 141.534 165.414C142.416 168.254 140.365 173.918 144.594 173.918C148.026 173.918 143.799 179.734 148.099 179.734C150.928 179.734 151.451 175.906 154.449 175.906C156.924 175.906 154.58 186.962 159.923 188.164C161.844 188.596 163.041 187.39 163.691 189.917C164.312 192.335 165.898 192.391 167.237 194.207C168.191 195.501 168.193 196.282 169.899 196.393C171.849 196.521 174.629 196.164 176.531 195.76C179.234 195.185 181.709 196.185 181.658 193.09C181.647 192.387 181.359 191.777 181.073 191.146C180.557 190.008 182.848 193.296 183.228 193.695C184.266 194.785 184.899 194.427 185.412 196.083C186.105 198.32 186.605 200.687 186.994 202.992C187.444 205.659 188.416 208.041 190.371 209.759C192.339 211.488 196.668 209.538 197.832 211.737C199.674 215.216 199.897 219.659 201.942 222.984C203.728 225.89 207.108 224.138 209.056 226.627C211.58 229.854 211.491 236.255 212.323 240.231C212.837 242.688 213.122 245.261 213.619 247.655C214.077 249.864 223.626 244.192 224.499 243.105C225.862 241.407 226.789 239.32 228.086 237.548C228.492 236.994 228.82 234.962 229.594 234.835C230.03 234.764 230.741 236.123 231.551 236.123C232.765 236.123 235.402 233.492 236.029 232.491C237.588 230.003 237.297 226.439 240.036 224.952C242.683 223.514 244.773 223.596 245.245 219.892C245.475 218.083 245.428 216.825 244.864 215.18C244.607 214.43 243.58 211.531 244.239 210.803C246.931 207.83 248.019 204.353 247.111 200.391C246.619 198.245 246.034 196.392 247.763 194.789C252.48 190.419 248.98 181.368 254.783 177.296C258.879 174.421 260.719 180.015 263.318 181.69C265.48 183.084 266.35 180.911 267.168 179.215C267.909 177.677 268.851 176.996 269.282 175.249C269.847 172.961 270.343 174.734 271.173 173.454C272.494 171.415 272.641 168.694 272.363 166.307C272.257 165.4 272.448 162.762 271.492 162.53C270.219 162.219 271.513 161.194 271.964 160.908C274.56 159.258 275.301 154.619 272.534 152.882C271.462 152.209 268.689 149.82 268.689 148.406C268.689 145.148 272.182 142.915 268.476 140.291C266.912 139.184 266.468 137.126 264.858 136.149C264.108 135.693 263.41 135.249 262.709 134.717C260.803 133.27 260.849 130.797 259.395 129.233C257.342 127.027 251.951 127.328 251.999 123.717C252.018 122.283 253.327 120.329 252.2 119.002C250.899 117.471 248.68 117.098 246.802 116.924C244.23 116.686 241.729 115.863 239.352 115.075C235.579 113.825 233.066 116.725 229.827 117.768C225.527 119.153 222.423 121.941 217.756 122.474C215.413 122.742 211.785 124.971 210.795 127.247C210.631 127.624 210.897 127.677 210.897 128.034C210.897 129.896 210.571 125.84 210.475 125.364C208.901 117.584 204.813 110.668 201.896 103.394C200.766 100.574 199.631 97.4053 198.877 94.4658C198.716 93.8389 197.01 88.7223 196.063 90.1354" stroke="#1E1E1E" stroke-width="4" stroke-linecap="round" stroke-linejoin="round" class="npsZzAnQ_41"></path>
<path d="M206.592 130.69C206.192 131.129 204.949 127.514 204.782 126.958C204.048 124.516 204.318 122.038 203.117 119.725C200.519 114.718 198.851 109.582 196.74 104.409C195.142 100.494 194.977 96.3054 193.387 92.3758C193.102 91.6717 189.371 84.7831 189.208 85.1104" stroke="#1E1E1E" stroke-width="4" stroke-linecap="round" stroke-linejoin="round" class="npsZzAnQ_42"></path>
<path d="M234.146 250.169C231.81 250.169 239.017 249.681 241.138 250.661C242.32 251.207 244.377 253.93 244.416 253.764C244.622 252.88 245.179 249.836 246.358 249.836C247.12 249.836 247.723 251.187 248.391 251.547C249.395 252.087 250.678 251.888 251.765 252.121C254.445 252.696 255.05 252.131 257.477 251.017C258.794 250.413 260.378 250.099 261.621 250.998C265.88 254.081 268.816 258.298 274.269 259.655C276.045 260.097 277.239 261.899 279.053 262.078C281.681 262.338 280.616 265.851 282.508 266.927C283.584 267.539 283.757 267.918 285.167 267.918C287.56 267.918 286.62 269.519 287.67 271.083C288.207 271.883 289.671 271.916 290.372 273.125C291.473 275.023 291.661 277.047 293.233 278.732C294.317 279.895 296.294 280.87 296.955 282.329C297.712 283.997 297.225 286.416 297.54 288.226C298.087 291.372 298.29 294.255 296.902 297.289C296.596 297.957 298.753 296.027 299.605 295.431C301.24 294.287 300.968 291.892 302.935 290.755C305.449 289.3 307.095 285.539 308.707 283.206C312.006 278.432 314.952 272.541 316.37 266.867C317.044 264.171 317.107 260.787 319.726 259.184C321.148 258.315 320.922 259.756 322.442 259.935C323.858 260.101 325.181 258.407 325.286 257.119C325.752 251.43 326.746 246.025 326.746 240.155C326.746 237.187 326.786 234.236 327.227 231.3C327.462 229.738 327.767 227.758 328.597 226.372C329.41 225.012 329.828 229.331 330.793 230.587C331.525 231.54 332.449 231.592 333.563 231.551C335.759 231.471 337.07 231.706 338.707 233.325C339.448 234.058 340.77 236.352 342.016 236.352C343.261 236.352 342.814 231.858 345.659 231.858C349.664 231.858 348.008 226.723 348.256 224.276C348.552 221.342 349.168 218.564 349.168 215.586C349.168 211.245 347.721 207.212 346.74 203.042C345.886 199.409 346.43 196.052 345.137 192.454C344.179 189.788 343.373 187.29 342.18 184.737C341.221 182.685 340.493 181.628 339.839 179.528C339.567 178.652 340.603 178.516 341.179 178.25C341.88 177.926 339.801 174.848 339.464 174.356C337.925 172.11 336.208 170.471 334.84 168.03C333.382 165.426 332.025 165.667 329.598 164.572C327.541 163.644 325.819 161.779 323.788 160.95C322.814 160.552 320.196 159.082 321.247 159.082C323.005 159.082 324.149 160.228 325.783 160.296C327.115 160.352 322.756 151.326 321.324 150.067C318.613 147.681 315.525 146.59 312.51 144.831C310.107 143.429 307.534 142.222 305.189 140.778C304.24 140.194 299.176 137.493 302.272 138.098" stroke="#1E1E1E" stroke-width="4" stroke-linecap="round" stroke-linejoin="round" class="npsZzAnQ_43"></path>
<path d="M270.974 139.252C270.974 137.091 287.602 130.174 287.602 135.049" stroke="#1E1E1E" stroke-width="4" stroke-linecap="round" stroke-linejoin="round" class="npsZzAnQ_44"></path>
<path d="M235.808 88.8454C235.808 90.2946 235.879 87.1068 234.853 88.0304C234.104 88.7056 240.337 97.4452 241.091 98.6308C243.946 103.118 246.409 105.839 251.751 106.976C255.527 107.78 258.747 104.976 262.311 105.837C264.774 106.432 265.712 106.243 267.395 108.716C268.324 110.08 270.442 111.267 272.009 111.829C273.555 112.384 275.129 111.287 276.417 112.528C281.598 117.522 281.342 125.334 285.896 130.776C287.207 132.343 287.761 133.742 289.257 135.143C290.055 135.89 290.417 136.859 291.586 137.068C292.352 137.204 293.251 137.18 293.746 137.851C294.829 139.321 295.211 141.133 295.998 142.748C296.829 144.454 298.44 137.57 298.623 136.774C299.544 132.763 298.905 128.224 299.136 124.105C299.313 120.936 301.598 119.48 302.738 116.736C304.52 112.445 304.262 107.489 304.908 102.969C305.108 101.568 306.473 101.274 306.743 100.042C307.328 97.3721 306.757 94.011 306.548 91.3134C306.386 89.2403 305.736 86.3572 307.558 84.8728C308.87 83.8031 309.627 84.0913 310.064 82.2146C310.925 78.5151 309.616 78.6391 314.097 78.6391C315.543 78.6391 316.782 79.5462 317.947 78.4091C318.686 77.6883 319.548 77.0123 320.257 76.3161C322.837 73.7802 319.695 67.8875 319.695 65.1244C319.695 64.6687 320.641 64.9367 320.763 64.425C321.005 63.4118 320.756 62.2409 320.756 61.2379C320.756 59.097 319.073 57.0208 317.935 55.3481C316.566 53.3368 315.018 51.3959 313.919 49.2156C313.116 47.6203 312.527 45.633 310.899 44.6737C309.68 43.9548 308.148 43.3254 306.809 42.86C306.665 42.8098 304.99 42.6608 305.063 42.4773C305.433 41.5467 306.973 41.7618 307.202 40.489C307.631 38.1006 306.232 36.9478 304.641 35.3483C301.435 32.1248 298.11 28.6407 293.364 27.7534C289.638 27.0571 288.695 26.0879 286.875 25.8275C285.516 25.6332 284.979 26.232 284.324 24.9744C283.667 23.7105 283.539 22.7205 282.072 22.2497C279.304 21.3617 277.302 19.7011 274.421 19.2291C273.404 19.0626 273.281 19.5117 273.298 18.7147C273.326 17.4221 271.697 16.847 270.929 15.938C270.465 15.3895 270.192 14.0775 269.468 13.8052C267.6 13.1019 265.148 12.1274 263.149 12.3753C260.975 12.6447 258.766 12.4829 256.596 12.7943C254.746 13.0597 255.064 12.3868 253.536 11.8447C249.765 10.5063 245.576 11.877 241.78 11.877C239.983 11.877 237.346 11.6943 235.666 12.47C234.863 12.8412 232.674 13.7801 234.591 12.703C234.965 12.4931 229.97 13.1983 229.133 13.1983C226.872 13.1983 225.036 14.6264 222.922 14.6445C220.03 14.6692 215.902 16.2005 213.549 17.8524C211.008 19.6358 208.99 21.7202 205.997 22.7468C204.269 23.3399 202.768 24.9488 201.337 26.031C199.475 27.4385 197.855 26.9868 198.879 29.9175" stroke="#1E1E1E" stroke-width="4" stroke-linecap="round" stroke-linejoin="round" class="npsZzAnQ_45"></path>
<path d="M212.591 36.7243C212.584 36.7243 215.165 37.9598 215.826 38.3517C219.752 40.6805 222.247 44.685 225.958 47.2634C227.99 48.6754 229.818 50.0864 231.614 51.8027C233.261 53.377 234.695 55.253 236.511 56.6398C237.958 57.7449 241.318 59.0514 241.635 61.1611" stroke="#1E1E1E" stroke-width="4" stroke-linecap="round" stroke-linejoin="round" class="npsZzAnQ_46"></path>
<path d="M198.045 35.6478C196.955 35.8362 195.705 36.5048 194.588 36.9217C193.773 37.2255 192.89 37.2333 192.153 37.7362C191.06 38.482 190.366 39.7046 189.247 40.4604C187.257 41.8042 184.836 43.1786 183.49 45.1875C181.696 47.8652 180.143 50.8848 179.295 54.0101C177.939 59.0107 176.117 65.5848 178.173 70.7265C178.877 72.4866 179.101 74.4626 179.867 76.1784C180.352 77.2658 181.765 78.4543 182.668 79.1963C183.694 80.0393 184.798 80.8702 185.893 81.6196C187.528 82.7393 189.442 83.2202 191.017 84.4466C192.404 85.5265 193.673 85.9373 195.241 86.6194C196.542 87.1853 197.246 88.5942 198.503 89.2769C201.321 90.8076 202.922 93.7106 205.364 95.762C206.784 96.9542 208.394 97.9892 210.012 98.8874C211.761 99.8585 213.312 101.127 215.082 102.055C216.165 102.623 222.172 105.942 223.036 104.597C223.927 103.209 224.17 101.182 225.339 100.01C226.43 98.9166 228.196 99.4638 229.45 98.4514C230.305 97.7608 230.635 96.8774 231.184 95.9638C231.705 95.0984 232.507 94.5623 233.091 93.7746C234.097 92.4168 234.061 91.0942 234.061 89.4895" stroke="#1E1E1E" stroke-width="4" stroke-linecap="round" stroke-linejoin="round" class="npsZzAnQ_47"></path>
<path d="M198.891 29.8312C198.891 28.9634 196.351 27.526 195.603 27.132C193.403 25.9721 191.415 24.5364 189.192 23.4028C186.611 22.0873 183.716 21.2033 181.001 20.1685C179.39 19.5546 176.413 19.0963 174.825 19.7847" stroke="#1E1E1E" stroke-width="4" stroke-linecap="round" stroke-linejoin="round" class="npsZzAnQ_48"></path>
<path d="M197.215 34.7659C197.453 35.4715 196.65 34.2404 196.127 33.9362C194.766 33.1457 193.298 32.5461 191.875 31.8823C189.313 30.6876 187.006 29.0451 184.337 28.0838C182.303 27.3518 180.301 26.9858 178.206 26.4195C176.404 25.9328 174.871 25.1935 172.997 25.1935" stroke="#1E1E1E" stroke-width="4" stroke-linecap="round" stroke-linejoin="round" class="npsZzAnQ_49"></path>
<path d="M120.891 119.822C120.858 118.492 121.795 116.377 122.485 115.19C123.622 113.232 124.939 111.225 126.582 109.673C128.614 107.752 130.206 105.652 132.765 104.413C134.048 103.792 135.2 102.429 136.349 101.552C137.284 100.839 138.273 100.127 139.119 99.3121C140.807 97.6866 140.489 98.1011 141.718 99.3989C143.581 101.368 142.635 104.627 142.69 107.14C142.704 107.792 143.074 108.196 143.291 108.777C143.584 109.562 143.426 110.546 143.231 111.329C142.971 112.376 142.894 113.119 142.845 114.188C142.793 115.296 142.119 117.014 142.34 118.087" stroke="#1E1E1E" stroke-width="4" stroke-linecap="round" stroke-linejoin="round" class="npsZzAnQ_50"></path>
<path d="M112.864 115.653C112.082 115.653 114.188 111.685 114.442 111.257C115.47 109.525 116.901 107.661 118.484 106.417C122.786 103.039 126.67 99.1768 130.864 95.6673C133.027 93.8576 135.217 92.1086 137.34 90.248C139.394 88.4485 140.674 86.3474 142.109 84.0621C143.367 82.0594 144.267 80.1709 144.861 77.8722C144.89 77.7582 145.46 74.8783 145.59 74.8783" stroke="#1E1E1E" stroke-width="4" stroke-linecap="round" stroke-linejoin="round" class="npsZzAnQ_51"></path>
<path d="M155.493 109.546C154.261 109.546 153.439 103.425 153.438 102.565C153.434 100.066 153.926 97.671 154.1 95.1853C154.209 93.6367 153.433 92.2967 153.323 90.7378C153.15 88.2851 153.583 85.9525 154.102 83.5625C154.658 81.0035 154.733 78.3714 155.312 75.8287C155.683 74.1992 156.695 70.4008 158.583 69.932C161.275 69.2635 162.259 74.992 162.821 76.5162C163.677 78.8361 163.656 81.3309 164.583 83.6713C165.574 86.1743 165.236 89.086 164.941 91.6972C164.535 95.2875 164.557 99.0385 163.471 102.525C163.441 102.621 162.787 105.889 162.993 105.935" stroke="#1E1E1E" stroke-width="4" stroke-linecap="round" stroke-linejoin="round" class="npsZzAnQ_52"></path>
<path d="M175.383 108.337C175.326 110.175 176.362 104.771 176.509 102.939C176.718 100.344 176.795 97.9394 177.312 95.368C177.458 94.641 177.581 94.0505 178.051 93.4533C178.275 93.1691 179.194 93.8415 179.505 94.0213C180.438 94.5596 180.511 96.8444 180.634 97.7563C180.859 99.4228 181.901 100.904 182.244 102.595C182.519 103.957 182.912 104.909 182.915 106.375C182.915 106.585 183.123 107.903 182.879 108.103" stroke="#1E1E1E" stroke-width="4" stroke-linecap="round" stroke-linejoin="round" class="npsZzAnQ_53"></path>
<path d="M194.758 115.137C194.758 113.696 195.04 112.28 194.962 110.83C194.831 108.38 194.434 106.649 193.622 104.356C193.076 102.816 192.554 101.269 191.703 99.8592C190.194 97.3599 189.535 94.6169 187.775 92.26C186.875 91.0545 186.754 89.6271 186.256 88.2491C185.932 87.3532 185.136 86.6888 184.442 86.0721C183.183 84.9542 181.946 83.8488 180.558 82.8926C179.238 81.9829 177.357 80.8157 176.413 79.5061C175.693 78.5076 175.116 77.3974 174.399 76.3848C172.995 74.4001 171.588 71.7253 170.922 69.3779C170.354 67.3781 169.99 65.2834 169.524 63.2539C169.159 61.6626 168.433 59.9398 168.291 58.332C168.196 57.2572 167.63 56.2324 167.42 55.1664C167.126 53.6653 167.036 52.2102 166.906 50.6879C166.784 49.2672 167.053 47.8245 166.577 46.4659C166.305 45.6924 166.002 44.0119 166.641 43.3941" stroke="#1E1E1E" stroke-width="4" stroke-linecap="round" stroke-linejoin="round" class="npsZzAnQ_54"></path>
<path d="M84.9415 54.2129C84.8715 52.0725 85.4831 50.7215 86.3598 48.659C88.2364 44.2443 90.499 40.0669 93.1934 36.0889C94.8174 33.6912 96.1593 31.2304 97.6705 28.7756C99.0713 26.4999 100.949 24.8701 102.846 23.0473C104.26 21.6888 105.277 19.4292 106.891 18.4105" stroke="#1E1E1E" stroke-width="4" stroke-linecap="round" stroke-linejoin="round" class="npsZzAnQ_55"></path>
<path d="M115.614 16.1531C114.575 16.1531 116.381 15.2109 116.839 15.1837C118.704 15.073 120.323 14.3956 122.149 14.1231C126.933 13.4094 131.743 12.9174 136.532 12.1923C138.679 11.867 140.836 11.818 142.976 11.3887C144.564 11.0702 147.085 10.1455 148.66 10.8464C151.617 12.1624 154.221 13.9913 157.089 15.4413C160.116 16.9718 163.36 18.8531 165.849 21.1985C168.633 23.8217 168.403 27.0194 167.823 30.458C167.448 32.683 167.355 34.8814 166.585 37.0429C165.683 39.5764 165.36 42.416 163.816 44.6689C162.845 46.0871 161.052 47.2339 160.538 48.8926C159.839 51.1483 159.85 53.2373 159.793 55.5967C159.783 56.0159 159.882 60.5669 159.413 61.0017C159.218 61.1824 157.798 59.6352 157.65 59.4949C156.536 58.4385 156.218 58.3969 155.153 59.5596C153.919 60.9074 152.467 62.1474 151.679 63.8282C151.07 65.1276 150.785 66.3133 149.861 67.4837C149.276 68.2258 147.816 69.4197 147.732 70.4405C147.679 71.0938 147.636 71.6907 147.342 72.2949C146.872 73.2615 144.884 72.4071 144.303 72.0361C142.401 70.8222 140.802 71.5402 138.971 72.6437C136.664 74.0344 134.815 76.9364 133.052 78.9846C132.744 79.342 132.201 80.4079 131.625 80.2639C130.426 79.964 130.282 78.2691 129.921 77.3086C129.276 75.5937 127.317 74.5596 125.927 73.4923C125.011 72.7888 124.331 72.2584 123.16 72.0996C119.704 71.6308 116.773 72.763 114.234 75.1415C111.971 77.2624 109.17 80.5321 108.461 83.6442C108.197 84.8034 107.769 85.9317 107.507 87.0781C107.359 87.7248 106.796 87.2826 106.147 87.2386C105.643 87.2045 104.257 86.7693 103.824 87.1582C103.36 87.5749 102.936 87.9191 102.413 88.2638C100.849 89.2943 99.0346 91.1866 98.1417 92.7931C97.4736 93.995 97.0145 95.2427 95.9785 96.1912C95.2453 96.8624 94.4913 97.4599 93.8767 98.2499C93.0739 99.2816 92.4455 100.537 91.498 101.443C90.7646 102.145 91.1624 101.185 90.5029 101.017C88.3276 100.462 87.5912 103.713 86.6287 104.874C86.007 105.624 84.1215 104.234 83.502 103.961C81.4511 103.057 81.1008 103.98 80.2428 105.59C78.1867 109.448 76.2641 113.199 75.2619 117.491C74.8624 119.202 74.7883 122.673 73.2419 123.857C73.1026 123.963 72.6725 124.413 72.6155 124.329C71.3826 122.512 70.5799 120.485 69.2114 118.749C66.6395 115.486 65.3713 111.225 62.4148 108.217C60.0737 105.836 57.9999 103.731 55.2996 101.721C52.3522 99.5281 48.9461 97.6699 45.7937 95.7823C43.3649 94.328 40.3437 93.2846 38.4411 91.1208C36.725 89.1693 36.4241 85.8672 36.4241 83.3487C36.4241 82.5499 34.5458 81.0867 33.8827 80.9283C32.5924 80.62 32.7174 80.439 33.6369 79.3965C34.7518 78.1326 34.8844 76.5145 34.9938 74.9098C35.1024 73.3155 35.4429 71.7549 35.6262 70.1682C35.835 68.3607 35.7354 64.8144 34.3659 63.4736C33.0937 62.2279 30.8971 61.4462 29.1239 61.8479C27.9873 62.1053 27.3237 63.1576 26.0942 63.2305C24.6002 63.319 24.221 61.428 23.1685 60.6837C22.403 60.1423 21.4463 59.0771 20.492 59.0771C19.2375 59.0771 18.2982 60.1203 17.0196 60.2788C15.9617 60.41 13.5119 60.359 12.6266 60.8763C12.1655 61.1458 11.8031 61.6828 11.7412 61.0405C11.5963 59.5368 12.1728 58.0042 12.5753 56.5756C13.7465 52.4194 14.6704 48.7043 14.6704 44.3614C14.6704 39.6978 15.8434 34.5441 17.9634 30.3982C19.2967 27.7906 21.3505 25.6039 23.1343 23.3043C24.647 21.3544 26.6501 20.4023 28.46 18.8058C29.8461 17.5832 31.1085 16.348 32.7402 15.4508C33.6718 14.9387 34.4291 14.3414 34.9369 13.3866C35.6163 12.1093 34.1332 11.3795 34.4147 10.3108C34.6523 9.40872 38.0307 9.65263 38.5621 9.65263C41.6875 9.65263 44.1039 8.81726 46.9766 7.69966C49.8551 6.5798 52.6847 5.2797 55.5634 4.20724C56.2869 3.93769 53.8867 1.85794 54.623 2.09035C56.1038 2.55772 57.3185 3.43666 58.8991 3.72902C60.4683 4.01926 61.8692 4.39796 63.4036 4.80996C66.9339 5.75787 70.6374 6.09987 74.1439 7.09849C76.5405 7.78099 79.1979 7.79544 81.5987 7.02793C82.4206 6.76515 81.3251 5.15691 82.5557 5.71958C84.8972 6.79019 86.9145 9.14736 89.4408 9.75801C91.6207 10.2849 93.8882 11.5839 95.9318 12.5223C96.955 12.9922 98.8633 13.6106 99.5604 14.5668" stroke="#1E1E1E" stroke-width="4" stroke-linecap="round" stroke-linejoin="round" class="npsZzAnQ_56"></path>
<path d="M95.3444 99.0892C95.4817 98.3998 98.4951 98.8656 98.8587 98.8627C101.086 98.8454 104.372 99.6647 106.338 100.71C108.351 101.78 110.371 103.257 111.477 105.228C111.967 106.1 112.631 106.896 112.828 107.898C112.866 108.091 112.844 109.385 112.982 108.868" stroke="#1E1E1E" stroke-width="4" stroke-linecap="round" stroke-linejoin="round" class="npsZzAnQ_57"></path>
<path d="M50.781 100.886C49.6791 101.561 48.701 102.467 47.6756 103.286C45.9835 104.639 44.6454 106.351 43.0276 107.784C41.5334 109.108 39.9471 110.327 38.4586 111.659C36.276 113.613 34.2669 115.27 31.7837 116.812C31.5846 116.935 31.4041 117.061 31.1751 116.943C30.2639 116.474 29.5916 116.972 28.6924 117.113C26.5416 117.45 25.4879 118.116 23.8846 119.718C22.6944 120.908 22.3796 122.366 20.8967 123.289C19.1043 124.405 16.7282 124.856 14.7822 125.678C12.4502 126.662 11.4543 128.06 10.7135 130.404C8.81327 136.416 7.10933 142.606 4.44587 148.357C4.19568 148.897 2.50517 153.507 2.86914 153.617C3.48008 153.801 4.28679 153.853 4.66785 154.436C5.55636 155.794 4.77179 158.383 4.39736 159.775C3.63975 162.593 3.50492 165.847 3.28168 168.769C3.17673 170.143 2.92233 171.535 2.86313 172.908C2.8484 173.249 3.90861 173.264 4.16476 173.375C5.39587 173.911 4.93433 176.48 4.92448 177.491C4.89228 180.794 4.63252 184.058 4.5706 187.354C4.54799 188.558 4.23912 191.682 6.17367 191.682C7.31209 191.682 8.24823 191.521 9.17469 190.791C9.40707 190.607 9.87247 190.04 10.2095 190.04C10.6466 190.04 10.7589 190.124 10.9836 190.54C11.5791 191.644 12.2778 192.218 13.5734 192.441C16.4234 192.933 19.285 190.65 20.772 193.891C21.6676 195.843 23.6908 196.579 24.5821 198.667C25.0659 199.8 25.5034 201.473 26.4234 202.337C27.1133 202.985 28.1557 203.081 28.827 203.786C29.6467 204.646 29.414 206.397 29.414 207.45C29.414 209.327 28.8795 211.08 28.8023 212.912C28.7194 214.882 28.3164 216.629 28.1579 218.573C28.0231 220.227 27.0493 223.28 28.1893 224.693C29.2986 226.069 30.9932 225.71 30.9856 227.964C30.9721 232 29.4077 235.905 29.866 240.018C29.9936 241.163 29.8203 242.482 30.0511 243.597C30.1212 243.936 30.8839 244.178 30.9586 244.739C31.1188 245.942 30.9582 247.275 30.4705 248.384C30.3531 248.651 29.3568 249.906 29.6464 249.968C32.2318 250.525 36.0641 249.931 38.1204 248.266C39.5004 247.149 41.9186 243.245 44.0301 243.574C45.0856 243.738 45.1893 243.226 45.9953 242.515" stroke="#1E1E1E" stroke-width="4" stroke-linecap="round" stroke-linejoin="round" class="npsZzAnQ_58"></path>
<path d="M213.318 439.114C212.556 443.693 208.257 435.833 207.987 435.054C205.082 426.673 207.065 416.702 207.065 408.02C207.065 405.463 206.692 402.999 206.243 400.491C205.919 398.689 206.035 395.19 204.591 393.73C204.112 393.245 203.744 393.333 203.066 393.199C198.087 392.214 207.91 406.309 208.787 407.31C211.846 410.805 215.809 413.416 219.011 416.802C222.936 420.955 227.452 424.41 231.624 428.301C239.149 435.32 247.34 444.152 251.709 453.622C252.102 454.474 254.248 460.921 252.822 461.455C251.129 462.09 248.771 458.466 248.066 457.482C245.573 454.004 243.889 449.969 241.98 446.163C239.895 442.007 237.32 438.239 235.473 433.942C233.834 430.126 232.089 426.356 230.378 422.571C228.542 418.509 227.759 414.026 226.362 409.805C224.856 405.254 224.241 400.421 222.732 395.9C221.585 392.463 224.472 403.084 226.467 406.109C227.073 407.028 229.304 406.843 230.2 406.557C232.143 405.937 232.114 403.341 231.791 401.753C231.1 398.352 229.626 391.851 225.238 391.348C224.415 391.254 223.358 390.973 223.358 392.032C223.358 392.821 223.445 393.804 224.077 394.367C226.628 396.642 225.262 384.738 225.236 383.787C225.153 380.709 224.335 374.857 226.731 372.542C227.044 372.239 225.569 372.126 225.439 374.037C225.172 377.958 226.283 383.723 230.474 385.389C235.139 387.243 234.871 382.298 233.491 379.637C232.449 377.628 230.512 373.968 228.401 372.937C225.957 371.743 232.497 376.681 235.007 377.729C236.769 378.465 239.062 378.106 239.12 375.65C239.161 373.868 237.55 372.018 236.668 370.569C235.283 368.292 234.452 365.749 233.133 363.444C231.898 361.284 230.236 358.915 232.438 363.126C234.008 366.129 237.298 369.506 240.876 369.506C244.305 369.506 246 366.214 245.197 363.06C244.146 358.932 238.16 354.848 234.113 354.597C232.761 354.513 231.836 354.642 231.836 356.032C231.836 357.28 234.297 361.134 235.65 359.38C236.58 358.175 236.875 355.921 236.875 354.433" stroke="#1E1E1E" stroke-width="4" stroke-linecap="round" stroke-linejoin="round" class="npsZzAnQ_59"></path>
<path d="M215.911 378.252C215.727 379.976 214.579 376.477 214.499 375.957C214.169 373.786 214.2 371.625 215.584 369.821C217.501 367.321 219.261 365.204 219.565 361.929C219.785 359.56 218.503 357.756 218.357 355.465" stroke="#1E1E1E" stroke-width="4" stroke-linecap="round" stroke-linejoin="round" class="npsZzAnQ_60"></path>
<path d="M237.869 340.038C239.844 342.343 235.065 334.564 232.983 332.356C229.914 329.098 235.313 333.525 236.667 334.208C241.951 336.873 246.984 340.816 252.684 342.535C253.56 342.8 254.69 345.158 254.825 344.253" stroke="#1E1E1E" stroke-width="4" stroke-linecap="round" stroke-linejoin="round" class="npsZzAnQ_61"></path>
<path d="M234.274 321.624C234.274 317.866 236.689 312.996 238.561 309.764" stroke="#1E1E1E" stroke-width="4" stroke-linecap="round" stroke-linejoin="round" class="npsZzAnQ_62"></path>
<path d="M235.151 322.184C235.141 322.102 235.676 322.682 235.922 322.887C237.336 324.067 239.007 324.947 240.639 325.787C243.176 327.094 242.996 327.45 242.907 324.834C242.737 319.804 244.456 313.635 250.603 313.635C255.563 313.635 260.044 317.907 262.236 322.145C263.379 324.355 263.57 326.433 261.817 328.335C260.988 329.236 257.239 332.428 256.8 330.9" stroke="#1E1E1E" stroke-width="4" stroke-linecap="round" stroke-linejoin="round" class="npsZzAnQ_63"></path>
<path d="M266.648 304.674C266.681 304.748 266.792 305.1 266.677 305.146" stroke="#1E1E1E" stroke-width="4" stroke-linecap="round" stroke-linejoin="round" class="npsZzAnQ_64"></path>
<path d="M258.295 300.37C258.283 299.967 258.206 300.746 258.206 300.832" stroke="#1E1E1E" stroke-width="4" stroke-linecap="round" stroke-linejoin="round" class="npsZzAnQ_65"></path>
<path d="M262.147 289.532C261.75 286.354 259.088 283.096 257.552 280.372C257.371 280.051 256.404 278.521 256.529 278.603C258.36 279.821 259.997 281.25 261.897 282.38C266.349 285.028 270.537 287.834 274.892 290.622C276.665 291.757 278.502 293.457 280.415 294.308" stroke="#1E1E1E" stroke-width="4" stroke-linecap="round" stroke-linejoin="round" class="npsZzAnQ_66"></path>
<style data-made-with="vivus-instant">.npsZzAnQ_0{stroke-dasharray:135 137;stroke-dashoffset:136;animation:npsZzAnQ_draw 1333ms linear 0ms forwards;}.npsZzAnQ_1{stroke-dasharray:8 10;stroke-dashoffset:9;animation:npsZzAnQ_draw 1333ms linear 10ms forwards;}.npsZzAnQ_2{stroke-dasharray:72 74;stroke-dashoffset:73;animation:npsZzAnQ_draw 1333ms linear 20ms forwards;}.npsZzAnQ_3{stroke-dasharray:139 141;stroke-dashoffset:140;animation:npsZzAnQ_draw 1333ms linear 30ms forwards;}.npsZzAnQ_4{stroke-dasharray:82 84;stroke-dashoffset:83;animation:npsZzAnQ_draw 1333ms linear 40ms forwards;}.npsZzAnQ_5{stroke-dasharray:116 118;stroke-dashoffset:117;animation:npsZzAnQ_draw 1333ms linear 50ms forwards;}.npsZzAnQ_6{stroke-dasharray:121 123;stroke-dashoffset:122;animation:npsZzAnQ_draw 1333ms linear 60ms forwards;}.npsZzAnQ_7{stroke-dasharray:184 186;stroke-dashoffset:185;animation:npsZzAnQ_draw 1333ms linear 70ms forwards;}.npsZzAnQ_8{stroke-dasharray:26 28;stroke-dashoffset:27;animation:npsZzAnQ_draw 1333ms linear 80ms forwards;}.npsZzAnQ_9{stroke-dasharray:101 103;stroke-dashoffset:102;animation:npsZzAnQ_draw 1333ms linear 90ms forwards;}.npsZzAnQ_10{stroke-dasharray:7 9;stroke-dashoffset:8;animation:npsZzAnQ_draw 1333ms linear 101ms forwards;}.npsZzAnQ_11{stroke-dasharray:67 69;stroke-dashoffset:68;animation:npsZzAnQ_draw 1333ms linear 111ms forwards;}.npsZzAnQ_12{stroke-dasharray:127 129;stroke-dashoffset:128;animation:npsZzAnQ_draw 1333ms linear 121ms forwards;}.npsZzAnQ_13{stroke-dasharray:7 9;stroke-dashoffset:8;animation:npsZzAnQ_draw 1333ms linear 131ms forwards;}.npsZzAnQ_14{stroke-dasharray:6 8;stroke-dashoffset:7;animation:npsZzAnQ_draw 1333ms linear 141ms forwards;}.npsZzAnQ_15{stroke-dasharray:150 152;stroke-dashoffset:151;animation:npsZzAnQ_draw 1333ms linear 151ms forwards;}.npsZzAnQ_16{stroke-dasharray:81 83;stroke-dashoffset:82;animation:npsZzAnQ_draw 1333ms linear 161ms forwards;}.npsZzAnQ_17{stroke-dasharray:17 19;stroke-dashoffset:18;animation:npsZzAnQ_draw 1333ms linear 171ms forwards;}.npsZzAnQ_18{stroke-dasharray:362 364;stroke-dashoffset:363;animation:npsZzAnQ_draw 1333ms linear 181ms forwards;}.npsZzAnQ_19{stroke-dasharray:0 2;stroke-dashoffset:1;animation:npsZzAnQ_draw 1333ms linear 191ms forwards;}.npsZzAnQ_20{stroke-dasharray:18 20;stroke-dashoffset:19;animation:npsZzAnQ_draw 1333ms linear 202ms forwards;}.npsZzAnQ_21{stroke-dasharray:30 32;stroke-dashoffset:31;animation:npsZzAnQ_draw 1333ms linear 212ms forwards;}.npsZzAnQ_22{stroke-dasharray:79 81;stroke-dashoffset:80;animation:npsZzAnQ_draw 1333ms linear 222ms forwards;}.npsZzAnQ_23{stroke-dasharray:15 17;stroke-dashoffset:16;animation:npsZzAnQ_draw 1333ms linear 232ms forwards;}.npsZzAnQ_24{stroke-dasharray:77 79;stroke-dashoffset:78;animation:npsZzAnQ_draw 1333ms linear 242ms forwards;}.npsZzAnQ_25{stroke-dasharray:92 94;stroke-dashoffset:93;animation:npsZzAnQ_draw 1333ms linear 252ms forwards;}.npsZzAnQ_26{stroke-dasharray:150 152;stroke-dashoffset:151;animation:npsZzAnQ_draw 1333ms linear 262ms forwards;}.npsZzAnQ_27{stroke-dasharray:16 18;stroke-dashoffset:17;animation:npsZzAnQ_draw 1333ms linear 272ms forwards;}.npsZzAnQ_28{stroke-dasharray:103 105;stroke-dashoffset:104;animation:npsZzAnQ_draw 1333ms linear 282ms forwards;}.npsZzAnQ_29{stroke-dasharray:114 116;stroke-dashoffset:115;animation:npsZzAnQ_draw 1333ms linear 292ms forwards;}.npsZzAnQ_30{stroke-dasharray:95 97;stroke-dashoffset:96;animation:npsZzAnQ_draw 1333ms linear 303ms forwards;}.npsZzAnQ_31{stroke-dasharray:77 79;stroke-dashoffset:78;animation:npsZzAnQ_draw 1333ms linear 313ms forwards;}.npsZzAnQ_32{stroke-dasharray:77 79;stroke-dashoffset:78;animation:npsZzAnQ_draw 1333ms linear 323ms forwards;}.npsZzAnQ_33{stroke-dasharray:124 126;stroke-dashoffset:125;animation:npsZzAnQ_draw 1333ms linear 333ms forwards;}.npsZzAnQ_34{stroke-dasharray:81 83;stroke-dashoffset:82;animation:npsZzAnQ_draw 1333ms linear 343ms forwards;}.npsZzAnQ_35{stroke-dasharray:117 119;stroke-dashoffset:118;animation:npsZzAnQ_draw 1333ms linear 353ms forwards;}.npsZzAnQ_36{stroke-dasharray:10 12;stroke-dashoffset:11;animation:npsZzAnQ_draw 1333ms linear 363ms forwards;}.npsZzAnQ_37{stroke-dasharray:58 60;stroke-dashoffset:59;animation:npsZzAnQ_draw 1333ms linear 373ms forwards;}.npsZzAnQ_38{stroke-dasharray:43 45;stroke-dashoffset:44;animation:npsZzAnQ_draw 1333ms linear 383ms forwards;}.npsZzAnQ_39{stroke-dasharray:63 65;stroke-dashoffset:64;animation:npsZzAnQ_draw 1333ms linear 393ms forwards;}.npsZzAnQ_40{stroke-dasharray:48 50;stroke-dashoffset:49;animation:npsZzAnQ_draw 1333ms linear 404ms forwards;}.npsZzAnQ_41{stroke-dasharray:550 552;stroke-dashoffset:551;animation:npsZzAnQ_draw 1333ms linear 414ms forwards;}.npsZzAnQ_42{stroke-dasharray:50 52;stroke-dashoffset:51;animation:npsZzAnQ_draw 1333ms linear 424ms forwards;}.npsZzAnQ_43{stroke-dasharray:336 338;stroke-dashoffset:337;animation:npsZzAnQ_draw 1333ms linear 434ms forwards;}.npsZzAnQ_44{stroke-dasharray:20 22;stroke-dashoffset:21;animation:npsZzAnQ_draw 1333ms linear 444ms forwards;}.npsZzAnQ_45{stroke-dasharray:346 348;stroke-dashoffset:347;animation:npsZzAnQ_draw 1333ms linear 454ms forwards;}.npsZzAnQ_46{stroke-dasharray:39 41;stroke-dashoffset:40;animation:npsZzAnQ_draw 1333ms linear 464ms forwards;}.npsZzAnQ_47{stroke-dasharray:124 126;stroke-dashoffset:125;animation:npsZzAnQ_draw 1333ms linear 474ms forwards;}.npsZzAnQ_48{stroke-dasharray:27 29;stroke-dashoffset:28;animation:npsZzAnQ_draw 1333ms linear 484ms forwards;}.npsZzAnQ_49{stroke-dasharray:27 29;stroke-dashoffset:28;animation:npsZzAnQ_draw 1333ms linear 494ms forwards;}.npsZzAnQ_50{stroke-dasharray:51 53;stroke-dashoffset:52;animation:npsZzAnQ_draw 1333ms linear 505ms forwards;}.npsZzAnQ_51{stroke-dasharray:54 56;stroke-dashoffset:55;animation:npsZzAnQ_draw 1333ms linear 515ms forwards;}.npsZzAnQ_52{stroke-dasharray:80 82;stroke-dashoffset:81;animation:npsZzAnQ_draw 1333ms linear 525ms forwards;}.npsZzAnQ_53{stroke-dasharray:33 35;stroke-dashoffset:34;animation:npsZzAnQ_draw 1333ms linear 535ms forwards;}.npsZzAnQ_54{stroke-dasharray:81 83;stroke-dashoffset:82;animation:npsZzAnQ_draw 1333ms linear 545ms forwards;}.npsZzAnQ_55{stroke-dasharray:43 45;stroke-dashoffset:44;animation:npsZzAnQ_draw 1333ms linear 555ms forwards;}.npsZzAnQ_56{stroke-dasharray:471 473;stroke-dashoffset:472;animation:npsZzAnQ_draw 1333ms linear 565ms forwards;}.npsZzAnQ_57{stroke-dasharray:23 25;stroke-dashoffset:24;animation:npsZzAnQ_draw 1333ms linear 575ms forwards;}.npsZzAnQ_58{stroke-dasharray:216 218;stroke-dashoffset:217;animation:npsZzAnQ_draw 1333ms linear 585ms forwards;}.npsZzAnQ_59{stroke-dasharray:396 398;stroke-dashoffset:397;animation:npsZzAnQ_draw 1333ms linear 595ms forwards;}.npsZzAnQ_60{stroke-dasharray:26 28;stroke-dashoffset:27;animation:npsZzAnQ_draw 1333ms linear 606ms forwards;}.npsZzAnQ_61{stroke-dasharray:39 41;stroke-dashoffset:40;animation:npsZzAnQ_draw 1333ms linear 616ms forwards;}.npsZzAnQ_62{stroke-dasharray:13 15;stroke-dashoffset:14;animation:npsZzAnQ_draw 1333ms linear 626ms forwards;}.npsZzAnQ_63{stroke-dasharray:55 57;stroke-dashoffset:56;animation:npsZzAnQ_draw 1333ms linear 636ms forwards;}.npsZzAnQ_64{stroke-dasharray:1 3;stroke-dashoffset:2;animation:npsZzAnQ_draw 1333ms linear 646ms forwards;}.npsZzAnQ_65{stroke-dasharray:1 3;stroke-dashoffset:2;animation:npsZzAnQ_draw 1333ms linear 656ms forwards;}.npsZzAnQ_66{stroke-dasharray:41 43;stroke-dashoffset:42;animation:npsZzAnQ_draw 1333ms linear 666ms forwards;}@keyframes npsZzAnQ_draw{100%{stroke-dashoffset:0;}}@keyframes npsZzAnQ_fade{0%{stroke-opacity:1;}93.54838709677419%{stroke-opacity:1;}100%{stroke-opacity:0;}}</style></svg>
