<svg width="330" height="410" viewBox="0 0 330 410" fill="none" xmlns="http://www.w3.org/2000/svg">
<path d="M147.486 319.868C134.151 319.868 121.505 321.733 108.506 317.376C90.648 311.391 80.8143 290.17 76.2004 272.992C59.3767 210.357 107.834 142.899 137.728 92.204C151.257 69.2604 163.743 45.475 173.218 20.5444C174.553 17.0313 178.322 -2.77983 182.31 3.67236C190.567 17.03 193.765 31.3531 198.446 46.3816C208.915 79.9931 229.767 105.438 248.762 134.53C264.196 158.17 283.051 182.918 285.647 211.919C288.318 241.745 278.087 277.439 266.737 304.952C249.633 346.416 202.317 371.683 159.28 369.519C121.585 367.623 83.3544 355.649 64.6787 320.862C58.3044 308.988 58.1933 296.416 58.1933 283.225C58.1933 281.734 58.7273 263.338 61.709 267.13" stroke="#1E1E1E" stroke-width="4" stroke-linecap="round" stroke-linejoin="round"/>
<path d="M65.8983 348.63C69.5073 348.63 62.0546 354.741 60.1973 357.835C58.7371 360.268 57.0468 362.841 57.5604 365.816C59.1178 374.838 71.1931 377.869 78.6675 378.524C111.142 381.369 144.788 378.587 177.059 375.949C194.12 374.554 212.002 372.523 228.621 368.438C235.389 366.775 242.743 366.688 249.317 364.51C254.269 362.869 258.63 360.26 263.729 359.035C270.271 357.462 266.523 340.641 259.78 341.498" stroke="#1E1E1E" stroke-width="4" stroke-linecap="round" stroke-linejoin="round"/>
<path d="M48.368 318.113C42.0942 318.581 32.2115 328.62 27.7005 332.541C19.8194 339.391 13.5656 348.369 7.36927 356.708C-7.59305 376.842 11.8079 388.278 27.7642 395.248C67.9257 412.793 116.668 406.612 159.602 406.029C179.334 405.761 197.589 401.491 217.488 402.729C232.068 403.635 246.677 402.285 261.272 403.355C273.273 404.234 284.803 400.726 296.978 400.867C302.345 400.929 307.689 397.346 312.702 395.35C323.09 391.213 327.281 377.823 327.603 367.955C328.163 350.839 309.123 333.798 295.652 325.343C289.587 321.537 279.808 312.739 272.232 312.739" stroke="#1E1E1E" stroke-width="4" stroke-linecap="round" stroke-linejoin="round"/>
<path d="M28.8817 220.817C24.2088 220.817 30.9107 194.542 31.8297 191.043C33.643 184.14 35.8908 177.13 36.5468 169.999C36.7002 168.332 39.7642 152.193 37.862 151.531C29.8636 148.748 36.7326 171.288 37.5572 173.2C43.801 187.681 54.553 203.314 51.3737 219.993C51.1065 221.396 50.5409 223.578 49.254 224.434C48.352 225.033 47.9664 220.655 47.8576 219.928C46.7798 212.728 46.8472 204.728 47.6487 197.51C49.056 184.835 50.7929 170.947 55.1122 158.923C56.252 155.75 53.1027 165.477 53.1623 168.848C53.255 174.088 58.6973 169.923 59.1329 166.787C59.4806 164.284 60.4218 156.559 58.472 154.557C56.8854 152.929 56.1428 153.463 55.8898 155.386C55.774 156.267 56.5801 159.899 57.855 158.145C60.2925 154.791 60.8649 149.691 62.2667 145.841C62.8639 144.201 63.999 140.48 65.6014 139.454C66.7927 138.691 64.0882 141.893 63.7193 143.258C63.2467 145.008 62.7734 147.706 63.4395 149.473C64.7561 152.965 68.2607 151.197 68.6111 148.113C68.9747 144.913 68.0039 142.025 68.0039 138.894C68.0039 137.704 70.1249 140.785 70.9263 141.501C73.8391 144.104 74.4721 140.657 75.0081 137.87C75.8135 133.683 75.3944 129.837 76.8236 125.707C77.0604 125.023 78.2053 121.457 78.1095 122.255C77.6484 126.096 77.1649 129.087 79.7741 132.154C81.8192 134.558 85.6284 131.251 85.9841 128.981C86.513 125.607 87.2211 120.988 84.7196 118.21C83.698 117.076 81.0355 116.506 80.3299 118.252C79.8305 119.488 79.815 120.577 81.5004 120.577C84.0854 120.577 83.5547 115.233 85.3329 114.284" stroke="#1E1E1E" stroke-width="4" stroke-linecap="round" stroke-linejoin="round"/>
<path d="M56.0077 140.29C54.4126 140.29 54.1853 135.753 56.6785 135.413C61.3974 134.769 62.5941 131.59 62.5941 127.251" stroke="#1E1E1E" stroke-width="4" stroke-linecap="round" stroke-linejoin="round"/>
<path d="M87.4771 84.523C90.7948 82.0151 94.3374 79.0351 95.1245 74.7257C95.295 73.7922 94.8308 69.7834 94.8135 70.463C94.654 76.7415 98.7269 83.4566 101.313 88.9511C101.89 90.1768 105.642 97.6425 105.642 96.6827" stroke="#1E1E1E" stroke-width="4" stroke-linecap="round" stroke-linejoin="round"/>
<path d="M95.5039 92.2089C95.5039 89.3121 102.573 85.9558 103.916 82.8801" stroke="#1E1E1E" stroke-width="4" stroke-linecap="round" stroke-linejoin="round"/>
<path d="M116.428 75.7516V75.8543" stroke="#1E1E1E" stroke-width="4" stroke-linecap="round" stroke-linejoin="round"/>
<path d="M112.833 68.3443C112.787 68.3042 112.749 68.3003 112.69 68.3003" stroke="#1E1E1E" stroke-width="4" stroke-linecap="round" stroke-linejoin="round"/>
<path d="M115.395 51.1974C113.414 51.1974 119.838 40.9578 121.135 45.6196C121.712 47.6952 121.363 50.1621 120.912 52.2218C120.246 55.2589 120.868 52.3184 121.824 50.9497C124.621 46.9455 129.834 44.1959 133.525 48.3649C136.148 51.327 135.507 61.1136 130.525 61.597" stroke="#1E1E1E" stroke-width="4" stroke-linecap="round" stroke-linejoin="round"/>
<path d="M131.602 29.0636C130.78 28.9607 135.018 21.8938 135.309 21.4069C135.878 20.4548 136.626 17.2091 138.263 17.7391C142.107 18.9839 144.128 29.2043 145.534 32.4315C145.914 33.3045 150.066 41.1942 148.502 37.6883" stroke="#1E1E1E" stroke-width="4" stroke-linecap="round" stroke-linejoin="round"/>
<path d="M138.793 34.8427C138.793 32.1101 145.025 27.3389 147.194 25.8073" stroke="#1E1E1E" stroke-width="4" stroke-linecap="round" stroke-linejoin="round"/>
</svg>
